<mxfile host="app.diagrams.net" modified="2023-02-07T06:55:03.397Z" agent="5.0 (Macintosh; Intel Mac OS X 10_15_7) AppleWebKit/537.36 (KHTML, like Gecko) Chrome/109.0.0.0 Safari/537.36" etag="JGcXDDDu-dJTKKGETOoT" version="20.8.16" type="github">
  <diagram name="Page-1" id="c_frHdsCgJ_yhxDeACR6">
    <mxGraphModel dx="954" dy="513" grid="1" gridSize="10" guides="1" tooltips="1" connect="1" arrows="1" fold="1" page="1" pageScale="1" pageWidth="827" pageHeight="1169" math="0" shadow="0">
      <root>
        <mxCell id="0" />
        <mxCell id="1" parent="0" />
        <mxCell id="wQwRtAjgx6AJS_B1r6r8-1" value="" style="shape=image;imageAspect=0;aspect=fixed;verticalLabelPosition=bottom;verticalAlign=top;image=data:image/png,iVBORw0KGgoAAAANSUhEUgAAAS0AAACnCAMAAABzYfrWAAAAkFBMVEXy8vQAAAD29viysbPx8fP5+Pq6urxjY2PT09X39vmpqaqDg4Tw8PJBQUInJyf49/qbmpx0dHT////i4uTe3uDX19dRUVGKiorNzc+ioqLn5+d+fn7Hx8kdHR3p6evBwcMsLCwzMzJVVVUMDAxJSUk9PT5qampdXV14eHiRkZMWFRe2trchICKlpaY5ODorKy3Gy+otAAAHMUlEQVR4nO2bi2KiOhCGmZEoIPXGRQRFUUQtXfv+b3dyAYVWLbvbPYqdb1uEEFzzd5L5E1DTCIIgCIIgCIIgCIIgCIIgCIIgCIIgCIIgCIIgCIIgCIIgCIIgCIIgCIIgCIIgCIIgCIIgiIdE5//ky4dS/qtXjwihA0Nb4xu9WoYod/iL2DfxTh/u4cBgv9Q0J/olFJFhxn/MUeSIc929gc6vfv9gyJNFEP7gQEMLDogG7FBDU5WgxsZg8Bc8QDd+B86IcQlLnVD+/EiwAwfG1eph7BkuP3YCwxVqOYGD7jLuQOY6hoO2xzda7KCju7YouPcHvwtcrRFDD3pawmOoj/kG4F0fQwqw1UewtGDGeLi5W4DNaBK9ZgMH0g1slj9SLq7WKk1feGx1lvMtOBl0ljmOYdXfgsd7IldL9LwMDnkCYQSwd7hsFq9/709+D7hag5eXI/SY7hkZeHsY5zbvid6E98ZRqZaWQjjpQxBBzhxYTzTw7/3B/4Y/zlOm6IlD3hNj0RPBC6MBJPYePHZSi/dEoRaTagXI1UIdUmyvCeOuyMSG1K/kah2GpgdZAP1wB56NuBMRVqqVQxaGXrgGT+ORp9TytVCo1V68TmPs2oUmdxCmyXOiC6s1gBsNUtiEXCmWgXGAPF6JkJtZ8JrAC+5hztWCZMXzwX0a+i0E0JQd1ntQEC0104kslvf6nX64jHrjOXYiB/OpM+9zdzoaj6cG5uPeIeRlLlcr2fem8Z0a+i3wSGiI8TEo5KRHeFGGcsuY2Koi0W9RFKitLo75uCX379LO74H3pWZkf9uDeGyl5rd85jvCLdKfhdZvE3fd7/jAd4Xb8SaM/35w1mu9sKULFM2Cq1lofbQZV4ldo9tto1zYZOT6HFq6HYecWpEocOyvh3Gcv/H33LFvbMX/htkguD6HFnLvwSfSXqVkKas6X2c97IqKPamWyKstypN6beRazefpLujCLJjWQutze+xXcebXWcZhJAr8Bv2rplbszo0WyaVxp33iOJmsxxMbgkmnGlqXrpIhuRuWx7qeiIJRA7XMk1qYHxcA/Vb1yUpwDSzr6FszmFoVCbPhhYswl+fO3lyNf8HvqTUSe9NWqVU19IsFbPjv6+L1dmgJby44ZTacSbXV+vvtntVutbRzWkxszc+4EEu0zqMWu9R4HdfiZHRSaycO96rheNNMnNVibVSLndLikYlxK4Z5Zdy67LV0FUxJuTQRF6HGXWfsBfN54OrXFGt5bJ3T4sb3FwM/hRf/WBbtr7QZqwOVrhTYxGhlSXHhe+SJaXVnkCSDg5wi2rtVkrx7Q6XWJB8cB2LvbXvcJk3Sw4NwMvSLKBocozH0onWplnfBPihexOmROq0SazbE9DzeiXsWuurSalnL3spYZYVaVqVqo2T6IJwM/WcHEV1dOEBpyXbqwJarfx2TRVUJFo5WU+vlulpWe9Q6GfokDP0s9KAbz4pWXF84MOcyfpR5D4rKcjRbrJK3MmKaqtWmaePVpYjoRiPU/ehc1MCD2PV5x/M6hpgr2obskj12XS0We64Mz73neUbcIj+vVwz9bi5upZahdUMtlUrHMqOty7GnvOGBMvKON2KLaVg6iE83SR6cSnDtJ/ZJrejqEK+VTuBd2HlXXlE18uiKkjcc3lCrnQ5CcPZcfmd2Usu9acsdWW+OxTToaBcPiMg7alKtxc3Yaq9aF9e5oi/aIf37AQupI7n2grYbCLoN1DLbqpbOLqxzebevUaGRchmky+Tuiqs1O1beYIDmc6p1IS3eSoiC4hJXjeiLWGg+rb3D4Flj6/MK/eZWQlRIc95REo1FaH2Q/FnVujByfX0XXtn5jEkVOqgVzj0ZWZZ1qKkll8j0J1LrY3BtbidEeYW08K9Fh9RK+XJuoJhbU0skQBYmz6RWvRs1eMBDtxeyD4qNfHqG9cWueABwWKjFpFo9RDuYylzwWa0+a35v7YGoB5fz9QXVRDo6z4CmjGmGnBysTFTT83UvKStW/ZZaI/NiY/nPG/ft1IJresvGn67IT/U9qZa6TbbaLlRhgmruXaWqVrcsXNhf/l8PR9VzNQgtrVydF7qoY+W8TiSoxfWSmlrFiivIQbJ1VNLitOFIUq4a9ofySyvnYFv5fPOOhYWV7DqbD2qdl//n/7Jd/4hTcDX9W6OV+oI0KBIoLsVSzcKfxfPUTzOxljh64++X7GaehhGv7Zn8jJ+qPwfmKVdwc8y+mDY8JKeRq+kTjzqK59wYnm/Po+YGRiyeeRuKYmF7Y8NwbXnAa8vhTT0KJ6ujw8/qrTQRZVrcNBu1tM+3Douvll2wavqH1yegGLkOTRLiRZ5IiwbIFfrXFmaoe6CWIg4ttNb3Afe/MWr9eHhw/fmo9fPAfqu/AkA8Mj/5G9AEQRAEQRAEQRAEQRAEQRAEQRAEQRAEQRAEQRAEQRAEQRAEQRAEQRAEQRAEQRDEU/MfbJFnRrs3BfMAAAAASUVORK5CYII=;" parent="1" vertex="1">
          <mxGeometry x="60" y="300" width="126.16" height="70" as="geometry" />
        </mxCell>
        <mxCell id="wQwRtAjgx6AJS_B1r6r8-2" style="edgeStyle=orthogonalEdgeStyle;rounded=0;orthogonalLoop=1;jettySize=auto;html=1;exitX=1;exitY=1;exitDx=0;exitDy=0;" parent="1" source="wQwRtAjgx6AJS_B1r6r8-1" target="wQwRtAjgx6AJS_B1r6r8-1" edge="1">
          <mxGeometry relative="1" as="geometry" />
        </mxCell>
        <mxCell id="rECgxxsEBo6WnQ4KSCAi-1" value="" style="shape=image;imageAspect=0;aspect=fixed;verticalLabelPosition=bottom;verticalAlign=top;image=data:image/png,iVBORw0KGgoAAAANSUhEUgAAAXkAAAIICAYAAACLlZ7EAAAAAXNSR0IArs4c6QAAIABJREFUeF7sXQWYFMcS/nvt3G3P4NAESNCQBAIvkBAkIYGE4BJcgwZ3DRYguAQJGiBIkGAJ7u7uJ3vufivzvp6DcMutzOzt7u3dTb3vfRCmu7q6uqe2p7rqLwKBBA2ULA1IynqUdVKKlU5qmdpFwjDODODEMIwTEYncCcO4gmHcGEJcAJETGMYegD0I7AFiBzDklboIYZDDEKjAIAdABkTIYDSaNAKkMwxJgggJhBD63xlqQlJFSmWamGHS04G02NjYDACakqV6YbaFoYHXG7YwxhbGFDRgaQ1Ig/383gHwHiMW1yQa5kMQUo4AMgCSV/+XgoEEhP1vS7wP1JCrACjBQAX6o0D/m0EaA81dBrgKSK5AmXkzPD5eAYCxtFIE/iVLA5bY1CVLg8JsC1sD4gBPzwCpVFpBQ8SVCCEVGIYpQwjKM0BZQk/hRYUYJAPMY4bgETR4AcI8BnCXZMqehCaHJhaVaQhy2pYGBCNvW+shSGNYA6KQkBCZRqNxUKlUH0iArzUatBIRBBRzxTGMBrc0YLZJRPhLmp0dIZPLs+7du6cUTv7FfOXNMD3ByJtBiQILy2og0DMwCHaa5iKgMQEJAUPKgjBulh3VhrkzTBQIeQYwt9Ua0f5sdfbJuLi4VBuWWBCtEDUgGPlCVL4wtE4NkCDXIA/iqCoHsfh/0Gg6EJCagq70a4BhGBWIaC+jUe0UEXJDJRK9UCgU9GJXIEEDFrloEtQqaMAUDZBScnllACNARI0AeAJwMIVRCe+TwgDRGg2zTsao1z6PiYku4foo8dMXTvIlfgsUngIqA7JUubwaAb4EETUHUAOAuPAkKl4jM0AGYXBUTZgDGuBgZGRkqODDL15rzGU2gpHnoiWhjTk1IPLx8XG0l0q/IhrmZxBS1pzMBV56NaDWANuIWjUxLCbm5auwTkFdJUADgpEvAYtsC1P09vZ2sZfatyDQtAJQm4CNiBH2n/UXJ5NhmMtEg80yV6f1T548yba+CMKI1tSA8JJZU9slbCwfHx9niURSUaLBtxCRfgTwKmEqsOnpMgyJ1KjVY6VQH3oRG0t990Iilk2vmGnCCUbeNL0JvQxowNPT09VZat+VETF92JBHwLEoK8ze3g5Ojg6ws5PBTiZjvz/UShVUajUysrKRkZGJnBwasl4kiWGACMJgSai9bCFevMgqkrMQhNarAcHIC5vDLBoICQmxZzIz62qIuBUI2hDA2yyMLciEGu8APx8EBvgi0N8Xcj8fyOXe8PH0gI+3B7w8PeDi7Mgad2OUk5ODlJR0JKWkIT4xCfEJSUhMTEZMXAJiYxMRG5+A6Jh4xMYnIiEx2Ri7wnnOMHehwSKZKnvrk4SElMIRQhjV3BoQjLy5NVry+ImD/f0bEQYrQNhTu82SSCSCs5Mj/lenJpo3a4j6dWtCIrZ+ME9mZhZOnbuKk2cu4+zF64hLSIJGw4CmtdJjdWGTBnjJiEiLiIiIW4ILp7BXo+DjC0a+4DoskRzK+Pr6KSWS/kSDloSgqq0qQSqV4pOPqqNRg4/xbsWyKF8mGA4ONgRnw4A9+YeFRyFMEY37D5/hyvU7uP/oWWG7gDIZBnsJox4bGh39zFbXV5DLuAYEI29cR0KLNxogQV5BAWKpqp0GosmEwNkWlSOVShDo74fGn3+CXp2/g6urTYppUHVpaRk4cfYyjp64iPuPniIuPgmpaenWVzeDaIZR92Gk0iPh4eGZ1hdAGLGgGhCMfEE1WHL6S0rJA2YA6AQCf1sMfySEoEa1ShjStxOqvFsOzs5OxWJ10tIzWD/+vYdPsWvvvzh/+aa1T/lqhsGB1KyMLklJSUnFQqklaBKCkS9Bi23KVGmkjJPU/nsiYiYCpLQpPCzdh/raP/m4Btq3aoYG9WpDXAh+dkvPMS9/avBPn7uKsxdv4Prt+wgPj4LGGs58hnmugfjH8KjwQ0LBE2uueMHGEox8wfRXrHvLPT0rS2R2B0WElLLViZYNCcby+eNROjgQpATuZoZhcP/hc/yyeC1r9K1AjIbRTA2PippshbGEIcyggRL4WphBa8WcBQUKYyCaSIDvQCC1xenWrFYZ3Tq2QP26H8DB3s4WRbS6TIrIGFy6dgeHj57FmQvXLObSYWiFKwb7oM75MSwujlazEsiGNSAYeRteHCuLRsr4+vqqRZJ+IJgAQGSu8amvnJ44C0pisQgBcl8M6tMB33z5WUHZFev+MTEJWPH7dhw7dRGxcQlQqdSWmO8NaNStQqOjnwuhlpZQr3l4CkbePHos6lxkwXL5IBDRQAKYzTXzfrWqaNq0KYKCArFr526cPHHCZD25ODthxKBuaNqoHtyKYLSMyRMvQEf6u5qYlIy7959gxe9/4ur1u2b5sdUSiUGkBpoO4VFRpi9uAeYodDWuAcHIG9dRsW0REBDgKFahMRFj4iuY3wLN1cvLC+9WqoTatT/AJ/U+gbf3m6RXlUqFdevWYcumLbzG8PRww1dNPsWAnm3h4V5yi0HxUpqOxhqNBpev38Wfuw/j9PmrSEo2ayGpbEaD/mHRinXCib6gK2X+/oKRN79OiwTHIB+fCiKJdDvAJjIVyDVTpkwZ9OzdE7Vr14ZEIgF1z+iihIQEtPqWglByo1rVKmPBrFHw9fbUy5MbJ6HVaw1QtxnF2Zm9cC02b99vTsVo1AxmREQp6IFBIBvSgGDkbWgxrCFKYGBgdaLSDCci0ooAJqd+VqhYAZ999jlqf1gb5coZh4SnJ/kZ02fgxHHDX/X0B6JqlYro0601PvvfR8XGuOfeSTCguAXs3xlN7t9f/Vsu/qOG3QK5/5ZnN7z60SQUGY3+ndC/5fk7EeX+O/1XHiFGL0IV2HPgGLbvPoy4+ESzbD+GwfKwKMVgAEUWsc0sirAhJoKRt6HFsKQofn5+vnZicX8wGA3ApHAUZ2dnlK9QAT16dMd777/HSVy1Wo2U5BRs27YN27ZuM9jHzdUFXdp/g37d2xStWPc8xpoacIZRg1Gr2T+hVkOjUeUadSsQEUlAxGLQP0Xs3yW5eWv0h4F92/O/8tR1M2vBahw9eQEpqQXPqmXAHE7NtGuXlPRCSJyywpobG0Iw8sY0VMSfU7+7SIXhRIwepl6qurm7o03bNqhfvx6CgoI4nRbpyf348eM4dPAQXr58ifi4eIOa/OqL+hjYtxPKlA60aY0zGjU0ahUYtRKMRvXqVJ57Mv/vtG5rMyCi3DWjf4rEEElkEIml7N/z0rMX4Vi7aTf+2n8USpWqILPQMCCnGTH5Ljw8PKEgjIS+BdeAYOQLrkOb5FAZlWWpfvHNIKLx7qQmXyFp1mjZsmXR6ItG+Kr5V3By4g4R8PzZMwwd+hOSjWTAU8NTNiQIA3t3QLMv6vMV0WLtX7tTqEHP/b8q17CzJ/KCh4JaTHCejKmRJ2IZRBJ66pcCr4z+2QvXsXjVFty6+wj0wtZU0gDniDKntRBLb6oGzdNPMPLm0aNNcQny8SlPxJJdhJDKphTG9vDwwOixY1CjRnVQFEc+lJqain59+yEiPMJot/atvsSoId1tAhWSNeSqHKiV2a+MORW/+Bh0o4vBunQAkcQeYjsH6mXCtl2HMHPBatCvMpOJYWI0EnHN8HAOG8LkQYSOhjQgGPlitD+Cvb0DIJaOICLSFYA7n6lR/Jf33quClt99i/r167NRMlyJYqGHh4fj8uXL+GPLH4iPizPYtdI7ZTFswA+oX6cmJ9cPVzm4tmP95molNOocMKzrhbpdTD+xch23KLWjvnyRWIY7D15g3vLNuHT1tuniM8w1MJrWAmSx6SosSE/ByBdEezbSt3z58nYZqalNxCLxWr51VKnLxM/PD9179sDnn38Gauy5UG4oXg4iFJE4efIUHj54iEsXzhtMtqEQwN993QhTxgywvnFnNNBQf3pOJtRKocIdlzV+3UbDEExdsB57D502OXOWAeIYlahueGz4Yz5jC20LrgHByBdch4XKoZRcXoUBWUoIqQPAeJ26PNJS4963f1/UrFkTrq6unOeRlpaO6zdu4unTZ4iPj8edWzcRFhYGtYHP+lJB/pgxYRALBSzl8ZXAWShdDRkGGlX2fy4Y6l8XyDQNUFiEIyevYOr89cjINO1HkgEeaZTk64i4iEemSSH0MkUDgpE3RWs20IdCADvY2bUXg/wMwJOPSG5ubmjctAk6derIy7jHxyfgwYOHuHnrNnuKp/73WzeuIy42Vu/w1O3zRcOPMe6nPmzdVMsTw16SUv86PbULbhjzavzCtXuYPHcdFNGGo6UMjPqAaNRfvszFuxHIChoQjLwVlGzuIYK8vAJFMjuarliNb/GOjz7+CKNGj4K7uztnl0lmVhaOHTuBFy9eQqnMzXGJiozEtSuX//tvXXMUS8SYPKo/vvumkcVrqbJ+dlUOVNlpYNiIkJJ0aWruHWaY3/PQSHToNw3pJp7owTBRjEpZS4i6sc66CUbeOno2yyghISH2qszsPiIRoSiRXnyYli1XFh06dMCnDT7lfKlKT+o3btzCvfsPkJmZW/mNJjc9uH8PTx8/Nuh/f6dCGUwe1Q81q9MAH8sRdcFQH7vmdVSM5YYSOOfRQGx8EoZNWoqb956aphcG59XpqV9HpKaa/Elg2sAlr5dg5IvImnt7e7s4iKUbiYi04COyTCbDF40bY/CQQZzDIWkizJ07d3Hy5Gmtoegp/vLFi4iNidYrgkhE0KhBHSyeM5aPmLzbUjeMOicL6myaoSmc2nkr0AwdUtMy0HngDNCTvSnpAwyDFxox+SAiIkIw9GZYD30sBCNvQeWai3WQXN6AENEqAlTgw7NChQoYNGQQKleuzClqhro8Hj1+gsuXr7JhkHlNpzInB+fPnUVigv4ERns7GUYM7IpWLZtYrJAHlZEadnqhKlyk8tkNlmkbl5CMIROX4JZpJ3rqZDsitrNr+eLFC9Nucy0zrWLFVTDyNryclStXlqUmJ3cgGmY5eICJOTo64vNGn6NP3z6cMlWp4UxISMTps2fx4vnLfBqhrpqzp08hPS1Nr7b8/XwwemgPFu/dIkSNuzKL9bmbdGy0iFACU6qB1NQM9B09H7fvPzNJIQxDduUwqi7R0dEFB84xSYLi3Ukw8ra7vqLggIAlYNCLAJwzkxydnDDj5xmoVq0q54vV8xcu4fr1G2zEzNtEfwDOnT2DuJgYvZry8/XChhU/I6SUZXBnNGolVJkpwsnddvcqomIS0K7vFCQkmYRTr4GGWR0aHdnHhqdYZEUTjLwNLh31vztKpWsB8j0f8eil6uAhg0FhCbhQZGQUzp47D30Z59TA37l9C8+ePNHLrmH9DzF7yjCLVGuiUTKqnHQ2FFIg29cANfR9Rs5jffSmEAMyPiwyYoYpfYU++jUgGHkb2x2BgYFeIjVzgRCU5yoaxZfp1bs3Wrfh9ptAI2Ru3bqDk6e0L1bfHi85ORmnTxxnI2reJnrBSvHeF80eC1p71dxEMWRUmcnmZivws7AG7j58gR8G/YwcpUl4NxqNStQ8PDb8kHCbbr6FEoy8+XRZYE6BLi5eYieXfSCg2aucyM/PF8NHjmCzVrlAElDDfez4SYSFhRtEGKQXrSeOH0NGum43adeOLTF8wA+QyvgBmBmbFL1MVWWlsclMQtSMMW3Z5vOL1++z4ZU0+sYEygZB81CF4l8T+gpddGhAMPI2si1YcDGJ9DAhhFM1Doo5U7p0aUycPBG0/J4xoq6XiAgFDh/5B6mp+i9QX/O5f+8uHj14kI+tRCxG3x5tWXhgcxONdVdlp75KZjI3d4Gf1TTAAJt2/oMFq7ZDqeIPJcEwCM1h1A2ihaxYsyyZYOTNosaCMWELamuY44SQ2lwzWD+u+zHGjRsHWq2JC126dAUXL13W6Xp5u79KqcSRw4dAT/N5idadGDWkBzq3/ZpzQhUX2eiJXZmVCk1OtnB656Ywm29FkUlXbdyL5Rv2Gkya0zcRhsEtRiJqKBQdKfhSC0a+4DosEAeKIJmdnr6VgLTkwogW82jWrBn6/9gfDg4ORrvQ8Mcz5y7g7p27RtvSBrRIBI2H1xVNQ+GBae1VcxLrnslMZWF/BSpeGkjLyMSoaStw+qJpMMUMwe92Cse+T/CE/voLZKIGBCNvouLM1I0E+wfOI2CGcuFHXTTNv26OIUOHcPK/Z2dnY+euvxATox9A7O1xoyIVuHThgtbpi447rP8P6N2N28Uul7mwPygqJZQZtAyokLHKVWdFsV3r3pPx8EmoSaJr1JpJ4TFRU03qLHRiNSAY+ULcCMF+Ad2JCGu4itC9R3d07NSRk4FPTEzC/r8PslDAXIme4k8eP4aUZO2olh/at2ArONGvCHOROicDKgpJYEo+vLmEEPhYRQN3HjxHt6GzkZ1twtcag2SVBl8qYhTnrCJsMRxEMPKFtKhyuTxERkSXAXgbE4GGSH7f+nv06t2LU4JTVFQ0du3eozO5Sd9Y9GKWXrY+fvjwvyb0BP9V4//hl+nDOY1rbB7sc4aBKjsD6hwhuZGTvopJo5Pnb2LE1OXIMsHQMwyTrhaRygqFwrTPgWKiQ1OnIRh5UzVXgH4h7iHuGoec8wDe5cKmfccO6NWrJydDGxMTg91/7fsPNZILf9omPT0dp44f0/phqFKpPNYvnwEXZ+5FvI2Np8xMgUaozGRMTcXrOREBRIy5y7di47a/TZobw2B7WJSirUmdS3gnwcgXwgYICggYIWIwC4DBLCIa9/51i28wcOCPnFwlNPZ9774DUCr5fRZTN82lixcQHfkmU7FC2VL4ffnP8PbiVSpWrzbZ7NWslFfx74WgdGFIq2mAEBGIRAaRWAqRRAYiynXz5eQoMXDkTJw4c8k0WTTMkNDoyEXCJQ4/9QlGnp++Ctw6KCioAlGpHxLqCzFC1WvWwJw5szlBBFPf+5Yt26E2ocTds6dPcPvmTS1p/lgzFzWrVTImIrfntB5sRhJbPFug4qwBAom9C8Qye72TjIqJQ8sOg5CYlMJfEQySRSJ8/EKhyJ/AwZ9bielh1NCUGE1YYaKvwiV3E5BmxoZ7v+r7mD5jOqfyfLQs3+6/9iLNAEqkvvGysrLYy9asV0VBJBIxW2i7VYvGZrmVZ0/wmcmgIGMCFVMNEBEkdk4QS+0B42cXXL1xD72HTEaaKRmxDI45Ryma3QP4fa4WU9VzmZZg5LloyUxtgvyCPhKJNCcB2Bli6eTkhEVLFqNsWeOZrMnJKdi2fQcyMvinkNMiINTA54UQ/vKL+pg3YwSnCB5jahEMvDENFf3nRCyF1NEN1EXDh9Zu2o3Zv3IOLNNizYjI8LCIiPmC24abxgUjz01P5mglCZYH3CQEBuvhSSRSzJ4zCzVr1TQ6JvWl/7ljNyLz+NKNdsrT4Pq1qwh98eK/f/H2dMeePxbD24sbiqWxsWgMfC4GjUDFUQNimSN7gudyen97/jSccsSEX3D4GP/ISAYIS8/Oei8hIcEEn09xXAnDcxKMvJXWPFAuby0mou3Ghmv1fSv8OPBHY83YAtqHDv+Dp0/5F2pQq1RsuOTTPBDCdjIZFs0Zgwb1KLJCwYiW5mOzWFVComLBNGm7vUVSB0jtnU0y8K9nlZGZhfbdR+DB4+f8J8qQDaFREd1oTh3/ziWrh2DkrbTewfKAvYTga0PDURz4LVu3wN5e/8XV6/7Xrl/HqVNneUtPYYOvXrqY7/Rf54OqWLN0GqcoHmODUgOvVgoY8Mb0VFSfiyR2rIvGHHT3wRO06jzUJHwbENQPVSjOmEOO4sxDMPJWWN2AgIBSEgb3ATjqG87B0QFzf5mLKlWqGJXoxctQ7NixE7GxcUhKSAC9PFWrc/G7aVaqnZ09nF1c4Ojk+F9kDsWwiY2JYcMkaUx8XvL0cMOODQsQ6O9rdGxjDShMMM1mLUwiIgmIWAKRmBbUyt3i9OuCUatyMXKELFvTl4cQyJw8/wuLNJ3Rm5679v2LiT8vgZIvBj2DbaFRinbmkKE48xCMvOVXl5SSB6wFQVdDQzVo0ADjJ47Xe5KmhpwmOtEyfZs3bUIsDzwaY1M0F/AYW4M1s3DcpDQWWyS1h0TmaMSFwECVk8lWmxIKgRvbGfmfSxxcc6NoOBCNi09Lz0BqWjqSk1ORkpoOtUYDqUQCNzcXuDg7wtnJEXZ2Moye/CuOHOP9ZarWqJTvhsfG6i9dxkHO4t5EMPIWXuHS3t7+jFT6ACCu+oaihbfXb1wPb+/8CAfR0dHYt28/Lpw7D4VCwTuT1dj06Mn/2L61kPt6GWtq8Dm9YFXSSk5WPiVT14HEzhH09M7nApCe7NXZmQK8Ao9Vpz+kUicPo5E00bHx2Lh1H85dvI6EpBQkJibnhzMgBI72dvBwd4WrqzOCA+W4dPU2kpL51YhlGOZEWFRkIwD8get5zL0oNxWMvIVXL0gubyYion3Uk6JrKJoTRYHHOnXuxD6mUQdRUZG4fes2zp0/j0sXLnLCgDd1GqMGd0f3zt+Z2j3XFaLRQJmRaNWTsUgihVjmxGZUFoTU2RlsHVlr/zgVRObC6stG09DLVh1EsY+evQjHxm37sHXnQdN87KZNLF2tUtaLiI29YVr34t9LMPIWXuNS/gELAQzSNwzFhF++cjkyM7Nw7NhRHD54mD2tq1Qqi78ogQF++Pev1aD1Wk0nBtmpCQBjvYOUxNEVYgk3lwGXealzMqHK4neC5MK3uLWROntB9Aqi4O257dr7LybPXmYa0mRBFcVgbmiUYmRB2RTX/gV5u4urTsw6r2B5wBNCUE4fU3qSpy4TatStTfTC9cT+daxP1FSy5kUr63O3czLp0o/6hRMSk5GRkcX+eDo4UFeBG9xcnVkvjzIzDRohIkjvNqCuGplzfpdejlKJhSs2Yd2m3VCrCy2aMTGH0bwTFRXFvXCCqRu+CPYTjLzlFo0Ey+UfECIyEY3JcoLl5TxycHf0MNFdw/rh2aIfFiZCMVGcIZYar4RFJaFGPDMrGxGKaJy5cB079hzBk2e6UWrfr1wBFC+/7kfV4SRRgQhh1zoXk1620kvXvET1vH33YUyetRS03F9hEgNmfFhk5IzClMFWxxaMvAVWplSpUh6MUjmegLQBEGSBITixdHZ2gYenO9JS05CYmKizDz3Jnjq4AfY8T/M0MiUnPZE65DnJYnIjIobU0ZVFNORC9LT++x97cOL0JbwIVXB2H/h6e6Jxgw/xY9cWcHQ0iDrBRYxi10Zi5wyxnXYE8JXrd9H9xwmcdWxhpVxTEdRXKBSFG79r4Umawl4w8qZoTU8ftiC3Gt+AMDMIIWXNyFovK4pz4+3jA7ncD0HBwQgMDESZMmVQpkwI3NxyE1YuXLiIMaNG6+RB3UXb1v2Cau+9w0NcBsoMChts2YxWGusudXDj5J6JUMTgr7+PYe2mXWzYnqlUKtAPM8f1xvvvGscNMnWMothPYu+aD12y//DpOHrigq1MJ5OAqfUyMpLmowiURwOCkTfTdshFmMzYRsBmtfJDa+IpA738ql6jOtq2a4dKld6BTCZjk54o/rwuop/VHdp1QFRUlM7nk0f3Q/vvv+IsBS3bp6al+yxIFPhK5uhuNCySzu346csYPXk+klPSzCIRvaNYNfcn1Hivgln4FQcm9MdWJH3zhaNSq/Fhw3ZIz7ChzGYNWRkaHdG3OOjbnHMQjLwZtFna378mA2wCiJkA2LWFoqdtuVyOup98gqrVqqJWrZqgJ3g+NHvmbBw6dEhnl+ZNP8W86SM4saNuGmV6IptBailikQ0dXI2e4GnI3txFa3HslPmvPcqXCcT2lZNBoZcFAuuPz5sEte/QSQwfP9fWVJOVqVKWiY2N1X2asTVprSSPYOQLqOhgf///gcFRQgjNoTcr2dnZIaRMCLr88APq1q1TIN779+/HvLnzdPKgoZTH9nKDfaV+eEsW/2CjOJw8DZ7gadbk+Ys3MHjMLNMwyTlqclDPVujZgfsXDke2RbIZixdPESdf0U/j52L/IYqa/YbolyRNcHJxcQR1e/l4ucHJyQEqpZp1ocXEJUERHYe09CxkZWdbJBpHzWi6RkRFrS+SSraQ0IKRL4BiS/kE1IMEu7kU4+YzjEQqxXfffYtGjRqhbLmyZgENu3v3Hn7sP0CnGPRL4dSB9fD18TQopjXiyaWOHqCJTvqIRnHMXbwOG7fu5Y91wmcRADg7OeDU7kXCaZ76H/OCkjEMvus8GHcfvEFArfNBFXRp1RhBgb4I8veBWKzbdUjxaSKi4xAdk4gzl25h/z/nEZ9oTigMZnNoZGRuZqFArAYEI2/iRgj08/tYRERnCd9qCQbGc3FxwSf16qF3n16giJQFIYo2mZ2djdTUNKSmpiIyKgoTx43Xy3LJ3HH4oqH+rwXq+1amJ1g0qzW3dJz+MEkaOTNj3qp8J8iC6MlQX/rjd3L3Qri76s7ytNS4tsmXwM7Fi/3CUmWmoXXPMXjw6CXee7cMhvT+Hh9U41STPt/U1CoN/jp8GvuOnMfdh8+RnVOwCmIMEBEWqQgBYP3EE9tcOMHIm7IubBQNgzsEMFsIRu3atTF85HAWv0bfBaoxWXNychATE4tbt+8gIkLBwiHQJKvXiVZHDh5CZqbuC9MBvTpgUJ8OeodQZiRbNJqGYs/InDz0umkofn6PgZNw8cotY2ow23Nq5C8eWAF7O27hm2Yb2EYZUXcNddXR/IjhU5ehQkgQfmjblHf4ra7p5ShVePg0FKOmr0S4omA5TSqCbxQKBYUSEUg4yfPfA97e3i4OUtkuAlBQpAJTcKlS6N69Gxo0bMCbF0WmVCgiERYewcIO0wpR1LDro8uXLkERHqbzcdNG9bBwlu4wSwrPq0xPtly1NRa+1iMXZEwHxcYlYtCombh28x5vHenrQA04/R8LQaynUYO61bFoul5ECrPJUhQZPX2pQJlg/wJCYuSfOaNhsOPvk1i9eT8iYxJMUs0r0LLPLLdhTRKr0DpN7vxhAAAgAElEQVQJ7hqeqg/0kXcVS0RrC/oDSaEMGjdpgpGjuEW1vBaTnsppYtONm7dx7959Xvg2jx8+wL27d3XO+P0qFbFjPS2bmZ9yMpLAWLCMH3XRUFeNLqKZq32HTsWFyzd5rhT9KCCQSSVwcnRA+bKBqF6lPD6o9g7eLVcKbq5O7HMKrhafkIrHL8Jx4+4T3Hn4HE9fKJCWkYldq6fD19s8xTF4C1/CO1BY4kETFuPGncemZNOmEmXOOy/j4iJLuBrZ6QtGnscuKCWXV4FIdAYM3Hl0y9fUy9sbw4YNxYcffQiJhFtQTlpaGq5cvYaIiEjEx8eD1nflSxEREbhyUXfySsVypbF788J88qhzsqDKMufFWH6p2SIUbIEPbVKqVBg5YR4O/HOa11Spu6tShVJo+81nqFguCOVKB/DC56H3D4lJqfD00IsOzUseobFpGqB49Ft2/4sFq3bwOswwgEqjIU0ioiOOmTZy8eolGHnu6ykOlgduJ4QxGZeXnhzfrVQJY8aORnBwsNGRqeslLi4Ot2/fxZ27BXdV0C+AU8d17/tyIcHYtXmhln+VujLYmHiN5RAmKVSwlCY9vUV07qs37MT8pRuM6ul1AzuZFDWrvoPu7Zrho5oWSVngLIvQ0Hwa+OfkVUxfuIH94eVMjGZyaFTUFM7ti3FDwchzXFwfH5/yDhLpbQAmY9zSZKZx48ayZfmMUVJSEv759xiio2PMhlBJvwaOHjmsc+gypYOwe9OvcHB4Mz1rnOKlzp4Q6fDFH/z3DIaNnc35Uz0kWI55k/qjTCl/IeTR2OYqgs8v33iAPiPnc34XGAYXwqIUBUsuKYJ60iWyYOS5LaQ0OCDgFGHwMbfm+Vu1a98effr0Mpqmn5ScjJs3brEndxpRYk6iF7WHD/yt18jv2vQrHF8ZeeqrzkmnOPH83UJcZWYjapxpqKj2NoxPSELb7iMQFm7cpepgb4f2LT9Ht/bN4ObCLwuYq5xCO9vQwKXrDzB8yjIkcYCvYBhGla1RB8XExETbhvSFJ4Vg5DnovpRfQCOI8A+HpvmaUP9wj5490KGj/vBE2on62J8/f4GDh45wPq3wlYfGzR/6e7/ObmVDgtmTvL19Lj4JxaahGDWWJK0Em1cDUTdN1wHjcekK/WgyTNQ9M3t8H3xWr6axpsLzYqKB/f+ex/hZazjdSTEa9AiLVtAgiRJNgpHnsPzB8oA1tEofh6b5mvTp2wdt2rYxGPtOk5WOHT+Jly9DOW1eU+SgfbKzsnBIz0m+Ar143bQQUqmELYVHT/GW9MVTeXTB1548ewUDfpoOeulqiPzl3pg3sR+bjCNQydLAst/3YOXGvUYvYxmG2RUWFfl9SQ+lFIy8kffDx8fH2V4ifUkAwzn/b/GhUTOdu3RBlx866x2BRnEoIqNw6NARNivV0pSenoZ/D+v2yVd+pxyou4ZeDqtyMqDOMg+io6E50QvXvDVaaUJMp56jcPPuQ4OqCA70xbJZQ1E60M/SKhP426AGUtIy0PnH6XgeahiHjGFwK0ut/CQ2Ntbym9kG9fRaJMHIG1mcIF/5SJFYNJvvGjb9shl++mmYwRDJGzdu4czZcxZzz7wtc1JSIk4e0x1dU69uLaxZNIVNDspJi7dKYWuZszdIHnjknXv+wdhptCSufqIums3LJqBi2UKrxcJ3KwjtLaCBcEUcWnYfi5wc/V98DBALibh6WFiYwgIiFBmWgpE3sFQsfIEGtwzVaNXVnUIBz547Ry+wGE1ounz5Ki5fuWpR98zbskVHReHCubM6Z9yuVTNMGTMAamUmVJmW/6qgQti5+v4nC42J7tJ3DK7feqB3RTzdXbBo+mBUrWyVeixF5iUuqYJOmLMWew6dMTR9jVpDPomIjrCZyiaFsVaCkTeg9SBf36oiseQcAM5hG9Td8dua31CunO7a3dRFc+78BdbIW5tePH+Om9ev6Rx23PDe6NLuG7aknyWhhN8MTmDn6vPff0bHxKNZ635IN1DVafyQTmjzDc1WF0jQAHDt1iN0HTLLsCoYzZTQqKjJJVlfgpE3sPrBfgHdiQir+WQG9xvQH23atNbJlUbQnD5zFtev80/RN8cmvXvnNp48eqST1dql01CnVmVQIDLrkLaR37h1H6b/slLv0K2++hTjBncSYuCtszhFYhS1WoMew+bg2m3de5pOQsPgQngJj5cXjLwhIy8P2EsIW86PE1Hs999W/6Yzkoae4Gns+7FjJ4xGBXAazIRGFy+cR5RCt3vyxP518HKRWOkUnyu8zMUnFz+GYdC87QA8eRaqc1blQgKxftEYuDobTyIzQS1ClyKsgYvX76HPiPl63Z4Mw2hyGI1rdHS0ZeOBbViHgpHXszivarYmEkA/wPlbffv178eGS+qiR48e49Dhf6zqg39bjmP//IPU1Pw4NG6uLrjwz0YoMxKtcuH6Wi6pkydEYgkiImPw2de6I1Tpj8CKOcNQp1YVG36NBNEKSwOpaRlo23eKQXhiolbVfRkTc76wZCzscQUjr2cFggMCGhMGuuMNdfShBT82bt4IN7f8qIU0PHL7n7usEiapb0NRV9Hfe/fo/JGpWb0yNi6dZPHi3G/L9rpIyIkzl9FnSH6YEUKADt9+gVE/ti/s90QY30Y1QPf10IlLcfzcdb0SqsH0iYiMXGWjU7C4WIKR16PiIHnALBHBKK4r0KFTR/Tq1TNfc5rBuX7DZqSkWBbJ0ZichiANWrdsjAmD21v1FE/lfZ3xumHrXsz4Jf87SCEWdq6ZikC5t7HpCc9LsAb2HD6LCbP11yhmNMyCsOjIYSVVRYKR173y4mB//wMEpDGXjWFnZ48ly5agfPn8ETU3bt7CyZOnC80P/1p+Cnh28thRndMZNbAzOn7bkMtUzduGLRbiiSWrt2HJqi35eI8c0B6dWn1h3jEFbsVOA7RG7Oeth+n3ywN/hUUqvi12E+c4IcHI61CUn5+fk51Ich5g3ueix8DAQCxfuRzUZZOX0tPTsWHjZmRn53BhY9E2hmLkl8wciv99xGmqZpeRJkP99scRLFqpbeQrVSiNbSsnmX08gWHx1EDHAdNx+/6bwuJvzfJGaKSiRvGcufFZCUZeh44CAwO9xGrmLgg45c3/79P/YfKUyWykyGtifeAHDuPp06fGV8EKLfTFyFOZd66ZhvIhAVaQQvcQ+/+9gLE/a7trJv30A2jYpECCBrhoYOHqnVizRTfCKgMkhEUqvLjwKY5tBCOvY1VD5PIQNSGPCQinsk1jxo1F48baboWEhARs277DJk7xdIr3797Fo4f5s0klEjHO/LUYjo4mw+QX+L2IiklAy27jkZGZxfKS+3pi99ppbNk+gQQNcNHAsdPXMHTyUp1uUQZglIzGLyoqqmAVwrkIYoNtBCOvY1GC/P2bikAOcl2vHbt2wMtL+6Bw8NBhPHz4mCsLi7e7evkSwsPyF/GuVbUi1v2qu4C3xYXKM8Dx87fw06TFUKnUWDh9EBrWrW7N4YWxirgG7j16ia6DZyJLj2tUA+a78MjI3UV8miaJLxh5XUbez2+0SCSeyUWjfnI5tm77Q6tpXFw8Nm/ZWuiXrXmFOnXiOBITEvJNaezgTmjXovChAhgQXLsXjis37qDLdw1Ai4EIJGiAqwbo1+D3vSaBFgDXRSU5wkYw8jp2RLA8YCshaMtlg9WrXx/Tpk/Vanr69FlcvaY/bpcLX3O3ocVCaNGQvET98f9unw8fr/yx/eYe3zg/AqmjG9TKLGiUuW6bokD0y4O6vAQquAboabxCmcDcmgY8iZ7gv+w4CnEJumE5GIa5GBYVaXJlN57i2FRzwcjrMvL+/vcICKdK0G3btUXffn21uGzZsg0xsbbj/tNXEUru44kj236xmQ1JiIiFOi5KtPvgGTRt+CEc7GVFSWyblLXbkNn4oNo7GNCtpUnydeg/DXcePNfXNzU0UkFrQhiuRmPSyLbdSTDy+deHBMv90wghnIBShgwbghYtWvzHJTEpCRs2bLYpV42+8MkPa1TC6nkjbHuH2rh0XQb+jBbN6qHVl/+zcUltXzwaBnnv0Qsc2jIXfj609i8/mrFwE7bt0V0vAUBODqMJKomXr4KRf2sfeXp6ujrb2XOCYqTuDho6SUMoX9M//xzF3Xv3+e1OC7d+8OA+Ht67l28UapgmDe9q4dGLN/tPvx2M1PQMnNy1EC4CgFqBFpv+YN64+wTjh3RBm28a8Ob1576TmLZgve5+hCgJo6n2MjLStl5O3rPk30Ew8m/pzM/Pr4ydSKw3qyJvc2rk5877BbRICCVa+GL1mnXIySn85Ke8cp47exax0flLpY0f0hltvimETFf++9Rme9Rq0htKpQqTfuqKVl8Jp/mCLFTPn+bi0vX7KFs6ADtXT4VYLOLF7srNh+g+VG8RNzUIGoQqFAarjPAasIg0Foz8WwtV2t+/JgPCqaKHSCTC0mVL8W6ld1ku0dHR2Lpth025amhS1tEjh5GRkZFvS/6xbAKqCIWwTXhVSW7iGyH4sGkvZGbloHb1d7Fm/kgTeJX0LoQtASmS2GPw+F/x74lcsMipI7qjZbN6vJSTkJCCBt8P0ddHAw1ahkYr9vFiWgwaC0b+rUUsFRBQDwxOc1lbkViMNWtXIyQkhG3+4OEjtii3LRG9dD3+77/IztaOWKERDOf3LYVMJrUlcW1YFgKRWAqRzIE1SoSI2T8bteyJsPAoSMRibFg0Bu9VEkoTcl1EWsRdbOfEwk0DBBN/XoJtuw6x3SuUDcKGRWPhxCNJj9Ew+KBpbyhVap0iqBlN14ioKD3+HK5SF712gpF/a82C/f2bEJDcnWaExGIx1m9cD4pdQ8kWQyfTUlNBY+SVSqXWbOrWroIVs38yNsUS/5yIJSxapkTmAJD87oOu/cfj/KUbrJ4+rlkZy2cP4+1msIaSaWEWjYaxCdmISMIad7FUOxdi2eptWLhiI6sOmVSCFXN+YqNt+NBn3w/VG0YJBqNDoxR6/Tl8xilKbQUj/9ZqBfn7fysC2cVlEamR/2PbH/Dxya1Vumv3HoSG5s8q5cLLUm1oAtSZUyfzIfQN7d0a3do1s9SwRZ4vPaVLHNxBv9boKVMfzVqwGus2/8U+pqfOLcsmoEwpf5uaP40dHzltJZ6HKjB7Ql98WD3XvVgYxMJLO7iyrq63ae/B4xgxYd5//1yr2jtYO3+kFiaUMZm/7TYeT1/qrn4GBotDoxSDjPEobs8FI59nReVyeYgUoj8IAaekCWrkt+/YDk9PGn4LrF7zO9LS0mxqj0RFRuLieVqL/A1Rf/L6hWNQ/b3yNiWrTQhDCCQyR4hkjpyMy94DxzFy0nz2HobareF926Fza04I1Vab7rwV27F+e+7HKcUF2rVmGpydrI8LRE/vEjsnvfO+dvM+2vfQDuldNXc4Pq5VmbOuug6epbfmK8Nge1iUglOSI+cBi0BDwci/WqSQwMDqGg1zFgCn+HjajRr5P3f+CQ8PDzaiZtly2ys+8+zpU9y+metOeE001O/PVZMRIBTj0H5FiQhSR3p6555xeef+E3ToMRLZryKqAuRe2L9hlk1lweY18nTCQ3p/j+7tvrSqeRJJ6QnecGZ1QmIy6jbupBW48NknNbBg6o+cfnDphAaNX4wT+qpEMczx0KjIwsfwsKrmDX2HWlmQQhyOBPkFtBeJQL8T5XzkkEgk+HPnDri7uyEmJhZb/tjGp7tV2lIDTw19Xgr09wGNrHF3c7aKDEVjEAKpkwcvA0/nRbFSPm/RAykpb77gpo/piW++qGsz016ydjdWbXoTVOLh7oKj2+db7YeIXrBSyApj5oYB0LbrT7h55+F/uqMusIOb53Deq2N+/g1//6u7nCvD4G5YlOI9m1kYKwlS0k/ykmB5QGdCsITPCf712oglYuxgjbw7Hj95ir//5gxcaaXlBS5eOI8ohbaP8t3ypbBxyTjYCZE1uetAKG4OPcGbFmk0Zuqv2LX33//WtFrlclizYBR7eWgLtG7rQSxY9aeWKH/9PgNlrXR3kPvjyU23fx8+iWHj5mrJ2uyzjzBrXG9Op/lpCzbgz30ndKudYWJCoyI51YiwhXUzlwwl2sgH+/lPg4iMJoBJbyN112zbsR1enp6gZf5OnDhlrnUxG58Tx44hOSlRi1/9j6pi6Uy98cRmG7uoMBJL7SGhl4Em0vOXEWjaqs9/vWl46o7fpqJMKV4fhiaObrzbX4fOYOKctVoN508ZgEb1axnvXMAWIql97kUrR6IJhZ806YyU1DdfRvQOacfqqSx4mTF62zWVtz3DMOqwqEj6a0M/GkoMlUgj7+3t7eIglU4lIAOpa93U1aZGfuv2rfD29saFCxdx4eJlU1lZrN/B/fuRk6ONPtmrU3MM7P6dxcYsaozZU7ykYABjbd5yM9St/R6WzRwKkajwX7Gzl++g36j5WsvSp/PXGNDN0mVPCWTOniAi7q8YvcDuOXASzly4piVvj/ZfYXCvVka31vLf92D5hj3622Wke4YmJ2ufeoxyLdoNCn8HWll/tVBLGiOPXEUICgzaQo38xs2b4O8vx8lTZ3D9uvYFp5Wnlm84tVqN/Xtyw/vy0s9jeqH5F3UKWzwbGZ/AztXbqL/YmLBLV/+BRSs2azVbOecn1PmgirGuFn/+PDQSLbqO0xqHJhvt+G0KJxeIqQLSHAOZEwUa42dmft+yGzPnr9Ea1tnJEUf/nG8U7fP3bYcwf+V2vSKrlTnvRMTFPTJ1TkWxHz/tF8UZ5pG5rIeHm8regWa8vYGNLMCcqJFft34dgoODcfzESdy8ebsA3MzfNSsrC4cP5K97uWnpeFQVMjNZhROJDDJH9wIr/wV12XzfVysy5JMP38fyWUMLzLugDCi2Tp3m/ZGj1EbZtfSPfe6FK3/dUniQz1r0ZquE5aXvvvofJg37weAP0/a9xzH919yEKl1EGM2XL6OibO/yrKCLbKB/iTHyfn5+vjIi/o0QfGMufVLsmt/W/IayZcvi+PGTuHnLtox8akoqjv2bH2bh1K6FcHd3MZcaijQfNjmHjfwoOI2Y8Av2HtS+9Js7sR+aNKhdcOYF5ECBuyiAV14KlHuzvm4+0AF8xKAQEFJ7/vuM0agwbup87Nyvfcfl7urMJpsFBeQmH+qiPYfPYMJs7fuHvO00YEJFDNMsNCoqPywrn8kVobYlxciLg/0DjhHArDCB1MgvWbYElSpVskl3TWJiAk4dP661He3tZbj09wq+X9BFaEvzE5WIpa9cCvz66WodERmDr9sOQHpG5n+PaU7C5qXjERJcuJewa/84gF9/26ElNt2/v079EQ0sVE9XbOcIiR3/MF3ql7957Qoo9HB2zhs4DmqsurX7ko3z10eHT1zGiKnLjS1mnFpEvoiIiLAt/6oxqU18XuyNfGBgYJCYYf4AA36QdhwUSlPf583/BTVq1MC58xdw6dIVDr2s1yQ+Lo6FNMhLNAHq0JY51hOiCIxk5+KtE5eGr+gqlQr9f5qOk2e19wGNZpo3uT/s7Qp2uctXnrzt7z58gc4/zoBKre0Cob75LUsnwM6OW4gjHxnEUgdIHLif5GlVMHVObvnH9PQ0dBwwA09fRGgNKZNJsG3FZJQLCdApysnzNzBw3CLjYjJ4yjDilmHRYXeMNy7aLYq1ka8MyNL8A2gAc31LLBMN7fp55s/4uM7H7KUrvXy1JYqLjcXZ09qfvO+WD8b2VVNsScxCl0Vi7wqxzN4scly5dhed+ozOBzdNL7qnjexRaABhFL+mXd+piInLH1hiKRwjGhsvdaI+eSNmhtFAlZMJdbZ2Ee7ftx/C/BX5L1Eb/e8DzJvUT6dv/sLVe+g9gntJS41GVDU8Oty2/Kxm2YlvmBRbI+/r6+tnL5bQDBCLGHiqQmrkJ06aiAYNG9gkzHBcXBzOvnWSr/F+BRa3RqA8L4FIzGa70hqzBSWGAYaMnoVDR7V/8GnsfJdWjfFjj+8KxdDTS0zql6eVl96mIH8fbFs5yQKVrQiLNimxy48UQk/tGmU2NKocaNQ5AFXcW5SWkYnmnUYjISlV6wm9Q6AuMFpc5G26cfcxugycyWMZyTO1CK2Ks+umWBr5oKAgT6JWbyYgTXms9n9NqVK4ZkuMGDUSX37ZDBERCvy5gxN4pSkimdQnISEBp09o++Q/qE6R/UaZxK9YdyJiyJzcQGFwC0p37j1Gx16jkJWdv0JYh5afY3j/dlaDFMg7l407jmDusq06p0cRSYf0+t4iIZVEJIVYRmGFCRhGzRp2Rs2tnvbMxZvxx+6j+WSuWC4YmxaPA71jykv3H79E2z68v1SjCJjPimtpwGJn5GsB0hh//z0ExCQcXbpl+nm6YWECpzKv6D+gP1q3aY30tHT8tmZdQe2DWfunpCSzBUPyUq1qFbFuwWizjlNcmNGTPI0IyT15mvZqqFU5yElPxtCJi3D87PV8qhGLRKAQuktmDM5noCytx7S0THzaajBbrvBtonLRou5UNlsi6n7pO3IeNDpO+pOHd8N3X2p/qD97qUDLbuN5T4EBwsWMpv6LqKgXvDvbeAfTdrKNTqpUqVIeUCpXAqS1KSLaE4JpPp6o7WCPFmGRSNZojLLp2KkTevbqwbZbumxlvuIctPyeMicHqampSE9LY5+rKV+G8s4tfUZrWTo4OMLF1QUO9g6QSM1zCaYrTv6d8qVYBEqBDGiAiEChDuipnkWkpJWgqNFn35ZX33kM9TAw7MmUnkoZDT2hZrN/UqI+8Da9J+stYPHl5x9jyvBuFrnwNLS2Y35ehb//vaCzCS0ks3zmMBAbyNKl701kTAL2HDqDVRv36TTypYP82JDKvAXUI6Li0KyDaWUYGQa3xGplkxexsfkLIhfhF6ZYGfkgf/9VIpBepqyHAyH4I9APZWRSZGg06BgRjWc6Tjxv827+dXP8NDy3wtLmzVsRGxfH/p2W3Xvx/BkeP3wImnnKh1zc3PD++1Xh5e0NGuZmKtEXZd9fu7W6UzzxI1u5X0yZOrbQD1i5cR+WrtPWf169NG5QG3PG97Uq9MGpCzcxaPwitkqULho3pDPaWqG4e+7BPFeG13/PysphL4av3nmEVRv2sUbeGDWsWwO/TnsDRRyfmIKGrUzHZWLAJEmzskKeJSZy+5Q3JqANPC8WRr5y5cqytISkX0Dwoynf2W4iEX7x9cKHr+pJqhgGfSJjcSVLG/NF13rV/199TJ02lX301197ceDAAcTHxiEhIb7AyyuVydiqU8GlSsNPLjfJX3r44AFkZb6J26ZfDZcOrAC9CBTIshqIT0zGd90nIjFZ++Lw9agUBZQChdEQS2tRSmoGvuw0ioVI1kVOjg7YvHSczktNvjKq1RrExifh5r2n7P8pHDPNulWqVFAq1cjIzEJaeiZS0tKRnJyO9EztOsRcxqP7ePmsYfiwRm61K8qv7tcDuHTV24YBDts5ObZ48uSJcQNQoJGs07k4GHlRkF/AAJEIC0wBG3OnCU1+PnjfQfsCZ1R0HA6lvzGO+pajatWqmD5jOk6eOoVlS5YiM49BNecSOru6okaNmvDw9ORl7M+ePo242BgtUfb8PsPmStSZU1e2xOvitfvoP2aBTj84lZO6HHaumWZVWOKNfx7B3OW6L2CpTF98+gHmjO/DFsUxlS7feICJc9ciIjL3y9ZSRCNtNi4eh/KvECrpfUOtJr0LPBzDkINZ6pw2sbGxtlXqzYSZFXUjT0rLAwYwhC34wTvThJ7gf/P3QUU7Wb5rtqUJyViVlGJUpfb29vD08kKkQpEvNtpoZ54N6EtHx6r1QW3Y2XOL67596yaePdEOm5s9vg8oRrdAltcAPc0OnrAY1E2ij1bMHgaKWmktooawRbdxCFfE6hyShgYP69sGP7RuYrJIs5dsweZd2pf+JjMz0HFYnzbo0rqJlsurRuNeUL+Fe2PC2BoGzKqwyMj+PILtTBjG8l2KtJEP9PP7XCwS01h4CnXHixwJwUK5Nz500G0s1yemYL6NuuWoga9arRoCAoOMzjksNBTXrmhDIHds1QijBnQw2rckNYiOTQR1r3i6u7JYLo4O9maJZ8/MysbMRZtBMd31Ud8u36B/15ZWVffSdX9h5ca9esf09nTD7wtHo1SgaTU29CUymXOS7Vp8jrGDO+Zj+b+Wg5CUp1JXQcZkGM3EsKionwHwu1gryKBm7ltkjXxAQEANCQOaP877ZpJesu4MkiPQgF96dWIyFicaP8mbeT14sav47ruoVNkwlC2NlacJUfQS9jVVrVwO6xeNAQ2bEwigp+2vfxgDRVTcK1cYgZ1Mgv99XA3NG9fBu+VKgxo9vtjwT18qWPyV1LQMg2qmYYA0HNCaFJ+QgkZth7Fz10cVywWxEAL0HocvXb39CN0Gz+LbjXP7Dt/Rg0p7na7LrzqNRphC20XJmXH+hmq1iDSJiIjIH6xfAKbW7FokjbxcLveRgRwHIbzBuu0IMNvXGw2NVKsfH5OAfWm6L6esuUDGxgopWxZVq1XX66endwQnjh1FTvabO6TgAF9sWT4Bbi5OxtiXiOfUlfLj2IUG5+rs5ACK8+Lv6wknBwf4y73Yyk9yHy/QZwwYpKRk4OnLCNx58ByhETG4cvOBQSP6esD2LT/DmEGdrK7r7XtPYMbCjQbdjL07NcePJhSYoRerLbuNM6exZfVD6xKP7N8eX37+kd7Is1Y9J+Lxs3Bz6jNbA6ZleGTkIXMytRavImfkQ0JC3NXZOecIUImvkmgc/Hxfb3ziZNifnaFh0EURjcd5EPD4jmXN9qVKl0bV6jV0XpTRWO4TR4+CJka9JuqOoPg1wQYgW60pf2GPRbNAaTZoYdHIAe3QqVVjqw9P0TIpBMDj5/oNokwmxdblE/+72OQjJMV2n7Fwk1nuqmgkEoXk+HlMT3h7Gsao7zhgOm7ff6ZTVD7Z7HkZMECoSJnz8cu4uEg+OrCFtkXNyLcq4/cAACAASURBVJNg/4DfCNCdb6gk/eCc5OOBb1ycjfp39qakY3JcQpFxwtGLskpV3kOFihV17qknjx/h7m1tDKb5k/uDAj0JBAwY+ytOX7hVaKqgOCzvF1IRl0PHL2HktBUG505dVRsXj0Wgv34cd10MMjOzMWDcr7hyQxvHno+iqYvsvXfKYHi/dqyOuLiOegybjct6xqwglSBarUaKnjwBI7I9EKmUDYtaslRRMvLi0v7+YxiQaXw2yeu2Qz3c0NXDeEHhR9lKdFBEQckVvMaYMARwcnREqUA5ypUJhpenO5ycHWAnlbLZrjQKIDMzi70oehmqwIPHz5Gcojuu2thQH9WtC7ncP18zmph15OBBaF5lY9IGNLqGRtkIBAwctxAnz+uPfrGkjihk7s7VUwuU9FZQ+QaNW4QT5w1Dqzdp+CFmjunFG3OH0Wgw6ZffceDoReQo32DDG5KZGnI/Hw98WL0SW6bywxr8PtopCiWFQ9BFnzvZo769HeYlpiKVQ0b72zwYYIudk2P3ohRDX2SMvJ+f38d2IjEFR+cdKtnFzQVDvdyNnuDpgnZTxOAahyQoLi9WQIAvhvbrjC8a1IFEIjGagEQzY2myyN4DxzFn4VqkpRu+sHtbBmcXF3za8DN2rLeJ4spTfPnXJJGIcfnACoglpsdCc9FBUWizaPVOrN6Sv0yipWV3dLDDhkVjULFcKUsPZZA/9V93+nEGaCSQPiIE6NmB+ue/5ZWnQfnR7NrEpBRM+GUdLl69pzdnwNfLHR/WrIT+P7SAr7cH+77Qr1S+1HfUfJy7rBsmvpmTAwZ6uOBsZjZ+jk/mDESYRwbqAV0aFqUYVFRCK/lrkK/GzdA+xMenukYi/QcArbjMi5o6OWK2n5fRPmqGwfS4ROzSkwlolMGrBhSG4Oumn+Krxp/ikzo1IDExoSQ6Jh4bt+/D+i17kMPjbqB8xYqo8t77+cS9f+8eHj24r/XvGxaPRfUq5blOrdi2o0aubd8p+WqKWnLCtEjHpJ+64qvPPzbJkJlTNmq1ltGQyk37DLKlF8yLZgzCB1VNBzHLzsnB4+cRiIpOYFE6aSEVH293lAn2h6tLfkhiU+bZf/QCnLmkGyK+hbMD+ri7sMZ9d2o61iWnm+KWTQNBh1CFwrDCTBHeAn1s3siXL1/eLic9/ShAPuE7f+p/2xIkh4zDaeBSZhb6RcWBQhqYQvTEUSYkECvmTUTpUrqr1pjC9+C/pzF++mKkGQnDy8u74eeN4OqmXbc0OioKF86d1RJhcM/v0aPDl6aIVez6UKNAy8alZ/BPreerDHqCnzm2Dxp+Up1vV4u27zxwBm7efWpwDAd7GfatnwlfH96pKRaVPS/zfqMW4Oxl3Ua+nbMjuri/KUm4LDEF+9P5rznDMBoC5v2iUCvWpo18gwYNJE8fPtpBgBZ8d0hpiQSrA3zhy9EdMS4mAftNDJmkro8h/bqgdcvGcHfjXu6M65xoObk+Q6ZwjlIoV6EC3ntfGw+F+uUP/b1fa8jP69fCgikFw/ngOgdbb0dPs3cevABFaQyNiLaYuBQH/efRPUH/tDW6fvsxug6ZZXSf1alVBSvmDCv0LxB9+usz/Becv6bbJ9/F1QntXN+EDmcyDBYlpOBkJn+YGgbMpbDIyLq2nihl00a+lL9/b4DQqry8sjF8xGIslXvjHY41NRNUajQJVSB/iQfjr6G3lzt++rErvv26kYkI5MbHoC0O/XsGoyYvQBaH+wIHR0d80aRpvpeQYsvnDaUsHSTHvg00mU+g1xqghaNpOOWp8zdBC1DkLSRdEC25uTqjUf2abJQIDWG1VVq39RAWrt6hlTynS9Z2LT/DiH7tjN4zFcY8uw+bgys3HugcurebM1q+5RZK02gwLjYJjzmgzr7NlGGwVWwv6/bixQv+nwNWUo7NGvlScnkVENE1vhet9BpxodwH9Xm8SL8npWABxyIhedeFYslsWT0H1d833UfJZ52nzFqGLTsOcOryUZ26kPtrR9rcv3cXjx682fzUxXR271I4G8kb4DRgMWtEkRJpCOChE5ex4c/DiIyOY5ET+RDdH3JfDzYGvkWTT1jjbspFIp8xC9qWXvzT6JRrtx4ZZaWraIfRTlZo0GXwTNy4/VjnSEM8XNBYRyJkilqDXlHxSOXvrmXUalXXiJiYDVaYmklD2KSRDwgI8JYwoJE0lfnMihr4IZ7u6OzuwvlUrWQY9FTE4IaOUm2Gxvbz8cLiOWNRzUoGnsoSF5+Edt1+QpjCuDvBVy5Hnbra1xi6/PITh3bB91834KPmEtmWunNCFTF4+DgUyWkZUOYoodJoQEMEqV2g8dwUJoJGhDg42KFcSCDKlQ4ATeIpavQ8NBI9hs3RW/Dk9XxcXZwwd0Jf1PmAd+K5RVXSuvdkPHwSqnOM8V6uqKsHr+pGVg4mxSeZEj4dp9Gom4dHR1+06MRMZG6LRl4cHBCwmjDoyndOrVycMNHHk1e3eLUa7cKjEcOjsAc9oc2bMRzNGvGrEZ5bSSj3Ypee6Ew51Z27cAM9B08yWohEJpPhi6ZNIZG8MTLJyUls9mteotE1NMpGIEEDeTVw+uJtDJ6wyGjEkZeHK9YvGotSgb42o8DmncfovVeZ6e2Oam/Vhc0r+JG0TCxOSjUl4uYhpJI6oaGhiTajiFeC2JyRD/b370ty/fC86D2ZDMv8feDGE0zpXlYOOimiOS8qNcyjhvRA1w4tOBlpGiMcFR2HzX/ux4NHz6HWqNlScjTho9r77+L7r7+Ar68Xp0w+qhCaONWux0g8eKQ7bfu10mis/KeffQ5n5zeRBHGxsTh7+pSWXqkcp3Yv0iqhxkvxQuNiqQEKRzxv5TZs2WUcl6t8SCCLWElP9rZAn7Ueirh43YWdFvp6oIKRr6uliSn4m3/EDcMQrAhTKCg0sU2RTRn5YO/gACJV008e4xi6edToJxFjS4AfvDlG0uRdgd8SUrAkiXulrw9qVMFvi6awULSGiKI+3rh9H7+t34ljpy4ZbFu5Ygi6d/oW9T6uDnd3dzYT1lAh6T1/H8PISfMN8hSJxKj36f/g4fHmy+b2zZt49lQbW57+aG1fNRnv2GC0h029KSVUGEPZo3lV8tknNfHLpH68M2ItodbazfogO1t3du1auSfkOpIF88pBy3+Ojk3CExMuYjVqplN4TORmS8zLVJ42Y+SDEORA5OpHhBBeBp5OgEbSfOLoYJIOfoiI5uyPF4lFOLBtORsPb4ioS2brzgOYOX815+gMamzdXZ0xZUR3NKxXA2I7Z4gkdjq/Fig87Fdt+uP5S/3AUpRfnXr12fKBlGgh8RNH/9UZNbFo+iA0qGtbMdsmLabQyewaoJC93/wwzqh7kCYBUjRNCv8LDnkpZhf0FUMKE0KLhuijnQHecOAAsU3duD/FJCLGABSznjHCQyMVZQFww3CwlCLy8LUZIx/sHziegOGFS0PPuwM93NCdAyaNLl1maRh88iIcKo6K7tOtDYYN6GK09fI12/Dr8o1G2+lqQP39bb9pgL5dWsDd3RViqR1r7EWsb/3Ncq1ctx3zl+q/0KdG/oOPPoKbmztbtSr05QukpujGxx87qBNoSJxAggZ0aeDa7cds8W99dWHz9hk7qCPatfy80BRJk9nqNNftMaFv0J4g7ncH5zOzMTM+mbN9eD1pBjiTpVI2s5XSgTZh5AMCAt4Va5i7hBBe8fAVpVJsDvLjlNGqa9c9yVGiVXgUpw1pb2+HvzYvQpnShk/xj568QIsOg4zGGRsbtHa1d7B4xmA4vg4FFYkhdXCFSExxaQhu333E+uZVKq4/UfpH7Ny6MRvzLJCgAX0aWLNlPxat2W00UYoe4tcsGIVa779TKAf6+IRkNPx+qM5peIoINvGE196eko71KekmYNwwfUMjI1fawo4qdCMfFBTkSVSa44SAV8n6MlIJ1vj7wssEP/xrxZ9Kz8TAaG6Fhps3/RS/TBtu8LI1Nj4RX7cdwIIxmYNqvFceC6cN1MqiJWIpxDIHKNUEDZt3Q4IZxmrSoDbmTuxnDpEFHsVUAyq1GnOWbcXWv47CmMVzcXbEqjnDUeXdEKtrg7qXaGUoXVRaKsFyP37Rd7S2xIS4JNzngR/1auw4jUpZNzw2VnfAvhU1U9hGngT7+48lINP5zJke9+f7eqGhcwEAjRhgY3IKfuGQBEULJxzZ9Rv85Ybx0WiiEk1YykvUbfI6bJLPHF+3bVS/FmaM6QkHezttvmIJFq7ehdUb/zKFrVafmu9XZKMjBBI0YEgDtIzhj2N/xfU72pf3uvrIfT2xet5Iq4dWPngSija9J+ucRlU7KWaZgLmTrlGjf3QiYnn65xmGuZTDaD6Ljo4u1BJzhWrkA/0CPxMT5hAIeGWM9HF3RV9ac9PUd5IB4lVKrE5KwZZU43C+tWu+h02rjNerbP3DMNy6m5spGBIsx/jBneHv58VilS9f/xdS0zNNkrh3p69ZiNe3KSYuCY3aDDOJZ95O5csEYtcaXtchBR5TYFA0NUANfZs+UxARGWt0ApUrlMa6X0ezyWHWomt3HqProJk6h6vvYIcxXtrAfVzlOpmRhdkJvL/QNUSDXi+jFWu5jmOJdoVp5KXB8oBThOBjPhOrbifDqgBf2Jl6g88AKWoVUjVqLEtKxf4044a3b/c2GNrf8IXrs+dhaNa6H0REhAHdWqJXp+b/TYue5Fv3moxHz8L4TPW/tjTq5o/lExHon/9L4usuY/Ay3HgGrKGBhZO8SctSYjvRk3zPYXNAoR+MES34MWdCH3i6Gy/YY4wXl+f0QEWLwOii5k4O6O9hGoAgreG7JCEVB/mjlKaC0dQJjYq6y0V+S7QpLCNPSvv6DmfEkjl8JiWlMd2BcpSV5S+KwZVPqkqFlFcVkhYkpOAfDou28tdJaFCvtsEhFq7YjFW/b8ecCX1BXSx56fyVu+gzch5XEXW2oynyO1ZPzZc0NXzKMhw5ecVk3jKpBGsXjELVyuVM5iF0LHkauHzjAbunVSrjeD7NGn6EmeN6WaX61f5/zmHszNU6F6SjixM6upmesJXNMBgek4inPOPnGZCDYZERXxcWWmWhGPkgP7+PCBGdJYRwLktEG4739sB3rm8yOPm+WhlqNZLUqv/ujWbHJ3OCGD2xfx385frrW9KTepd+Y/HlZx/hu6YUeTQPMUCXQTNwQw9ON40vpqnh9MMkPjEFNAZeH62cMwx1PnhP6/Hy9XtA/28KUUgDGvL2boXSpnQX+pRwDazauA9L1u3mpIVvmnyCScN+sDhq5ZbdRzFrse5cpP7uzmhekHs8AHezczAqNgn631Kd6shRadRdFNHR2zgpy8yNCsPIi4LkAXtEBG/8GRwmRd00K/x94SAyTeQsjRrxb31e0vJfZ4zgSDs5OeLqiW0Go2qUSiWeh0agjL8HNCptXOq4hGT2tl9XaTX6KUsBnjzccz8hExJTMGLaCtBTki6iL8r0UT20Hp04d4ONYeZKtBIPrSva/Iu66PDt55ygGbjyFtqVPA2MnrESB49dMhpcQAMQBvdoha7tmlr0RL/s9z1YsSH/oYdajdGerrzQafWt5raUNGxMyeBl6BmGUalFpKxCoTDNZ1uArWWaxSzAgEF+AT1EIqzigxHvLhLhr2B/ePDEpXktJsWPiVbl5FuUGfHJbK1HQ/RhrfexcaXui5y3++WkxYPJUyybPr9x9wm6D52d77OW+sGXzRoKWiUoL2VkZmPw+EW4eF27VB9tQ9ue2r0YsjzuqsjoeDRpP0LvFOiXgpuLEyqUDUTn75ugbGl/+Hi5s2XXBBI0UFANpGdksoiV9x69NMqKJvp1a9sMA3vwrxNrlPmrBjMWbsK2PcfyNadBGtO83VHDADgZ1zEo7MHA6ARE8oy2AYPFobm1Ya1KVjXygYGBQWINcxUA97QzAOO8PdDGRDeNWsMgVq0EreH6NnE5yX/X/HPMnKw7uSIvP41GDWVafL4xDh2/hFHTV2qddCiQ0/aVkxCgJyQzKysH3/eapBNJb+bY3viqUZ67aobByQs3QX8caIELWqXKwU4GT3c3+Pt6svUzKQiZQIIGLKWBmPgk/Dh2IR48Nm7oac3jbu2boXfH5rCzwEFj+JTlOHLycr6pUnfvPF8PVDQT9PPTHBVGxyUiXcOrXGiWRiNqEB4dblVIYqsa+eCAgF8Ig5/4bLZSYgn2lvI3OXsuTqlENqPbg8bFJ/9Dh5YYO6ynUZHVORlQZaXla7dq0z4sWavtt/y4ZmUsnz3MoPH9c98JTFuQH7ag3sdVseznIUblERoIGrCmBigGfZs+k/UCg70ty5eff4Sfx5j/MpZ+NV+5+TC/kSfACl8vBEo5XwMaVd+m5DROIdhvMXqRrVG/Z83YeasZ+VIBAfXAgOKWcvYTeItF2BQoh78JWa309zVJpQT9tNJHXKJrenT+DiMHdze64MqMJGhU+QsITpm3Hjv/pvVP3tDogR3Q4dtGBnlSFL0ug35mS9DlpdJBfvhz1RTYm+Gz0+ikhAaCBnhogLpsaPhibHwSp14f1aiEaaN6gCZOmYv0hRTTyLyN/l5w5QBOxlWWlFduG55JUioNQd9whWIN13EK2s4qRr4Waklj5IojhBBeJYj6uruin6dpyQs0kiZRbTiOl0ucfMc2zTFxZF/DemYY5KQn5PPH006Dxy/G8XPXtfrv+X0GypTSLs2na4DTF25h0IRFWhE3vt7u+GP5JPiYmNRR0A3zf/auA8qpqgl/L217ydYkW+hIk6qACj92sVcEBOwCoihdQHpvIhaKoIKAgggWFFREUFCxgRVQkLYt23s2Pe8/85aFLUnefSnLLmQ8HI7klrnzXib3zp35vkD/gAXcWWDvd4fwwtzVMDEyrbVv3RTLZj+LRIlkP850oCw3Aiej0GVtCeY4bNXFQeZpfY2LRZ+yWjE2txgmCbSBVItp5R1ts7OzxSvKfPC61YuT18bH91UqVdvB88yVrW1VSqxLSgQ9HKlidjiEilaxaNk7JeV4X6Tite+NvfDKAvcl/3TZajEUAU7CQo+NXoCDf5znyyRcj/0fvybQxYkJVRf2Hz4TGVnn3wUqjHpv5VQka12ndIqNG/g8YAF/WoBI0EfPWA4iHmGRtq2bYPWisSCyc2+E6DGv7+e8AryVUoFXJOLWsOhCPob4oXdXuE/gqD0Wz+Pt9OwsigOLuSkWNdy2Efc0Xk6RkJCQGCyX/wFwiaxDhXAcVmnj0bkWXgtLfwfPI89mhY3hl3V7eQVWFdeNo1ef5/K2rbB1w8tup3bYLbAanB9Rh4ychz8On8f66HJ5K7zzyiSWpQhtNm7bhUXLN59rHx4WgneXT2E6CTBPEmgYsIAPLWB3OPDam9vw9ubPmUcdNfQBPD7gNub2zhp+/8vfePoF52Q6t4YGY2SMf6pu8+x2jMopQpGb0LATfQsdNmuPjLw8cSAgr6zijn7Iy4GruqcmaidBxs2TMlyf0BC8KgIG5nQ8Hsi1WUDk3Cyyv8KE+SJ4FARO9uf3H7rNJ7eZK2A3O/+xGPzsXPx55MQ5de646SrhwkmK3DrohXNYIQEnL8VyF39bTlZZ/V2Zusv23teXVcjhkuNlEWJH27xqGktTl23e2rQTr6zZ6vTzkdFhuDXc82pXMcV+MJowt6BU6hP4Pk2f1UtsbG8/9+tOvl18u/AyRfFRTgKdn04hx7tJiYiRS78FL7PbUCqBkPsfixVjcsV5d/ftXIfEBNcIlBZDMXh73UtXejhDx72EHw+dh62g3QrtWqTI5o/3YN6rG4UuFO55b8UUNEnWSBki0PaiswAHZWgUZIrKPAaedwiFeDaTwWnY8EIsny5iH3l+HlPGTVxsFPZ84P7ELLaGsTNX4CsXEB+vJqjR0kfpk870oJj8xNwiHGMMUVWNwTtwd3pO1naxtXnzuT+dvCxFo1nDcTLx1JRqK5gcq0b/KOmxOavDgVybNMatQrsdg/V1c9trG3TDGwvQvVtNOIHzbXiYy/LpW+b0OdR+8UY9dT8eH3i7pGdWUmbAPY+9iILCUgHoadPKqQK6ZUAuXQsoQog1rC7PsMNug62iWHD6DUGenvgyvv/5L1FVUpMS8dkGtqJDZ4MRp/LtQyYiU1+XH4KqRD5JioNcGieRqM61GxAJ0bi8YlgYIwlCfw570rKyKNXOb8cwvzn55OTkjjK74wcAzGckqmzdmapFmMQ0Jyp0oji8s4Ind0+KrDogMw9lIg+Fsmsoy8aZCJeuToqgqtoufP09vPvh7nNdJ40chIH3SqdHy8zKxQNDZwg7+fffmA51lGdoepLf3ECHBmcBIo5Rhald6uWwW0Epva42HvW5IEJefeDJ6aJTXndNF4Egx1MpKTXgrkcno6i4rM4QsXIZNjhBcPV0Lnf9VhWXYTsDsm21Mej3aUhGTtZ7/tCn8nfET5Kq1b4BcENZh6csmre08egg9bKVr8yHN3i4c5mVX4wfTc5DLVW6P3jvLZj9ovMX0G41w2YscbnMDR/swuKV5y9Op45+GP3ulJRJem7sjz//Dls+3Stc3CqVniNxsj6TQLuGaQFFUDjkQe4Jc6wVpXDYTA1iATf0GyOaOz9x5CABS8lTScvMwYDhs1DuhLOhtVKBZX7IrHGma4bVhhE5hdJ4YXnoHQpZh4yMjEJP1++un1+cfLOEhE52uYKSw5nHvyE0BEs9uGw1nEWW9NQ4H5ZW4M1S9xk2HTu0xgfrnN/au7t0JZ32fv8bRk17/Ryswcxxj+Le2/7nqbqw2uxQelAc5vGEgY4NzgKq8FhwMvd3VmInzPpc1MDhs3D42GmXUyoVCmx7a5ZAtOOp/HHkBJ4YvRAWJzHxq4KDMDXOs3obT/TZXmbEqpK6Jwo3Y/E8h4fSs7LO7wY9mdhFH2YnzDpnN0CZp9FtBYe7WPuQEht1ieggsYqT0iVzrVbYvQhnHbdYMSq3yO0IQSoVvvtiPSKd5PESlAFBGrgSqlilDJuqnOHZEx7H3X39fqHOavpAu0ZmAZlcCaWbUE315TgDzLsQy+0/bGadyu3qelA8/r0VUxEZ4TmdJ124jpu1wmmE6o6wYIxQ+yd90rk9eYEu8LSES1iexwl5dlaH04DPj18+d/JJcUmt5UqeWCyYg8YDIsMwKU5aaTPF0wvc4NKwvswFdgeezSlEiUiO66QxQ/HoQ3V/t6zGUjisrp8LXZr2HTgehrPkJLMnPIG7+17Dql6gXcACNSzg6sLVmZlcQW3Ut0lv7DcGBGLmSm7q0w0vTX/GK7VWrPsYq9Y7T1J5Kioc93rxA+KJYsQ4RxX1koTDxLSsrIWS+jA09rmTT9Vod4DjmKsaYuVybNQlQCcxxuxtmKbKNpT6RGwvJ0V+dZO0Cdj10WooFDVj4daKkjoY8rXtTuGaPd8dEv55xthHcd/tnodrGJ5poMlFawEOlaEa96iiRFVnM5ZVvpdSMj38YDeiprzrkclu8eaJRJ6gt70RQsHc9+MfToeYHhuFHvXIM0tKEIvUWAa/UkvhfxUmY4+TRUWuL/k8MJJPnXxKvLY3p+D2SdGjf0QYJkvErbDzDuRZbV6FaarruKCgBPtEcOWpKGrLupfQtnXzGstj2S39/c8pIWRD1+hTRg3Bg3ddJ8VEgbYBCwgWoDi8KiwG7iBZKbPGZioDL4LbVF8mnb1sPT7Y/o3L6XxBIs87eFx7//MoKnF+t7ZaE4PkWpuz+lj/n2YLpuaXMBdnUhqlnef6Z2ZnfuBL/Xzq5FM1SevB8UNYFQznOOxtmgSVFHwaiVWtLLrsrTBhMQMTu7OQDYuTJx0eGjEb5OxZEChZdA60ufQsQIVPytBolwu3WSpgdwJ3faEsRWiU9zw2BYTB5EqILeqJQdLqRmqPRZk1dwxxDhVCZ57tyQm4EIwKlC9Pu3kpnLA8UC4PUsWfPn3aZ7F5nzn5FjpditXB/w2OY7rhoIlHx0ThEYks7ka7HYU+3qWUOxx4WF8giiTXrGkSdm5ZWYO+jCVcQy9lFT78+BH9BYamgAQswGoBQlfc9PHXuKHP1Uht2rRONyp8stHdkBOoa9Y5/NGO3vm5r2wAMbM5EyK4eWvpBHTp0Mqr6T/bfQCT561xOsblKiUWJriuKfBqYobOv5nMmJJfIik1hOcdI9Kzs1cyDM/UxFdOXpai0X3EScioCZVx+ChZA42EYxQdy7Kd0PgxrVSk0ez8YhwQyZenIV6eNwG33Xw+pm41lsBhFUegI90fGDodhF1DFGgBCViA1QLEE/zg0Bm4544bMf65x2p0c9isoHfQGQIq6/i+bkdOvaCwGAOenu02Pz4kOAg7310oENl7I7OWvoOtn9XkbKgab0BECB6+wIWDs/JL8KNJ3EdU6cyD/yldr69G/+aNdSTksbubJlWjaQ9ORhk1deusXXR8Xh2FxyU+3CKbDRW1OFS9W/753rsMRiwrEr8N79qpLdaumHuOI5UuuOxWI5MaWdn5oHzeW6/vwdQ+0ChgAbLA4hWbsWHrLnTqcBk2rJ4PSuklsZkNlem7F/hy9Zxz4nmB03j52o9x7EQ6ikXqTwhsj2C3vaGntNpseGrsEhz66zycd/W3Zk5cFLpKLbD08Wv3m4li88XMxN88YLdb0DerIOt8qbwXOvlkJ5+i0UzlONksVj2SFAoBvkCKEDZNvs3KbCgpY1NbymmlfHkx3Ing4CBsfGM+Lm9fmQ1gsxhgJ1CogAQs4AcLFBaX4foHRgkhj/hYNT7bshzRkREQ4u/mhvHemc0WHDh4BGve3YG/jp5HXHVnDpVSget7d8OCyUOZuBVcjUXxfqp0Tc/KrdOEquhXJsYg8QIXDxIqLhF/p9kIKZRV+H8ccnnXjIwMth2km2G9dvLdunVT5mXq88CBuaTsqagIPBvr+gKpjr48kEPwAaz28aAdwTkNzc5Hlk0c2Klj+8uwZd0SAX6Y0tQoLh+QgAX8YYEvPsCoNwAAIABJREFUv/kF42dVhmfpffts8+toolO7rc3whx7OxuQdDhw4dAQzlqxDLu1UGfHU6STy2tzn0L1rW6+ZmnLyinDHkIkCiX1tSZDLBKKQKIlYWP6w32mrBSNy2GgRaX4eRIkhuykjO8N1ahKjol47+VSNZho42UzG+RDE0W23FhoJefG+yokX03FfhRELCsVDNjTOS3PH445b+oBedEt5XeQ7sbkCnwcswGKBpW98gHXvnyffGD18AB578GaWrn5rU1pWgS2f7MGX3/6Cf0+kM89DeEuD7r8RQwfdCQrV+EI+//onvDD3DadDERvU4gS1tOw9XyjlYowpeUU4ZGZHyuXBr0/X6x/xViWvnHxztTrKFhzyI4A2rIp4wtuaY7HAJul+mlWbuu0e1ucj386ym2+N99cuETJtBH5XH2f8eL6CQM+LyQLjZq7Erm9/ObekNi2bYMtqcVRHX9uAwv6GCiO+PfA7pi56GzYJoQc6gSRp4vDanOfRopnOp6qNm7ESu/adt0/1wa8JDsKL9YhZI7awbypMWMSQql1tHJ6zWpLO5OfrxcZ297lXTj5Fq/0fx3O7wYGJuzVGLsPmJA17jIwHSuxWUIpjfQk7VCiH54Y/hGeeHAib2Qi7me0EUF/rCMxzcVhg2PiXcODgedIZ+sJ+tWUpiNC9vqS83IhX396GA78eBlWwShGVSoHxTw/EXbdcDcqm8aUQWXife5+H0UXmyojocNwR7jkeji91pbGoCvbpnEJkS/iBhANvpuVkSaOSq6W4N05elqrTfQUe17Ma46bQECxKJMZ0th502Uo48X5D03eixlGzFWPzxNmiqCvt4resXYIObVsIu/mGkuXAZt1Aq8ZggSfGLMIvv/9TQ9W5E5/EnTdf7Vf1aad+9Nhp7Np3EO9s+ULyXEEqJa67ugumjX0U4WHMSXeS5qFMtSHPznXZhy5dm0gIC0ua3MPG31WYsaCwREoCyRkL77gyOzs7z8Mp2aGAa0/QJCHhKl6u+F4KnPDWJA1aBTFt+oXpiqxWVHiIE++pQejMMCm3CH85uchxNuYVndsLaW0CG4/Dn1fDnq4o0K8xW8AZT2rvnh2xfN4ovyyLLk9/OvQPZr38jpDjbmH8HlRXJlkbh2WzRqJFsyTI/XjpuXHbV1i0fJNTO0TIOGzWxXvu4PxiXaDcwWNUbiGy2HfzDgf4fhl6/YeeqsS4p647fKpG9yo4MFO5SMWLt5zdxXu6MG/6nbDYMC6vSDhescigfnfghZGDAZvr8m2WcQJtAhaobYGJc1dj59d07XVe6ARJu/nbb+jpk0oXgsH+/e//BNJtqh7NzWc7yVbXieLuKUkJIA7j+27rXS8PctLc1dhRyzZVE/cIVmF6PYa0pCz4zeIyfCiBPYrn+b/Ss/VdAEjJwTynkqdOnkvV6v4FwFSPTLgRyzXxuDqU7dhGrjXPapEC7CPFxqJtKa/1xbxi/M24i6Ev3aql03BV52YgsoaABCzgKwu88uY2vPXejjrDEXHMyzNHolePyyXnmRNMAqUcElXe9i+/x8r1n8Lh4XtLzj08NASPDrgVTz50uzvsNF+Z5Nw4dz48GWcysp2O+0RkGO6PZGYe9blu7gYsOcstLcVT2Hnu+szszL2eKOqRk09NTLwDMjmBNzP1J+7Wz1K1iGA8utEungqf2PbRnixbvM+hs5gT4i0rW4SHhWLR9JHodcVlrF0C7QIWELXAV/t+xdgZK5y2I0al3j0uF5jGruh0mVCFXbt6lBy61WoHXVIeOXYau/f/itz8EpxK07t0kKJKnW2gjo7A80/ejz5XdfYamqD2nKT30f/ShHuudq3r4vWkZ+bizkcmOcXFIc6smQ2g0tWdHZcXlWGHE6pC1334NWl6PTOdavVxmJx09Q7t2rVTlRUWH+E4tGB9GcapozFEzcYhcqF38dXXtLCgBN+KQBBXb69JiMXK+aOEWGR9iN3uEL6sBJdgNFkQFRWOnldcToClgUvg+ngA9TBHXmEx+g6YACrfZ5G4mCjEx0VDKZcLsAIZ+nzmIiWW8TkZh6YpWvTufjlGPnEf6ILVl0Lv9OF/T2Pt+5/jxOlMfPT2HKewB8vWbMXbm3Y6nZoqXV9LVIMq6xuqHDFbMTG/mCqeGFXkz6Tp9eRzpRwAhLElO/mkxMSecpmcLlyZ0Dvj5HJ8kaqFkhFO2B8ok4xWrNPshMWK8XnFouiU1TtGhIVgxfzR6NShpafTMvX76+gpTFn4JnLzimAwVqKSJusS8cmm1xAWrIKlorhBgVYxLSrQyKkFpi1+G0TifqGlSYoGcyY8juZNk0Dvua/l5Bk9npv6KnJyC2F3OLBm8Th061T3ZGyx2HDLwHEoKCp1qgJdum7UxjH7HF+vg2U8Cgk/pi9AoYT0cLuM65eZmbmVZfzqbSQ7+RStdgoHbjbrRPdHhGGaBFKQfB9Q+rHqJtaOfmNXF5fhEwmXJDQmoepNfm4wbujdTXK8VEyn0jID1rz7GdZ/8GWdjE0Zlb2/vwItmqeA4GethqLAHYGYQRvB5xlZeXhw2AyUSzree78wcg46TRxu6nMFrrumi9eQwM40orDMf6czsfXTb7Hl072gnTwJhZ9WLBh9Dgiwet/jJzMEfgZnUAbU7ubQYIyK8Q7Z0nvriY+wq9yIZRIoAnngeIQ6usORI0cs4qOfbyHVydOFK1VmtGWdZKWEC1ebg0dOA8PEpnUSuJAU4H/qQxdSk54bhAdu7wPCzfaF5BeU4P4np6HIDRP8sgUv4NYbK7Mb7BajwBIUkMZtAXKEY2csx+79lRSS/hR6bykE07KpDounPo0kXbxfpqMNlLHCiFnLNmDn7prZQ3Sv8OHbs9EsxTmI4Y7dP2LSvNUu9VoYF43LgyuROhu6sFbYn12Hg+cdPdOzs52X+LpYrCQnr0tMvFEhk3/Fajii3PowRYMghlANhaZyrfUHX8C6Bmp30GQWaLw8kSs7t8G0MY+gSXKiJ92FPvQl373/oJATTIBM7mTt8tm4ugdlWwkdYSZcHea4n8cqBjr62QKEKf/o8wtALEi+FtqEaBNicf/t/0OzVK2wY4+OCvf1NOfGM5ksWLn+E3z8+X6nlH3EtzB6WD+X84+ZsQK79xGyeV2JlMnwri4WcumRaL+t193AK4rK8JmUE5oDk9JyshZIUVaKk6cK1+3gwczVNTsuBncxpjGZHA4U2NjBe6Qs0hdt3y0xYFOZQUqlWo1pnxh4G+65tRdSdAk1mKXEdCMoVcISd8VEX71/WFgovv7kTairsW2x0hOK6RH4/MJb4PA/pzBswlKUlkuHGKYdOu2QaZceHxsthBQpO+bG3t1wy7XdvcJ0Z7UMnUD3HfgT817d6BKKgIDLtr05C9rEWKfDGipM6HPf8y6LtLoEKTE3/sIxQbHaoqrd7yYLJudLQqf8I12fRbs41htb9p+7JnFNtLzSSscEptQRunDdlqxBtJzpfhYFVitM9VzdKuWB2HlgekERDpk8/yGKDA8VdkpjhvVHx7bNIVe4tg2Vle/94Te8smYr0jLrYmU7073XVV2xetl0yOXnw0M2U3klsURAGr0F6EB2Oj1bwLI5diJNwJHR5xbCYrWCmMfoWy8DJ7xXURFhaJqiQYumOnRs1xKJcWrhfoiQIKMjwwUUSHL89SF2ux0fffEdVm/4FNm5hS6nJH1WLRiNq67s4LLNth37MPOldS4/7xceisei/XcK8bW9KLvmEX0+ilxQJDqZj7eC767X650fZZx0YH7KqTrdTTyPnRzAlJfUKyQYr2riIGd4kQijJrcB7+Kr7FZot2NmfgmOW9nS2dy9EFRAReXpHds0F754VP5NYRm6eMotKMKnXx0AXbKySnRUBNatnIu2rZvX6BKIy7NaUHq7k2l6/Hn4hHAxGcZY6Cd9lsbbo6TUgC/2/iTwGx87mSG6kL7XdceiqcNdtqONz7AJS/DL71SH6Vymx0ahR4hvgdBEFfeywc7yCrxeXM48ylkI4kdZd/PMTj5Fo9vEcRjAqsm8+BjcHsFWcZZvtTBDCLDO7692uXY7RuUUoVhC6pO/dKkal3buq1+ejl5Xd60zFZE7U8gmIP6xwF2PTBZ218MfuQuP9b9NyAZh2Nf4R5kGMirBJGz+eA8Wr9zMrBHdC3z+3kIkxsW47FPFdUt/u5JN2lhEVTvJMitwARuWORx4KrsQpcw+hT/lkMuvyMjIcH0sqrYeJiffNL6pxqGwnGLlcFXLZfg8RYcQBrhJG+9AntV/tH7+eHanrDbMKyhBJjvIkD/UEMZUKBSYMfFp3HfXTU7BoBx2q5BKGRD/WODzPT9h8vw1wgmMHFWvKy8XQiQD7rleiH3Tie1SENplEyrkhzv24ftf/gLRFrJKcLAKS2c8g17dL3fb5ev9B0GXrnTidSadVUrMS2g88fiqNdh5HlPyi/EHO6GImQffK50xZMPk5Jskap/kZdwa1oc2KDIcE+LYjF1qs6HMQ9wMVn380e6UxYZpBcUoYCAY8cf8NCY5kGkThmPgA7e5nILITCwVRYEMGycWEmLSnIzyXSs/JefB80KNAatQrvbgEXPx78m0Ol0o9v34wNvQqV0LJMSrER8TJYTm6isWzroGT9sRjnt6Vh7+OZ6GZW9+AErx9UTuvqUXZo5/zG1NCTn2wc/Oc8shOzkmEr0aadhse3kFVkkI2YDHorTsrBdY7M3i5LlUrXYLwD3AMiBVtq7SxOMKhriYg+eRbbWwXxOzKFCPbQrtDszOL8a/PojRS1WbQjTL5r+AG6/t6Xa3SIBpQlGUBMclVZfG1p6TKaAIiQDHyYQ/1Z28YCeeB52AiCibxW60a+0/bIbb9NaoyDBhZ0/hnB5d2uK2G3oKhUZEpEEXoo1CeMBotuCPw8cFULOS0jJk6vNdFiWxrOl/PTthyfSnnRY9Ve9PPyRUEOZKwmUc3kiMBUURGqNQyGZgVj5z9h4PviBdr08AxLuIvl3XAoqTWu2/AFfzRs+FJWPlMmxN1iCGIS5WZrOhtBHu4qsvnR4OgQ19bzRLB5Xw4m0cOWwQnnlygOiuUKh8LS9kclZeqNNousqUwVCGsFdD2m1m2IxlohARu/cdxPjZK89VbLIaJChIicvbtEDXy1siOjICKqUCoaHB0CbGICFWDXVUhLD7l8llkMu4sz9MrKN73o4u/Q/+eQwFhSUwWazIyMrF/p/+RnqW7/L0NQkxePvlF5CsFS+4eu2tD4VKb1fSUqnAkgbE5+qJ5aViZdkd9hszc3K+FptL1MknJydfLrM7/hQbqOrzvmGhWOgix7X2GAQnbLkICnUoQri9zIDVJYZ6OZXcfP3VeHXhJFEHX2lvHhZy8o38x5T1/RNrpwiJhFzJBnldeWlNIQi2lORvf/wDz0951SkyophetT+nkE7ln7o9k7TxSE1KQLImDprEOOGEoI4KF34QKHWS7gY4+q/2CYFOKGdhhiuMJgHUrqLChDYtUxEXG1Vjove378W8Vzb4rY4uPDwEX7//MkJC2CpTBwybhSPHT7s04y2hwXi+EUAZuHsPfjGaMKOglPFtowOn4/X07GxRTg9RJ5+i0WziOBlzVs0GXQI6MnA5Npa0SSlfzmMWK94sKcdhs/9gkiPCwwQC8RbNUphVo5g83whSVJkX5EVDZWgUZAqxFDseVmMpHFazpJmIVemzrw5g5tJ3QBkmjUVGDX1AIPuoLvNfew+bPtrtlyXQaeX1eaPQs1s7pvGPHjuDgSNmu0XTnBsXjS6NBMrA1aKJ+/W53EKBPYpFeHA/peszrxFDpnTr5OPj48NDFEqCehP9MSClCMZgR6pzvImLdRfv7GG8X2rApwYjKGbva2ndsik+3LBMOMKzSqAg6ryllCFRkCldO3kBf52oHO2eF739ePAwJsx+Q4D6bQziLD993MwV2PUtc70N8zLDQkOwatEY4TKaReiH86lxi93mxgtUf9o4xpMty6wXpg15ixHZBUhjzdrj+TIz79Dm5OS4Lahx67yTNZo+Mk72DeuSH4gIx1SGkmKrg0duAwQiY10nSzty8F8bTFhfWu7TWH2fa67E6lems6hwro3daoLN6ByWVdJAF0FjsXCN3VwBm9l750wYM7Nf3oCfDh1p8Fbr3qUt3lg0pkal9NMTX8b3P//lU93p0nnNkvHo2K45s0P+71Qm+j01XYAediV3hoXgaUa+Cp8uyA+D7Sg3YrmE9FOHnR+Skavf6E4VESevGy/jsIh1LQvjY9E3IlS0+cVw4Sq6yLMN6GJ2Y4lBoBI8bbUxx9tcjd+lYxtsfnsJ6/RCO4rHW8oLJPW5WBvLg8KhCHL+jhIRO91f+EooZPPKmm0Cb2phccP9kW1/WTOse2ViDQKQYRNewoFfCXDWN0IQC0umjUDrFsmSBnx78+dYtvoDl30ol4ZYoLoxhIglTXyBGhsdDgzSFzBzWDiA3zL0Wd3cXRy5dfIpWu1ODtytrOvdmaJDklIcVpfQJgk0/1ISwqigWNuCghIctlg93t03a5KMT957FUFBbBdWVTa2lOUHMmwAyFWhUAQ7xzapjMNXErDUFgrjUMEPFT0JMBQSUvVMJrNA4bffxztjX31/qHjrvRVThXTOKhn+wlL88MvfPpmid89OeHnmM0LmkBQhm986+AVk6fNddqPUydcTYpDgIzhvKfr5q+2UvCIcYi+MghV8U71ef8aVPu6cvCpVo80DxzHlm7VWKfFBskZ03Ra7A3lexDtFJ2gEDSij6KDJAoJIyLba8bPJDD1j/F6riRdi8jHqmtkQYsu2GApBhVGXusgUKihDo525cadZSD//dhTvfrgb3/3817nL1IH33oBJIwdJMiU5rJ9/+wef7vpB2NlTrLmhCCGjblk9owb+zhjCr9930CsVqRjsqcF3ov/d10KllE4TuPWzbzBr6Xq3OrQPUmJhvJqNps6r1dRf502lBmwoZcet4h24Jz0n6xPJTj41MekOyPhPWZc2M1aNexgwqBsTTg3r2n3R7vmcQibgMwIi++CdpUhNZrvgrtLN3S7VF/o3ljE4mRyq8Lowtg6HTagnqC3PTXkV3/zwe41/jggPxa7NSzwGJbPZbBg7cyX+PHJCKP93VaZfXzbVJcZi65uzBGTKKnlxwZvCD5InopDLcVnLFKxcOEZAvPREqJp24NOzQJSA7mRqbBSuYii89ESHC9VHMvywg5+TnqOfKtnJSwEkC5VxAlaNGKwwYTRQqKbh7GEu1GOsO++s/GL8aBJn9aIc6E1vLUbH9q0lKU/VmzYz++5A0uCNrLEqIr7OxZ/VVA6HE0hmgsd9fe1HdVZ4CyEmThnGfIHozER5hSU4eTpTKPL59fd/hRz2CyEJcWp89PZs0I9Xlcx5ZSO2fLJHsjqdO7TCmKH90P6yppIywGpP9MfhE3h89EK3BOZxchnWahsPQQirMSscDvTLyme+v+N5/pv0bP11kpx8XFxcRKhSRQVQTVkUa6tSYkNSoihxbkMi6WZZV322WVlchk8ZuWTnTxuF++66UZJ6lPNtNXqGLSJpokbQ2FmGDV1MOysYo4KhJ8YsxN//ED7feaFUwLeWTkC71k18smKK97+1aSf+PZEmzJWbX+SToioW5eLUUfh43VxEVkuaWL72I7yxge0gTzwJlKEz4J4b0L1LG5Yp3bZxOHgMnbAEPx866rbdrWHBGKlmiiZ7rVN9D0BwKQcYNn2kFw8YLA57oqtUSqcx+aY6XRuHAz+CA1Pgl6pcFyTGiibTE9qkJYCh4vR92V5WgVUlbKl79915I+ZPHyXpvROAygy+yxwRm5xCEA0ViIuKoago6rzwMJfmuVwSlfYPeW6+UNpfXTq2a4ENr0326TrJbhSqsFhs+OHXw3jtrW0CMYg/Y/gx6ghsXzcPkdWgwTd//DXmvfquS5tQJW5qsgZzXngCzZvoEB4a7DM7/HjwCIaOF88ga4zY8WLfm6rPf64wY4YbSOU649i4fml5mVudje/UySdrtX1l4HYIRDMMMiNOjXtFYm8NlaSbYXn10uRXkxnT80uYjmiJCbH4dsc6aV8qKmcvc+3IfL3I/05lCI6q3WVMh0FfT+9+PE6GIIrLn8UMIHwfyj5yJ5n6PEyctxoURqguhDL53BP3+RVSmHa2tMOnuStMZhQWleL3v//DiTOZAjgYZfx4E9cnGsDt78wTIBGqhC5dab0hQSok6+LRsmkSUpMSoVAq0KKJFr26d/QLsBqt4/mpr9W5B6n9bMI5Duu0caBQ8cUolEr5sL4ABsYQHs9jc3p21kBmJ5+q0S0AB2YYS0qd1ImkTjZWSOH6eoFOWG0Yn1vEnB+766M1aOKCzd6VzhZCo6ynzKbSUgNGTnkVa5aMg0olPbPCr3bnOKjC1CA0ShLWOgIiqxj0zBzoc87XHFAq5dplE9G5fUu/qiw2+L//peOPoyfw29/HcexEupAJRD8OFOfnHY5aoZ/K2H8lNo4MUVFhWLN4XI2YvNh8/vq8oLAUN/YfC6IMdCdPRYXhXkZSIn/p6s9xKeV6XF4RjllYM+K4kzaOvzwrK6sO16eLnbzudxnQiWURLZVKbEtxnzpJrxRl1VwMYGQsNvGkTb7djuckME7NfnEkHrz3FklTEdcrQRzUh1CM+X/3Pofre3XDrPGP+nWn68l6FCFRkJ+FN2B18jRPaXkFnpn0co0dPaUHLp35DP7Xs6MnqgT6nLUAhaT6D5uJf0+ku7VJtEyG1ZoYhF/EhCzkM18qLMWeCud1G04MVMDbbT3Sc3NrHjWdYdK0SExMsMrkzHiij0VFYFSss7zj82pQVk1OI8aNr49vIRWHjcgpZGaburPvtVg8e6ykkI0UZ+btmimEcN8TU4VdLxXCXCPC+uPtfFL7c3Il5CpKGaxEe5RCkXj0+Bk8MWYRyg3Gc9PSRSyts0fXtpKeiVS9L+b2+3/6E89MWia6xN4hQXghNootliw6WsNt8Hm5Ea8xQhzwgA3gb0jX6/fVXlGdnXyyVnu/DJzTAL4zc6zWxKOHCBvLpQRj4M0rQ7j0O6o5DndjtbusBba88xKUCilVhPUHO0yx1aepavLXw0Il5fb185DIyBbmjQ0960tfA2npiwd+PYLhE18CXw0xkJ7Fi6OG4N5bewUcvQcPgt6X7xmqbBfHq0FFUBe7pFttGJbDnizh4B0vZGRn14GhqePkUzTalziOG8NiwAiZDO8mJaKJm3Jl+upkW8yB3HgGg/5ltuCFPDbSbXKc33y2FtHR0lLIaMdKOOn1IYtXbMaGrbuEqYgB6NU5z/nlsq4+1lJ7Dop5T130NnZ+/WOd6e+9tTfGDHsQxAYVEDYL0EUvVdmKSdcgFebEu48ciI3RWD4n3/mIPh/5jNXwPLjP0/WZdbhAazt5eYpWt4MDmIK9OoUcW5I1IGfvSiwOB/ICWObM79WgrDwUMeJJz5z8DAbcxwwtJOhQn7DD+378A89OfuXc2ieOHISB91x/0exy7TY7bh44DnkuuE0J2bF7l3aScG6YX5SLqGFJmQEPPjVdSBV1J0oOWBKvRquGdpHvx2fxWlEpPjewxeUpXz5dn0W7vhr1pjWcfHJycojMbv8V4JjQ/K8MDsIaXYLb/PhAqEbaG7C4oAR7jWxkFSnJGnz10RpJTrOS7YjttCBN87qtTWYLbug3BmXllRf+FPumAqIrOl3m7dANpv8Pv/6NkS++6pQkhDJvenRth0cf7BuI1bt5Yu9/shfzX3tXtBagc5BKQJwkHulLRb6pMGJRYRnzcq3gu+n1+kPVO9SwVtPoptGOYHMaOC6CZdTn1FF4QqTiLIBVw2LJ8212G4xYWsT+UHduXYkWTdlZomgmIV+eMf9WmvZ1W1cP2dCnbVs1ETDFq1dXejvHhe4/95UNIEflTqjMf/iQu0Bl/4EwznlL5eQV4c6HJ4E2BO4kTECbVCNR0h3UhX4zvJ//hMWGsXlFzJmJPI9n0rOzVrh08kmJST3lMv4Aq2qbkxLR1h3krYNHZj3Ff1l1bujtcmx2PJbNjv0+Z8pI9LuHKbp2bulEIEJEIvUhlLM9ZOQ8oYqzSnp2bSeAV0mB660PXT2dw2a3Y/iEpSDESndCJ5lYdSRaNtVh5vjHQUTWDbUq2FNbSOlHOfwT57yBL/b+LNrtochQDPYQ7Ex08AbcgFKrn88tQhFjXJ7jsfZMdtbjLp18skY3XcZhBsuaKQ6/v0mSU6Lhqv4Gmw3FAQJpFnPWaDM9rwi/MOJJ33pjLyxbMFHSHA6b+SxBtaRuHjUm5/7o8wtAaYdVQlkoU0ZTFkpvj8ZsiJ2OnUzHwyPngwiyWYUIuO+46SrExUSha4dWaN0iBUrCRb9EwhF/HT0pUPtViIQnIzkOKzQxiJGLc1Ww2r6xtKPaomckpFaDx5607Cza9Z2roqoRrknVJP0Ajr+KxQBXBAfhLV2C26aUG0+VWwGRZgG9zYYnswuZkvrCw0Lx855NNajbxGajfHkrVb/WE44QcYUSZ2ht2fbWLLRqJo0pSGxtF/Lzg38ew5NjFwkwA55KSLAKg++/BXfe3BNR4eEg1FGlSgGC7608+VBev6ejN5x+BPzW+96RsIhsZmjF8+OicXkjJ+n2xvLzC0qwn/GeDsA/Ng7dqle+nntddDpdqILnigCeiXKof2Q4JrvJew7ACnv+WO08MDavkLmkedakZ9D/filZNpQvXwSiu6sPofL6R5+fj98P/1djujYtUwWAL6ksV/WhsydzEA/pinUfY83Gzzzp7rQPOXaCAqYagxh1pODsK+EIyN1DwJKhk0BMdATCwkKgUigEiN/aJB0WKkYk/CKzDQajUcC8qTBaYDSZUF5e+f9UK3BuT8ZXVg7QPLMnPIEgH+els6JcXkGXrfHRouCHPjN4Axzos/IKrChmrlQvVZiCU08WnTwHOXvOyWs0mvYqTsbM9zUpVo0BbkhCTA4HCgKpkx71NcDXAAAgAElEQVS/Mu+XGvAOIztMi2ZECfi6JPxuwpYnjPn6kr3f/4ZR016vA6R1+409MWPcYzX4RetLJ3/NM3n+GuzY/aNXoGH+0k3quFd2biNkRPlSTqdn44GnZsBicX/ZSmV+i+Kj0UYi1aUvdW0IYxE3NFXDs4rNhq5ZeVm/VbU/5+SbaDS385yMeQuyXBOHXqHnmWRqKxAAJGN9JM7bGRwODNTnw8YQ7aKQzftrl6Bl81T2SesZlZKKh/oPn4n/TmXW0XHisw/hofuk4eOzL7T+W9I9xJNjFuGvWhj09a+J9zO+Muc5XHd1Z+8HOjsC5cQPfmYOzmSII6c8EB6Cx6OZEv18pl9DHIiCf/0z85gRKcHh+bSsrFfrOPkUjeYZjpO9zrrID5M1aOGqKIGHwABlZYoqs8546bXbUlqOdaV1QOWcGmLa+OEY1P8OSUaqz+pXUiwrpwD9h81ASa0TCuGYr5g/CoTPfrGIw+4QIHO//fGPRrukB+7og2ljHvGp/sS0tXzdx6KnHAIheyVRjfhL8LLVmcHH5BbiH2ZESn5bml7/QF0nr9Mt4XiMZX2i3zdNcokCF8COZ7Wi+3aFdjtG5RYxlTU3b5IMypmXkpJntxhhM7Hn5PtiVUtXbcG6LV/UGYq4QIlMmtIKLyZ5atwSIbXSG7z3C2EPYrxa+/JEhPiQP/XQX8eFuxkWuTssBMPUgV18la2WFpZiNyMiJQ/kpOuzzkEDnwvXpGi1H3Lg7mV5AFqFHF+k6lw2LbfZUBJInWQxpWibr8qNeJkRie7N12ai91XdRMesalCfqJRVc5aWGfDY6IU4fjKjjp6E4LhqwRjIKY3wIhG6jH3/4z1YtHIzaHffGITqGGaOfwzaxLqE557qT6mllGJKqaZiEi+XYUViDMIuYihhMRvU/nxzqQHrGe/oqK+NQ3xWVpbAhHPOyadqdVQK24Vl8nvCwzDTzY4r32qFuZ7S81j0bext5hUU4zujOKjYTddehVcXTZKE3V6ZZUOZFfUnp9OyMXDELBic7Ez6330dJj476KIplKqy6onTWZi++G38/e9p0fL9+nsSNWcKCw1Gjy5tMX/yUJ/u4OkU88qb2/D2pp1MSxsSGYaBAXC3GrbaW2HC4sJSJvtVOna+25mz8AbVdvK6PA6IYxllblwM7nDxEGivkhfIj2cxI3Mb1tv1hPgY7NiyApER4cxjOxxWWMuLmNv7oiGlVL713g689vaHdYaj9L9pox/G3X17+WKqBjWGxWrDb38dxwuzV6GwpH7DZO4MERoSjBGP3IVrr+mK1CT3tS+eGPS7n/8ScOJZQlbkkF5LjEFzN8i2nujQ2Pv8bbZgAiNCrbBWB+5Ky8kSmNgFJx8dHR0dGRLK/E3/NFmLVJVzHPMAQYh/Xqcd5QasKDaIXmXPnPQsBtzfV5ISRPBNRN/1LeNmrsSub39xOu3y+aPQu8fFy7T006Gj2L3/IP44cgLHT6Z7VUAl5bkJefex0ejasTVi1VG4+dor0LGt/y68iSFsyLNzcfjYaSY1NXI51mhjIL+kM+PrmirTZsdTEuBOePBPp+v1q845+SSN5jo5J9vD8hSCOA4HmiZD7qLqrsJuR9EFcBgsujf2NhPyivC3SIUg7YR/379NqJRklfqEH66uU15BsQBO5aysPSI8FN9sWyYp9591vQ2xHcWqF7z6Hv7+9xTMFipc8l5LuoSn9yE6Ihz33NoLg+67Cepo9lOe9xoA0xevw0ef1yErcjn041FheOAi5m711KaUUt2vMsTOJDy4Oen6zKnnnHyKRjOW42RLWHoThvyOVJ1L6q0CqxWmQDyexZSS2xwymTEl/1whm8v+S+dOwO23/I95/AtxAVul3PGTmRg6fgkKiuquq2mKBqsWjYEukSmKyLzeht6QYBGycwuQlpmL3IJi4cJWIOSmc5zg/Kt+ASp3WucqYDkOFHpJiIsWLk0TYtUXlKTll9/+wfCJS53CMLt6Bi8nROMyFVPRfUN/jD7Xb2BWHkoYuSZ4Du+kZ2U9Ws3J69ZyHIR/EJP2QSpsTEp06uQp5pZlFb8gFJsj8LlrCywtLMHuCvd48zf06YEVLwk/4sxiNZbCUU/IlLWV+uSL7zBt8VqnMdurrmiHl2Y8g3A3hXfMiww0rDcLGCqMGPLsPPx3um7xmzslFsRFo+MljFPjzjYz84vxk4nZv36Vps+6+ZyTT9Yl/SDj2YDJeoUE43VtvNOIWYAFyv/foQybDWNyi1Du5hc9SKXEzg9WITkpkVkhislbDHQt44M4AfOslQ3pIva9j3Zj0fJNTntee3UXLJ42/KKCPpBookbV3OFwYPK8N7FzT11qRLGF9AhWYXrcpUHvJ2aL2p9vKi3HBsbiSJ7Dn+lZWZ2qnLwiVas7BYAJDvD28FDMS3CeP1tut6MkEI+X+uwktSdUzxkFJTgk8ot+ba/uWPHSFAmpiDysBgoN1G86ZdXiCfZgxkvr8OmuH5zaY8gDN2PUUw9cMjF6SS9FA2tM2TSjpy+HWYQIxJnaFICaGxeNzoHdfB3z/FBhxpxC8XDt2Y65afosYZfHJScnx8jsDmI7YMqdejgqAmNjnf/SFttsMASKoPz+lfvJaMZMF7yiVZOHhATjg3UvoVWLJsz61CfOvDOlaAf41PgloFiuM3mkX1+MffpB5vUEGta/BQh87N7Hp3iVLZQgl2Od1neFWPVvBf/MmGmz4alsZqAyPk2fpQRg55pptU3s4AixTM2i2vjYaAyOcl5unGe1whK4dGUxo1dtaDc/WF+AUof7CsqhjzyAsSOZrlrO6UM48xdqN09KUMbN46MXOgWwovS/JwbcjhGP3XNBLxS9engXcWe6k3vkubqQ0p4suXOQEi/GRoNo/wJSaQH63t+XmXeeDUTMMLyjfVp29hEuVaNpB05GwTMmoIglCTG4KTzM6fB6i7kmTbiYEoHPPbbA1PxiHBQJ2cjkMvzwxQao1VHM89Qn0bcrpawWG24fMhHZeXV3LYRvPnbYAAzpd5MknB5mAwQaemQBKvSasvBNfLFHnMqPdYLrQ4MwUh0JStsOCNU3AYOz8lEssrmrspWNw11ZWVmfcikazZUcJ/sWgGvc4GoWflubgG5OQIusDgdyA/jx9fYuLisqxS6DONXcvXfcgPnTR0lwiPVLKOLKYEePpwmIlc5ELpdj0H03YuzwByWsq94ezSU5ERGlvL72I6aqVikGui40GONiIgOlUUIRKzA8uwAZNjuTCR08RmZkZ73OJWs0fWSQfwWOp/iNqHycrEEzJxDDAfx4UdP5tMGSwlLsYUCli42JxkcbX0Gii8tyZ0o57DaBHvBCZNpU1+ePwycw8sVXUFxalxVHJuMw4pF78fjAWyUVfvn0IQQGE2LvWz/7BnNf2eg3a9wYGoynosNBvNKXslDe2+hcdsY4nncsSc/OHs810WhuO0sWwnQm+rZJEqIFrsmakmsJ4MfX5wv4dE4hzljZoAgGPXgHpk0YLkk9q7EEDqv7fHxJA3rY+OvvDmH0NNc0B/f07YVZE2qQ03s4U6CbJxb48puf8cKc1X4HXbsiWIVZl3hqJTn5yXlF+EOk6r3qOTp47oOM7MwHuRRN0qMcx69lecCEVvNLsxTUvguharxs4pBkGSTQxmsLfGc0YV4BOyIdTbh1/cu4vF0r5rkrd/PMN/nM43rS8OPPv8PcVzac5SGtO8JtN/bEhBEDBZ7TgNSfBda8+xlee6suyJy/NGinUmJybBRinGwy/TVnQxqX/OucghIcYCT15nn+5/RsfQ8uRasdw4F7iWUxGoUcXzrBkbfyvIA8GXDyLFb0rs1Jqw0v5hWjhPHypWq2227+H16eJ42r024uh83Mxkzl3arEe7+x8VOsXr8dVhfxSOIifWnGCBD5SED8awHCGpqzbD0+++qAfydyMjoxRS1LUEN9iTp61jCtYDqeP5OWrW9KTn4OB+5FlqfVTqXCpuS6VZQB0m4W63nf5vNyI9aVGlAm0cHTzEFBKqxfNQ+dL2/DrAjPO4TYPGHbNAQheGLCJXclydp4vD5vFJo30TYEdS9KHU6lZWPcrBVOSV9YFixXhYAYybyRWLkM8+OjkaxwjoTrzdgNve/rRaXYyZBwUenkkaUKD23ONdHpVvA8nmZZHEEaLNfG12lqsNlR7GCLD7PME2hT0wJ5dju2lVVge7l3Xw66fN25ZSXCw0OZTWy3mmAzSgsNMQ/uQcPFKzZh08d7QBC2zoTSRpdOH4HrrukSyLzxwL6uutDu/ePP92PZmq0weVDJSqjmUS06ILFLb+h/+gpl6ce91u7F2Chc40N6Qq8VqocB1pWUY0sZ8+k6R2EyXsalaHSbOQ79WfS7IzwUc51kaRRZbajgG8Zuj2UdjanNQZMZ8wtLUcGIPie2tpmTnsGA+28Va1bj84ZyCStsTnhewLh598PdLtdAMMu3Xd8TcyY+IWmdgcbOLUDwBA89M8fj3TuNqoxUo3nfIZApFKATYv5fPyL/b+nYNtU1VHJA//AwPBTlvG7nYnyeW8sq8HZJ3WwzZ2vlgXyLw96eS9XqiFX5FhaDDImMwDgnN9yBzBoW60lr86/Fio/LK7CvwuzTuw5KqXx/7RKkJJ3j+RVVTIAipktYX4Cci84m3oAcPV34rXv/C9jsrjcX3bu0xeTnBqF5E9d8xOKzXbotbFY7lr/zscDi5Y2EaZsh5X93gpPXDK8UHf8Dub9/51UWF+X53RIWguHR4VBeAkVTO8uNeJ2R8xlAoY1DZy5Fq/uOA65heYgjoiMxLKZu9WSm5cKn2rHo3xja0I79S4MRaxh/rT1ZU5dObbHxjflQSIhpUjol7egbksxZtgFbP/vWbfoekWa8NH0Eeve4HFREFRBxC1Du+5Fjp/H0C0tRWs4cGqg7MOHbJ6agyfUPuJyUwjZZB76Aw8tCystUSsyOi0b4RQ6D8E2FCYvYuV4JcbAbl6rT/QYencUfPTAuJhpDaqWpBeCFWSwn3oaq2baUGfC1wQSi+vKnkONbMH007ujbR9I0FJunGH1Dkjff24FX3VzGVul6Q++umPvCkwgNDW5I6jc4XfILSjBz6Trs/+lPAQLaG4nv3BuxbbuB49wXMVXkZiBj33bYLd69W02UCoxTR6CFk2JNb9bRkPpS+uRsEXDC8/rypTaO6047+X85oDXLQqbGqfFArRQ1g92O4gC8MIv5nLYh537UbMHK4nJQemR9CVWMbn/vdbRqyY5S2dCybaps9fbmnaCyeoNIBTAxKM2f/BT6Xtcdsku8erL2e6bPKRQqVyn33VuRB4ci6apbEaZlf7dMhTnI2L8dVoN3BOdqmQyTYqPQPkh5UUIh0B3dVAZ2OHqGPFDO8Y6e5OQzOCCJ5cHOT4jFbbUyM4psNlQ0kBQ7ljU0pDaFdgfG5xYiz+GAzbtNk0fLat+mJT7cuExS34YWn69Sfvf+Qxgz3XVlbFU7cu6pSQkgovAUHRO6tiT7NMbG9AO5/oMvUVJm8Fr9kDgtkvvcDUUQewZX1aSW0iKc+IypLtOtngoOGKeOxP8uwlPbX2YLXsgrZn1OBrmdu4YuXgsAxLD0WpYYh+vCauKYBeCFWSxXs02e3YEvDBXYVmaE5QJfZl7dowuWzh0PdXQk80LslgoQ+XdDk98P/4exM1cgL1/8S8DJOAy5/yY8PuA2xKjZ197Q1uypPuTQt2z/Rti963PIBXgnFJKJbtUJ8R2vhlwV5PFgtJNP27MVljLCTvJOHo8Kxz3hoSCnf7EIJWSMzmW2jRHge3OpGm0pOI6pHnx5Yjx6hZ2PaZJ/yrVZBJzjgIhbgOz0ZYURy4saloPse2MvLJ49FiolE0adsFBy8uTsG5pYLDbc/dhkZOrZme1HD+2HAfdcj5Bgz51TQ7ODK30o333XNz9j+pJ1vkOM5GSI63g14tt394kZrBVlOPnZOq8vY0mZQRFhGBAZBvlF4uj/s1rxXA67k+d5Rx/aydMZjelstUoTj6uqHYHsBGdgs4L+Doh7C9CFCeW4HrX4h15PFRkDW0U5CA/eE7nqyk5YOm8CYlix53kelopi8BeILtDdGotLykEwCO9u+4rZFEmaONx2Qw8889i9F2W8vqCoFK+9tQ0Hfj0Cfa73O/cqw3IKJcJadIQyOh5BoeGITkgC54MsJktZMdK+/gDk8L0VQrEcE3NxnNZOWW14JocZU8rkcMiuJSdP+Y8qFkO+qUnAlaHndzu0M80NYNa4NZ3eZgdVqe1nBBVieQ5VbeSqYATHapDYtQ+ComJhMxqQ+f0OULaCJ6JJjMMbL09Hm9bNmLtT/jyRgDdE2bJ9L5av/QhFEtJRw0KDMenZQejSsVWjj9kbTWb8dfQk3vtwN/Z8T+RvvhVy8OHNOwJ0ArTbwDt4KFQqRJKjl8kRHJMAmYL9dFhbOwrdnNm9BVaD96m7bVVKTI2Ncoqg61ur+Hc0Qp4lBFpGMctk3LVcikZr4ziOKYF4rTYBXauVEQfSJ12bmpIgVxWV4lujGeVepqLVmYXjoOvZF2GaFChCagJykcPN+vFLlJ75l/E9qNksNDQETwy5B88+NYipv3ARW+67nSHTpBIaZWXnY9S01/HPf2kSegFREWFI0sVj+dxRiG1ku0BiaaKqYEqDzM4p8GkxXXUjykMjhR94B6XV1sZT4jgoQyOgueJ6hCc1l2T76o1pR0+hG8rs8lYS5DK8nhiD8EacWZVutWGYBCfPcbiedvJkPaaI1TvaBHSu5uQD6ZPOXzuqUt1QWu7zfPcwTSrCdM0R06qT2yOxw2pB5g87UZ550uPvxdXdO+ORh+5Cn2uuFMWAIUdvpdBNA86yWr/lS6zasB3lBun4P32u6oxe3Tvg1ht6IlIC7o/HxvegY1ZOAXbv+xW//f0fvt5/0IMR/Nclsmlb6Hrc7HEYh0I2wmVsKXMs2uViqlIsOwR5fsLwn6XER86w2jCU3clbQE4+RaO1chzHBOdWm/qv2GaFwQNERPGlNM4W+XY7RmQXotyXdxQcB1WEGs1uGQyZkukxCcbj7Xac2fMBjHlZXhnzyq4d8May6QgNCXbr7Ct39HSMbNj3M5PmrsaX3/7iEuBMzFg9r2iPhZOHCiBvSgXTAVhsSI8+JzgHq9WG3/46jjEzVqDC6F0hkUdKSOikDI9Gi9sfrgNtwDqE1VAqpFfSe+0LmRwTiV6NMMUyzWrDcHYnb+bslTt5ejuY0grWaOLRvZphCEP+QqcA+uKBezsGQf++U2IQ6PhMPnTwEamtoW7ZEbSD90S8jdFXzRkcHIRre12JO27pg5uuu8qlKnR0F3b0Pjhas66XHN3eH37HgV//dkkqUjWWQqnAVV3bIVYdhb3fH3ILciY2f6vmyWjdPAU39OoKqqalQit/S2mZAZs/2YvT6XqkZebi8L+nBPq9xiEcolt0gLbHTR6rK1zG7tkKcvjeSgjH4d6IUAyOpJwT/z87b/Wt6n/aasMICU6+Miav1Rk4D7Nr9BYLHA185+Yr4zobh8hSvjOaQUD+vtq/0kVVcEwiNFfeiKAopvIFt0ukL8QZylIo9/7yiiYKDlJh+sQRuKxVU7Ru0QTKWmmXPG+H1eDf0E1RcZmArbJk5fs4ccbzk0p8TDSKy8qFHbG30rJZEp566HZoE+NAsBGahBioo8IlZ+qYLVZQJkxBYYngwPMKi/HhZ/tw4NARv1PseWsDlv7aHjcLzt5TsRnLcXrX+z65jCUdBkaEYhA9J08Vqud+VBX/LLuTP5tdo9GVgANTflH1PHmi/NNbPUvXq2e7+GW6P81WEIA/4cz4ysGHxOmg63kzKB3Sl0IxzVOfb4Dd7LsjPTkyQrKkP5NHD0XTpueRHv1ZFbv/x78w++V3kJ3HnGHgS1MyjUVQxzHRkYgID4GsGm5LcLBKoCgMCw2F0WRCeYURJSXlNcA9rTabUHlaWmqA/SIMhcqDw9Cs7yAoQz1n8KKsm1M718PuAw5i2sP3DFFhUkwUFPVwGmN6gdw0+s9iw3O5zO++UciTT9Hq8jkglmXylxPjcP3ZilergxcKoS41SbfZsLW0Al+J4KQw24XjEK5tiuiWHRCRzM7Byjz+2Ybl+tNI3+tfPs6runfCtb26CyxUbVo1QcuUOKh8GLYmVihvYW+l2i3Q3vcWCNY2Q0LnXghT1yUgYp2NkgvS9nwIY4HnJ7nqc90UFoynoyMQ3MAd/T8WK8ZIrXhN0erOcABT0HdufAzuiKgE6L/UKP8o8vlWcRk+8pKdqfqLJVOqBCIFZURd+GbWl11KO4P+DNL2uqbPkzKWlLaaeDUevPt6PHjndaA89CohaAHhP4aQ6Kr127Fi3cdSpg20bcAWiOr0PyjDIhCX2gqchymNdPdz4tN1sJaLw1iwmKJnsApT4qIbdOiGIggT85izjAz2Suwa7VGAYyL+fDFOjQfPolBeSumThOH8fqkBZ3wEAUy57XEdeiCqaVuQo683oQrlP39A/uGf6m1KVxNFhIcKxUbahBhERoSdu7gkh09k3E1SEtE0WQudJlZIexz87FyP0h8v+EIDCji1QHBSC4QktYRCqUJ4TAKCPdzoOGw2ZP/8FUpOH/Xa0rTXuCE0GKNiIiBroJexv5rMmMaIQgmgDIRCmarV/QqgG4uFRsdE4dGzQFaldhvKfJTOxDL3hWiTZbNhSWEZ6IjkC6FL1YiU1kLcnWn76otJnYyR+f3Os8VSvrpN8JOigWF9ZgGKN0eFBqPcbIHZi80KXVCmKBUI5WRIUcrRKShIeJV/N5mRbrUjw2ZjIpqXh0Uisv35TK3IOC1CIqM93tXn/fUjCv7+0SeZXY9FhaNfBBPSi8+eD+tA31eYMbeQMYmC40rsHAQ8+X0c0JtlkuHRkXj6LDNUsc0GQwMufmFZj6s2lIn7ZnEZ9laYUOqjatUwXTOBxDgoMvaCOnhaM11Ynd61GZYS6ZWq6hg1XluxEpNeeAHpZ854Y+ZAXz9agJzxbZ3b4N7BdyJIpYRCxuHtN7fh27+Pe+TkaZdLzHC9Q4ORolIiTFZ3r0vZw2lWK9YUl+JTMUYpjhOcvDz0PDaiKjgU6qSmHqWj8g4HjPl6pH/7EShe740EcRymxUahS3A9nrIZFd5jMGFJEXMKaTHnsHelcM0OgLuNZY6BkeGYGKcWmhbarDBehLf/tCNZVVyONC92O9VtqYqKRWzb7ohu1uaCO/fqetlMFQIuiKWU+aZe6D5/0UI8NHgwbDYbNm/ahO/37ce333wDg8F7LHKWdzDQpq4F4kKC0LlzW0RGR6Bn61Rce3MvBBFpxtlY9/FjZ7BsxSbs//OYZPO1VCnROzgYT6ojES5nSzQ08zxezC3AVyLVxcpYLcJbdKyhkwBZrElGUBgTMG6d9ZgKc5FzcC8q8jIlr7V6hyiZDK8lqhHnA7A1rxSp1fmz8gqsKGZGsS20y7hO5OQ3AhwTUMmtYSFYkBgnTJtvtcJcj0UvvjSUs7EIbO3F/GL8bbb6LCUyruM1iGtPsABsXw5/r7H2+MTGc+qLdyVN+9Gn29G12/noHpFq2202FBUXY+Xy5Vi/dh2sVt+EtyQpBqCVQoHBlKIok+HHCiN2GCpgvEgjUmEKOWYM74/et/RCULBSyMd3VpB14q9j6D92MSwSNy1Eir00IQ69QoMgY7kZr/WwLA4efc5kosJNcSARe0d16gPOCddwSEQ0ohKZuIzqvCZ0IUshybI06T9q1Qe7OzwYwyTwLEh9Xz1p/36ZQSi8ZBEeyLPyjvZcikb3GsfhWZZOPYOD8MZZNh1Cn6RioMYulDVDOw6CAfYVt2pEckvEtL0CofHnc8cbmp3owspQnI+SjBMoP3YIPCOR8oCHBmLhkiUul1Pl9AuLivDf8eNIO5MGY0WFUMjjcNhRYTQiKzMLGRkZSE9LQ0Z6Ouxe3O1Q5eLT6ijcFREGwiWpfl9Grye9o0ctFhwxWZBrd+CT8nIU1EOVaK8ubTH4nutxMrsAB/b9gv2HT3j0CgTJZOjWPAlX9roC4eEhaJuciDad2kClUoieDF99/V289dEeSbjx5NyHRIZjUFQE4ryEbXi/pAzzC4pdb5o4GSLadoci3Hl2WVBIOCLiNVB4QkLC8yg89jvy/vjOY1x6AhF5JTEGzSTAiXj0kCV0equ4HNvEQmHnxuOzK6zW1lyyRjdTxmEayzzEiL4lWSM0zbFYYPPZnpdldt+3Ifq9N4vK8I2J0Ja9F+K2TOx6LaKaXCb6BfR+Ns9GsFktqCjKR0U1sCdzTjoq0o6iRlWOi+HDwsKwaesH6NSpk2cK1Ool/CjY7ef+/HP0H+zetQv7vv0WR48egc1NNaoCHKbHqXFXZGVaL4uQ4ye8pdcKS/CzyYwcO90t+X6zQjHsOc8Pxh13XgdKFbVb7cg6nYEPNu3ED2f0oGLC2kIbZjVBL7RuipvvvBaJKVooVArJVbPFhaUYM2kpfj0uDXmzfZAKKzXxoFCFL5JLMq029MvMdmvfsOYdoIpzvWOXyeRQ61KhDArx6DtlyM1E5v7tsJulA9PR8yEs+tExkb4wB8vrKdrm1aIyfMEOspcZr89qxqUmJj8PmYOJ6DNOJsPXTSsfSGOHNPiyvAIbyyp8tqtTt+6CmLbdoApjKh4WfZi+bmA2lKO8KBc2s9lpBoI5LxMVpw8zOXqdToflq1agbbt2CAlld7BS1kTO/39XX4M0N5e7I9VReELt+ReQQnRpFpuQEfJ6UQmIWs2XopTLcGXHy7Bg0lOIjouuMTStr9LPVzr7c/UCHoRGqg985M9jmLjwLZzW5zEvJUImw+z4GFwVEoxgGUPRAuPItLLns/PwrZvCwaD4ZIQ2ay86YlhUDCLitaLtnDUwF+fj5OcbmN7t2v1pF/9SgrrBFEktKizBNxVsm1Kex3/p2VmtuCZa7SAe3EYW69HjP9gsBVTEmOmDkmKWOX3dJtdux/o/J9UAACAASURBVHslBuzyUcVqUHQ8YttdgaimVGrguy+IL9btsNtgNpTBUJQP2sGLiaVAD1PWSdiN4hc7iRoNxo0fix49eiA6JgaqoCCEhPgu7Yx2921btobZBRSDTiHHe0mJUPvqYoxqCOwOrCsuxTGLFZSP7Cvor4TwUEwa/TD+d00XKFX+gbglwo493/yM2cs2oJDxOE/fY3LsU+LU0PopJPG70YxH9LkuXz15SDgiL79G7NUUPleogoVLWU/CN1ZjOc7s2iwZ3CxaJsMbmhjQD+GFFvrRnJVfjJ9M4t9lYfvA47v07KzeXLJW21cGbgfAVuj1daoOMTIZ9I0Q0uCUlarFilHmo+N5ROplSLrqFo/hU/350pTl56KipEBy3jDhzpQdPwR7iXjWjVwuxwMP9sPw4cOEpdDlX0RkFGLi4jxKg6tuD9rB977qapcmeiwqAqNia+6OfWVPSqEttdkxK68Qe3wE4UuXorERodjw0gQktUjxlarnxlmzZite3/w5c/ydtiPLNXGCk/fkYrXOAniASIToh5HQnGh8iu8rZDL0TctCtpuL3+grb2Z+X8iOxDwV4kHxFGXenPqCaT97bnmUTrlWGwty9hdayMmT//rLzObkAbybps8azKVotb05cLtZKQC3JWnQRCFHbgPk9nT1EOhovKakHJ+UG31yixAUFYeELr0RrmOnyauPF8RqMsJUVgxjWYlwyemNWIpyYEw/BodJnKw7tUkqHn74Ydxw4w3npgwODkFwSAhCwsIQEhIiWZXPd+7E8CefctqPdqBfpGqR4CQrQ/JEIh2K7HbsLDNgh8GIw+xfLtc7V5kMN155OXr36IA777peiNd7I4UFxViwdD2+PPA787t9W1gonoyORAuJxBkU3jI67JWOnDh+Hbzg0MVkbkExvje6dkwRbXtAEcH+g02OPjgiGhGxiZBJPMmVnDoK/U+7mAlu6PL1HW0c1Izpo2K28OZzIfyVU4j/GFFTefBz0/X6KZRC2Q3g9rGSea/RxqOjSomCBsrrWduI/1msmJBX7BOcd0r5Ctc1h+7qvpDJ2Qk8vHmwYn0pXcxutaIkJxNWDy+XXP44OuwwnDwMW0kuE1lDapMmmDptClJTUqEKOl9IQl9K2uFHqaMFVEY5g3OeO2s2Vq9a5VS1rkEqrE1KFDONbz/nefxjtuKFvALk2Oww+iCzjGL29/boiCFDH0SQSgF1VASCqjGvuVsAbVwy0rLxyDOzkc8YeqQL1SeiIvGImj0HnS6IzQ4eRXbPU4s3lZZjQ6nrzUJI0/YITkiW/LwofEOXsnIJPLJ0Uj2z+wMY89mAzRqSk6cf16HZBchiTId1OPihGTn6NVxTna6NgweBmTDdGM6Pj0Gf0CAUe5H2JvlpetChxOHAyqIy/GKy+OQLKVOokNz7zkoCDy8vxzxYTt0uPI/y4nyYy8t87txrT2YzlKLi1GHYK8Qr7Shk0/qy1rj9jttx++231zmGU4hHqVIJO7Cw8HBERDh/7e67+x4c/OUXp6Z6KjoSz56tvPaJLSUMQr79X4sFVJTybkmZT+L29CMYqlSgaXIiotSRUCgUiAxWollUBOKjIxEeFiIgexIxN+H4lBmMSC8qwZc//40SxkyLHiFBmBoXI0ASsIrJYUeJ3Q7awXsjPxvNmFHguhQ/KCEVoU3bejQFZd+ExyUiNLKySJNFTMX5AlQxi1CK7tva2MqMowss5OQfyspjrsLnOdySnpW1i0uKSUqWB/F/AGACMR8VE437wkNQ7mU4wF/2Igo+giPYWGKAr3IlBI7KnjcLDPQXWmjXbjGWo6wgB456/KGlnaMlLwPm3HTYK8qYzBCtVuOxxx5Bm7Zt0apVK5dxV3JyKlUQgkNDoFSqhGKqa3r0hNFYN+2Nghu00bj1LBoqkyJ+aqS32rCkoBj7jEZYvPODftIQaKZU4vHoCNwZHsoc9yZlbA4eeTYiBfJeKB7/eLZrCA1lZBzC2zDBZ7lUJiRSjcjYRGYe2dNfvQ8jQ1Us3T+u0jQM8m+qJL4/M4/5mZgd9hY5OTknuebNm0fZjKZ/ATCdfwdEhmNYVDiMDbDadUVRGXb7kIKPAMVSb+gnMDXVB72b2NepSJ8Gi9EAwum4UEJzm7JPw5RxnFkFYo9Sq9UYPuJpXHfdtaL9fvnlV0wYN95pO/qZpZBht5DzkMWiA/qxAT0JuqSdll/oNlXQjyq4HHq0OgoDPMRIL7JZUeGj94w2CA9k5bs8USvCohDRrjvgZWU4wTjEJjdnyr7J++N7JjTWFIUcyxJiEOLl3Ykvnj8ljjyTwwwzbEvTZ1HMlKeNkTxVq/sPQFMWRfqGhWJcTESD4XYl9nK6FPvKYHJbQs2ytvNtOESmtkJcx6sR5GOWJkl68DxMhlKYDGUwlVGopOFsF+3mClhy02HKSQMkOAOVSoUePXugefPmuOKKK9C+Q/s6P6DvvLMe695e69RUhKa4NSkRzdykIlY4KkMMdgcvFOxRXLky36MyhYyibZX/R9np9P+Vfwufn/2M/oUIJJSMx3R6MvsrjFhZVIojPriglfSe1GpMGSEbtQloTfciHtzr0lr0FrNP37aZecX4yYVdKI0yon1Pn5yUKQwYro5HSFSM241Z0bHfkf3rHlEzt1cpMT8+ukGwRn1jMGEROzhZZpo+S7joEF6BVI12DzjuOtEVn82rnREXJdyuX0gh8uxtZQZ8UOabjJmqtdDuPbZDT8S1veKCxd5pt0yXqMX6dK+zZPz9jBwWE8r+PQiHuUKSs6/Siy5hKZTz6GOPolmzSgTClStXYe/Xzr+AlJb3eYoW8U5K7umdzLdZvY4h17YZVdZGyxUCkiOlG7rzm0ImV1EZ3iop9cllv6fPz5sUU/qBzGGoq2DSjdwEB2wpLcc6F5evsuBQRLbrCU7CBarY3IR9Q5AIFLN3JkXH/0D2L1+LDYPeIUGYFFs/pD5iyrxTUob3y5grdw+m6bOuOOfkm2h0K3gOT4tNQp+3USmxNIH9koNlTCltKGVrfYlBiLvn+xiDRBkRjeRedyLYC1oyKWup3ZYcRFlBLiwVZbBZ2KravJnPZ315HjZDCUzZZ2AtzPZ4WHLwdDFLJxabiwwCFcfh2yZJCK11fKbdep7V6neoDfqRkXMcwmRyBLvY5ZNf+8dkxoriUuxjzHzx2GguOoZyHLa7+DEUm4vy3fMYsYzExqr6/KDJjKkuyC5kQSHCTp6SG3wpREgSrUmBIqhuaC//75+Q9+f3otMNjQrHPQ0EW35SXhH+MDPeNPLczrTszNvPOfkkrXa4HNxK0RUDSJDLhdvmC3HXnGa14a2SciFjxqcik0Hd4nIkdL1Wct6tL/SgXTvBDhiK8piLWXwxrz/GsJYWwpT5H2xlzLFDSWpQKOJA0yTB0VYXIrAhIpv6FPoORMoVCJXJnSZc0WH383IDNpaWe5xjHymT4fKg/7N3HWBOlFv7nSSbZJPdbN8kW4GlSAdROggKggVRARuIDfXaUbFcrIiKFXvFXq7+VuyiV71YsdCkd9iSzfbdbDY9mf85sy3ZTTLfZJMlIOd5fPZe8s3XZnLyzTnveV+lEC7gQDh1n/CGsMVJP2jh7cb0VMxPZYdLtvYWCydPgIgLy2uCJg1lShWSB46BLEEVk9tHgiSa1EBcScVfP6B253rR8Z7KTkNRjKqURQf3a0AHh9llVRKQgvyK4vLyy9qcfF5e3iiZ17eGZVA6Z32clw12IBZLr+JtKPZ+Y1Vd1KpVW0ek8EzexNOg1Xc/NJJO6/WmYni9HsmVqeI7dhBbUDzcaUfT7o1MsEspMyW0ww8t/En+1x1M6ms5OBiUoU+hhIoodXmwpLoWGxnj9QoOWJKZgbGJKqQq5MKhisJRFEYh517t8eDeGgv2hCmMIYGPpw3SxbJpHHO0wjUtN8ni8wkY72AiPFyCErqBY0HOPlaWoFQhPa9XG8d+yeqVsJbtDTtcCsfh7ZwsIU9zsI327xxTNfM0OJ6784C5bGmbk89BjkZu4C0cxzFhBLv7143KeO+sqke0AxhaQyEMx54ApYRqO+ZdDtGQQjJ2Sx0cVouAlDmsjefhbqiGq6oMVEEbDctTyPFFQWcK54NNmJehSAgZvmlbNw/hFP630ynI5dl8PD6xNoHYUFuNnPtpSVpcmaZDVoeiMXK+RPHd2prYNJfVWLAuxA9H74QEfJBvkJ575QGTO7qJV2L6vLqiBhVBQqycQgndoDGQKWOLmKLiqeSMbEGQZM/nr4kK5hAD5Q3pTOVD0Xi0w/ZBUYx/VYhTjbR2wvtwSUmF6ZU2J0//I9+QU8ZxYCJAvyI1ScDddodREuiqilqUMFZ5scyJ8O6pRYNgOOb4bkuuUjLVabMKlalUpfpPM6+9Cdbtf8FHnEddWH9PRQJWFjTTXftb2UHOYSTL5NAxVPL6z5kc/nllFdjjx36ZJOPwZo4evYKECDo6eeqLqm8XVtaiIQgfE5FqTU/SYJW1CXYf3/bjQG8FFPYap1HjslQdMhUKgYBL7ndiFd4YogiuoLXeUFmL/e7OdBvd5eRb916XacCBr94QZaW8LUOHcXEC1d3gcGFxdT2z2/CBP6m0vPzrDk7euIbjuFEsvYxTq3BbZvdknB+tseC7KJFE0drotJA3/lRo9fnd4uA9HjesNRVw223wRjmZxXKv4qsND4+1Hq5qs1BUFQkktI8yAR+0aBq0rs3r88F8kPeW4vJpEp08neTJyRP+uc0ByWR4O1ePgiCVqS5CD7ldnaCNLzVY8FGjI+JbTVDRoWolxiUm4oKWGH60RYFIvIXItbYFoXMmVI1uEIVrYnuSb90gT2MtGrcFr6ZubUOJ68ey0yRVCEd8AxguJGGjx+rYihCpO5/PO6S0omJToJM35vyHA85lGA86jsM7uVnSXwNZOvdrQxwNV1TURk2BSmsshHH0dCQkxoYDvXXqFJJxO2ywURJSwLcfsY474HPaYTuwDfSF4yVU7vZKSMDH+YEnebfPh8qD7OSTZHKkSHDyVGj0s92B+6rrUO8XwqBE61u52ShM6ExJ3OTzot7TOd1KFB7nm6pFE7F0WifNVnLqVOQzOlGNQWqVwLBIcVo6ybcW/UU7/EXn9zuq6rAhCDqku0/y9rLdcJSFV+oyKuR4Vp8uvPHEg71pseKdMPw/HebIW52O1NraWsH5tK2g0Gi8jwe3mHVB7xgzkRJjZrYfbHY8XMv+6xVu7tnDJiK933DmsmfWfejYzmW3wVJZBjrBsygtRTrOYXEdJWhdTjgrDsBp3s+0pEJFAj7tEK6JByefLlcgkYERkU7jT9TU4zubXaDf7VhtopVxeCNHLzjjjhbudH1NRW3IJCz1dH92BoapVUiXU1gmPNY/FugaWueS6nr8EQQZxyWooCN0TQwTr/572bj1d+GNMpzNSdLgotQkpmeyOxo9UNuAH9nFQvaUmE29W+fV5uTzjMYFMnArWCf8dHY6epHOZAzt+fpGfGplBv8HnUlCUir0Rx+H5LyimM2UxDkcjQ2wW+rhdkX+2hyzCR4CHfvcLsHZu6pNoAKrUEYQ3m8LA1NHHp8PFQfxJE/Y/UxFQqcKSy8PbHO6sMnpRJ3Xh1VNNlACLVxGhqCSrxqzMUQdiNaxeoksLDRoksQk1oSAFr9uzMYwRnZL2vdatzsmtCUP1zTgB3tn+ASFaZohlNHFyQd7hnivB5Ytv4Wl0Ka3mpcN6d1CZc361by6ohZ7WSmGebxWYjZd1MnJF+hzpkCGb1kHvSMjBWMkPDis/fq3u6u6vguYeA4JSSnoddL5kAV59Y1kPh2voWQqEYXZGAQ2ojHeP6IPnw928144yvYFTdAmcRx+6RlIS+vz8QdVxMaoUEIm4wTnTTj2bQ437qiqhtnbLKIh1YiA7WQ/AjZKuFJxUrgq82U1DfgpiAOlsX8ozEE6w1sGtXV6faiOkVbEE7UWrApSHCZTaaAjWoMoVryG2nMKE1q2rAEfRvSovzJBkPyLF6NnaGZpJVgVIvyRNbSGtpN8fnZ+ESf3EocNk12SosWsGDMB3lhZi20usZKP4NPNHDwWGf1HgHDw0TYKyZDqEknrUfz9iEV/B+yluwQpwo4WtBiKP3hylPQF0iuUMHu9+NZqw/uNVpR2EQk2K0mLO7Obi3fIsdd43KJ5qduq6rA+RDXk7z3ywmq30iPs8Plg473C31gZEQh+HoQaWeCuGTCqWxTWqDKbwjXhQqnnJmtwfkr8hGrobfDGKgnIGo+7T2lVVZsv988qKAqMORQAZ0pxT21RMY/VA0H9Lqqsw1aJ4spyVSKMI09Ecn50wzOtfDJEO0BJ1SMW2x1wVpUKHPbBnPyPhbmdnJYpyoRaUlZHkMTsBGVbFS7prRJehgr4PrU24W+nC1TMstflZjqNkX7tlwU5goMnNkiK44cz+nR+eXVIUfo/euRB1VLRQ30SaVujxyP0251HlKfqLPiqqXMoTq7VgdShiEUy1kYhQduB7WGHeSAztVO4LNbzCtf/+5YmvGphq6nhgWqV01G0uyXpGnCSp/+TbzB+xXHcdJYF9VUqBArOWFo45rpg4yZm5iB33ClI0Eov5Q63DhLCtlnq4I1yFWAs9+5Q79ttqRFw9R2N4t/fF+Z0ElY2u5xMDjRW+0LuKS1EQRQ5UoePqkg9gsO/u7pWNIzzQU42CDPvY3DD6x1O3BaCF4bW+0uPXCTJZLALcX0vk2RfLPbp0VoLvgsSrlEkpyG5/8hYDNmpT+vO9XDXhxYWpyzjB7lZoOcsXoxQSWsZOWt4nt/EK+SjSktL25KZASvJ1RsXymXcYyyLo9fmd3MyYwoxItrWz4L88gebn1ytRe8ZF0UteeNxOgSK36b6GmY9SJZ9O9KGbQcodtqwkVQpA42+fKtITL4DsivauG62WXZuRcRlGpkMyjCnUgrx/WZzYFWTXUjGBpMSvCEtGVO04tq4VGRE+POdYd54vy/MFfaL9iiaBU5S94jQNb8HSQ4rs3Kh7TlIanfS2/M+1K/7AZR8DWWzkzS4OI5QNXR/qRi0nDEEyAOrSspNREzWFsIPcPIGg2GAkpN1fkcOsSPLMlOFIopYGUmsPVtvZe6+aMbFXaYoIAHsOtMBkCj2ETu4O1D357edkq/EAvlZvgHGDpj0KrdLNKzRnavRymRIIcSNyKCkwDTXVIHtHZz0NI0a1zGU1K+2OfBQrSXsef+rAiP0cjloj1iTd9Heq3A4+cT8flAbmeQsujQtUjSzbP41ZB90r97OyUBqHCjAtU6y0uPFdSEqmoMthOfxTInZdLX/ZwHPYO/0dJ1Tpd7LARksuzknKREXRcByx9I3tfnLQa+29aKvtq39ZQwcieyh41m7D9quocIEe4wYFLs0sX/gxY27N8LTgbqYIIbv53Yu+69xu+HoAl1CLLaXvlwqEi4nemKgmUmS44RkPcXFCWJJUfGLy6s7weOGqZRYmpUqXBfMKD26srEJr1ma4BEJrH+eb0SuQi4UjB0sHQiK/99UVYddQYAUSUcdi4RuEOcJledp3d8eCQo8kZ0GOkjEi9Eb2qKqOtF73DpfL++7sMxsfj2kk+/Ro4fa53T9BmAYyyJ706bo00VPKyx9BWtT4vbgqspa5gUSH3zRKRd2KYFjq6+Fpbo80ikfuS6KO+CqKUfTnr8DeiSn92pONoaqAxkLaz1uAb54KNol5ppOr+OZchkWpSULNMYpMk6Qn6PVNXh9qPf58Hy9FfsYcdNf5huRk6AQKBHEkrix2j+icCCsN6GQAozjkDr8eHASqoUjnSMl8snRh7LjNWrcmK6LmT+LZN5fNdnwVB17NMPrdvUrq67eGdLJE7VLgSFnJTjMYJlQllyGp/TpoFLsWBg9kGebqkFUraxmHDkVqb0Hszbv1I44ZmoIo33EDvoOeF0OWDb+FBCyoTPW44ZMTNIExqvrPW4QK+OhaPNM1agNMXdKBFLSVE1OngesVEcgERXzA+UwFHI0eb2o72bO/db7QdQNF5prOv3IyBKTkTJ4bOxvGwnybP9LoNEIZbem6zBRwwQujP18W0Z4oKYBP4aof+g4CR6oKCk3UaVgwBeh03tJviHnHo7DHSyrSOQ4QSWqMAiZEsv1LG0erGnAasZFUn8KtQYUm4+0eo6gkpX7th/Bv7PcnBi34X1eWDb92iwt6Ge3ZKTivJRABFWDxwOr72BFnLu2EXPKqtAk4SAjdbQlWekYqlIK39ODFbL5yebAsmYqlQBTZuVB23Og1CVJb8/70LDxp5DV1AQkecOY0Qm1JX2g6F1BSXI6AFhYnw2ef7/YXH5Wxxl0cvKFBsNJPCf7knWqd2boBKKjWNkmhwu3SKDYJImegklnQNuFRE5d+QFBqemIHeQdoNPXjrXwWGoCJjIzSYt7OsB3rV6PAA88ZKxF+5TmO6OsUojPx9roUHasWgmStKOTfXfaTZW12BIkHq/pNRiqTCaG8y5N1+d0oGHj6pB9jFMrcVtmapfGiPbFu1xuXFfJrrDG874rS8zmTgp/nZx8r7S0FI8qsQocmEpFT9aqcXVa7Ij1CSc8z1QjxCFZTVfYT8DLR2rEQdNQWRbp5Ueui+IO2Ep2wFkeSF7WM0GBlfnGgFFsXi/qDlIooivLdfM+zCxjV/zpylj+1yZwQI5cjr7KBOH0qlfIcKxaBUMMnD8VhV0WTPCCk0E3cBTkmtj5j9Y120174SjdFXT7yAn+O12H8XEWqvmo0YaXGpgPmy6vjzuurKKsk8Jf0DRyvjHnJw5ggqlky2V4xZgZU83XcORLwe8ah96nXYIEbWQPD/G+Vx3YdYRFMloepQv9uBtqYN3RuSjqm3wj9H5hQirHp/L/Q8kIA/2upQnvNUZeQa1Wq5GVlSUIoNvtdlRXV8PbhTcaOtnRiZ+KHSckqgXxEqIgpqwbJX81XHN+QMp7wGsN1qBrJPbJlKETuwSUYL3fQqimQ9iv9VoqOnssO11AIMWL0Yvd/TUN+IUxVM0DVV4Ox5hMpuKOawjq5Av1uYt5GX8f64Kf06fHNC7/caMNK9h/0YRppxYNhnHUVNYlBLSjWHB1yd4jFa4R7V50L6J70UAFLB3i7bekp+C81PYf8VjQ40Z3JYG9lbm9WFZbj33uznTDLOMmJCTgqmuuwpAhQ2A0GgUnb7PZUFJSgo8+/Ag/fP8DSzeibchBkIMnVgQtJwNRIZOzV4ITqkKVHIRX/myFArlymfA3Tc4hVS5Dikwm0DmQbJ01iHJVd+HjxUI15Nyf0afHVZUriawsrKjDviD6AcFuGgfs1KalDt66dauLycnnG40TAHzPgWPiEr40RYszYkhWdsDtxhUV7LEpWiQxUPacdh6Iy0aqEY65rmw/XEc4aqRuXUzaW3dtgLuDRuwxahVeNGa3SdZ5iTYgDLNgTCYWQad0Qltjd+KZusaQiJpQ3RLGvl+/fjhu0nE4c9aZUIYQD6fn9+eff8Ybr7+B3buYOQcjWI34JfQjESzdQOLdKcOOA8fFBpnnPzN3fRWsO9eFnOys5ERc0iGRL76y2LYgqCyhkZiRhTz/fLG5/IoQPwCd/7mFkfIPAEzkNGMSlbg9IzVm+FJ6SK4212AfY2lv64oKJs8CqUFFYo1V5Wg6QiEcydZF/RpXjQlNewQlszbTK+T4T64emS0UuuTYTIcAt9C7FivetNhCVqgmKJUYMnQI1v4ZGKIq6l2E2++4A/n5ecKpncVcLheWL38Mq74SpD7jylT6AmgK+3fLnOylu+EwhVaCetGQjrxuwOlLWex/rXYsr5cgmOTD1OIK03+ZnTwVRXmdro0c0JdlYoUKuVAUFUtSn//Z7HhIokqUOtOInicyKRp2WqbTakGdmXRIj9jB3gEqR2/c9nuATCC5uReM2Ti2VdOAB0xuJwOd18FZTaPPh+fqrFhtd4ScI7EwXn/D9Tj11FPgIZZIlws+n084sdN/rdJ8Ulfw008/45mnnkZFRYXUS2PWXpWdD02PATHr37/jxu1/wmMJjo/vQTJ/BqYC/26Za+sgiypqsZWx2I10XrLKjYa1WBs0KRWyfjc/J+cZjseVLCujmM7rxkykxVAOsNbrE4h6SM9SivWYNheJGXoplwhtfR4PKvfvkHzdkQuivwOCms+mXzphnE9L0mKpH5SywuUS6ALizUgV6s7q+pDyfK3zPf+C+bj44jZBn6gug+L19y69D+vXrYPDcfDVy0jqTzdkArgY88RQ3Uv92u+CCtDQBp+ZpMGCOCIkoznVeb2YWx4IGw77MHD4othkOjVUm5BOviA7Zxzk+Jn1SbsoRYs5MYzLU2EAse1J5ZdPP2qEIP8XidWU7IHbefC/EJHM/XC7xrrnb7hrAukmqIDl63yq5myO68Yjf43J48FtVfWo8BPrDnZvJh9/PG6+5SYQWiZWRm8FO3fuxJuvv4lffw1N1CU2PieXQ52aCXlCAty2JrisDSBnKtUUqVlI7jOc1MOlXsrcPhg1hv/Fd2WkYFSMFe6YJ9vS8He7E0tqGtgv4/DvYpPpAclOnlSjCoxGM8Bls4yml8vwkjED8phF5oEvrXY8LSVORQRRqZnodfJ8liV0amOpMgsKUEfs4O8AvW7Ta3dHuyMzDbN1zSo+JLBhi8DZxGp1VOVJDJFiJVr9BwzAk089CUU3Qfgof1FZWYWVK1fCVFYmQC6dTif+6pAHoH2hn09jfg+k5uRh4MiJ0PY+CjKVKiBhSj8eRM1dvHkDijf+gar9e9BYZRbfVo4TQjaqrEA5R/EL2Vs07vgLnjDf4TeNmciIYQSCfabtLV9tsOJ9CbBansO0EpPpm0icPAqMxvcAbg7rRJ/Xp6MghhQHVDhCXDYOiW/kPaefD3V6Fusy2to5rBbUH4nLS963WF3QsOF/8LkChaCP06jxpKH53lo8HjTGCbUBYcM/bLSJOniad3pGBv7vvXehiDD5p9OlICU9XYjZyICKwgAAIABJREFUOx0OVJjLmWs8WuUri4uLceH8CzvduukLFiJ3+Eh2/VVi2HS7sH/TOqx+6QlxLQaOg7bPcChTpX8/xZ4z0nElauGOz0zrdUT1sCwrvqpcaW43VtZhmwRFPBfvyzabzVUROfl8Q86VHIdnxDaz9fNrU5MxPUk6ZJG1f2r3XF0jPguiExmuj8TsXPSYcraUYYS2bqcdtaX7wccZha3khRwmFzTt3QRXtSlgNUSO921BjlCg0+Txot4XmSZwtLaI3iSeq2/EDzYnM0U2jd2rqAiPPvoIUtPYnQ5h5TOys6HRaAOmT47b2tiIJmsjbE1ssnFbtm7F1Vdc1WkbzrppKXS9j4poe2wN9di2+hts/Ppj+MJUI5OAd1LvYVBEmW7Y02SBlRL2Id7u7s9MwbAObKYRLTSKF9V6vbiovEaQj2QxHvi2pNx0Yri2YYNh+QbDsRwnIyglk03SqHBzegpT20gb/U1SZzUN0rg+OA5Fp14IZbI0BXZ6MKuLd8PXhQrCSNd55LrOO+CsKoNt3+ZOH1yTqsOC9BQ4vF7UHERqgyqvF/dUN4gmWEPd21mzZ+Pqazo72mDtZTIZjHn5UKkCKZc7tnW7XagoL4fb5QpLuvfbb79h8a2LOw01d/GDSCzs1aXH8cCm9Vj9ypNw2cKU6HMcdANGg/Reo2UO837Yi4ODJ9JkMryZE9tK/UjW8U6DFW9KCNX4wJ9UWl4eFiMb1skL/PIOZyU4jkk0VSfj8I4xM2KoF8umENXqxeaaoBV04a4nce/U3lIlxnjUFO+Bu0OIgGWeR9pEfwe89iZYNnXGAlAV5jcFOSB3RyyLB8N+tjkEjvdQlMEsc1IkJOC22xZj0uRJos2NeXlITNSItqMGdLJ32O2or60RqA+C2ddfr8KDyzrn7i5Y8jgSDLlM44RrVGc24b/PPggS5QllMrUGusHjo+Y/LFvWwNsUPIE5Qq3EPZmxq+2JZMOIWp0QhGWM9UCCaLdWk7d79+7AGGaHwUXT2vlG42McuIWsk74jXYcxMSb6eaneio+s0vg+knJ7If+401mX0dausdos6LwesTjYAZ4XdF99rs6Ip6cNmRiTqEZFNxdENfl4fGW14XVLk2j8XSGTwSOSGE5LS8Mzzz0jUBWEsmRdCrL0nWHBf/z+Ox5etgzr1q2DXKHAvPnzce3ChUhNbQ4BkbMnJ99QVweH3RZwsn//vffx7DPPdhryogdfgDyVqSZS9AFpqKrAqqfuhyWMo09Iy0ZS76FAFythiaeG+GpC2QU6Dc5uSdiLTrybGhS7Pbihsg42dmrhH4rN5VM68sd3nK6ok9fr9dkqmZywa0z1x4OUCjzUgQY22ntECkBnmapFv1T+41JSqs8Z/4JcLS1n4LLbUHtERCTatzDi/hwVxbAf2Nbp+llJWizOShPEqiXm5SOeC+GZb6qsQ7mXuFLD28D+QzD4zHn44P5bRMW0x44bi/vuD00dlV/YA1QZ628/rl6NeeecIxRQ+Rv9WPzy++/QaAPj9oSmMQvImuYcxksrXsLbb73daRGXPPUWOGX4kJCUDaw1leLzh26Hyx4qV8AheeAoKLRdC/s6zPtgLw4QSAqY5jP6NPRMYCLalbK8LrX93mbHIxIKPnkeS0vMpjvFBhV18qTDkW80rufAMcU6kmUcntanI4ux9FpsgqE+v7OqHn85O3HxhO0uc/AYZA0eI2lIAW5GIiJxBM2TtIDDrDHvcaNhw+pOqI1UmUwQ+G7yeiQlPCPZHpKy+7ixCZ822dEYhHjLv8/0ZB1Gn3MJckaMFk6nu779DKs/eEN0WKp8PW3maZ3apaSmIiOrM6r5gnnzsOqrr4L2+9Szz2LO2Z2BB/RsNzU2otFiwX333ofPPv004HqiI77g+fdF5yq1QfHm9fju+UeCEgDKk9OQ3O+YrjFTUuJ551oQg2kwy1fI8byBZEtZ3J/U1UXefnFVHTY42cONbvDHlJeXrxUbkWmVBTk5r4HHBWKd0efU4ZIMHY6JoZAIjfOptQnP17MhB1rnrdSlo+f0eZBJhKrVlO6F2xE8lsmyJ0faRHEHSEhk6+/wBIm1LkpPwVSNGpHxOorPkQSzqzwe3FpdjyqR4ia5TIajho3E6AULQcVDbebz4aeHb8eOvcG5zVvb5eTk4IUVLyApqbkGoNXSMjKRlt45fDJs0CCYy4NrE19x1VW46557wi7wyssvxxeffR44llKJWU91Pt2L75R4izXvv4HN//0ssKFMjtThkwP3S7yrTi2ECum/f4bPHTxUTaIppyez5TMiGD6iS8weDy42h5Ym7NgpD+wsKTf1YxmMzckbDLPByZh/0iclqnBzRtdet8Qmb/Z4hQSsFCNJQKI5UOmkoWxIQISERI5YfOyAbf9WOCs78wr1USrwaFYaFDGooPzN7sQnVhu2ON2iYcKU1HSMP/siGIYeG9Rh+RwOfHb/LagKE5umnSa2ybuX3B2w6UqVCnkFnUn3xo8ejd27gv9wLLrlFiy6+eawN2/+eXOx+n//C2iTl5qG6Q++GJObvu6Lj7Du03cC+lbpC6EpjAyu6d9RKA0CaqPmODyenRbTep5INuzNBivekYCq4XluUYm57FGWsZicvF6v16o4uQkcmPBNCg54W9BLZGPLY5losDZ3V9fjD4e0kI3h2ClI6zNE0pBNdTVorGGo4JPU65HGke5AKOpYCtk8r8+AjlQuomCE5NrsdONNixX7GXjfZTI5+g4YgjGXLIRcE/6kWL7ud3z94qPwiiTZHnzoQYwcNTJgNfk9eoIw8v521+2344XnOim/CU0++uQTjB0fXgNo5qkzsGFdIB1vn8IiHLc4ZLV8xDtsb7Tgw3tuhMPv4ERYed2gsZApu07rIAh2d5CMbJ0sccc/np0u8OLHixF3/C1V9djOWABFeu4c7xtVbDZvZVkD80oL9DlPQIZrWTqlNgtSknBmjF+JdrpcWFgp7YRNlXVFJ5/PugyhHeF7a00HJF1zpHHsdoCK0wQhkQ6YeHqYn9VnoZdSJuo8w82OeJKermsUDhAkesHCyqJNSMDJNyyBrrAnODmDDAPPY8dHb+KnbzqELDpMbPjw4Vj++PKAf83M1kOXEvimXF9fj8kTJqDcFAhRXLpsGS5ZsACEqw9nkydMxN49gXS8A0aMxdjLro/6jfz88Xth3rYxoF9t0VAoMwxdHouQVw0bfgzBYg8hnHd9OtNZtctzYe2ApE2pAIqZOx7YYfe4j6mqqmLSBmR28vmG/GM5zkuYJKZU+0BVApZlpsbk1bl18ygBdnVlLSh0I8V6nnQ+1GnsZdReN8kBhs7USxn7SNvo7ICteAec5kDtV+r5tCQN/p2RKlnvlZz5TzYnNjhd+MPhhFsMLtOyDHKdfUeMxvAZZ0FrzJe0OJfVgi8eWIyaqvAUwItuWoRTTm3XLNZok2DI6Sx+Tciat954Awf27xec+qTjj8dxk8Qx95SAHXn0CFR2oCIePmUGRsyJjPcp1EaYd+/AV0/cA68fCkiuSUZy/5FsP44iOyxGSPZQVioGqQKRSZJuWgwav9FgxbsSQjU+Hg+Xmk3h429+82R28rm5uRlyH08MUT1Z1qnhOKwwZMSUfpi+h0tr6rHGLi1kQwgbQtpIscq92+GLE14UKfM+XNtSyTolYNGBcoIe6K/zjODhDXsCp9O5w8cLFbKP1zZiu1s6STFxzYyZMgP9Tj83YibF+r/X4qPnHhJ440NZSkoKXnntFaS3JFwJDtyjqHfUiobcbjdGjzhG0If1t4mnzELf086J2iNECLXPly9BxS7/KAMHbd/ocdfY9m+Bs7I06JxJaOYVfTPHT7wYnd5nl1WJ5nn85uvzcOgZTMs11JqkrJbLz8l5lWNE2dCAF+i0OFsXiM+N9ub+bHPi/loJtJwANPoCFB4/S9IXkyr17I3SJAijvdYj/bXvgICg2PxbUHHmEzSJWJqVhvogFAf73W58bXWg0uvFNpdHCMcwHtoDtl+XlIwpl96A9H4DJT1Hwe7h2ndexvr/ha5MJ6d0xVVXYs6c2W2Xp6SlIyMzMyqPBBVIjR05CrU1gUCGk+ZcgNwpIWnKJY/993df4Y/3Xgm4TpmRA23RYMl9hbqgYeNqkKZrMJuZlIjLU5mK96M2H7GOfrY7BcFuZuPxfbHZdAJz+xbEI3P73OzsoXK5gnCZTBlVlZCAzYRGJB7IPIEgDSl+el55tSSaA9J97T1zAWQK9mKII4yUXblLsbk2nKxbhkyOE7UqEIFZmdeDvx1uVBClbiQevcP0e/Tqg8nX3SG5sC7ULtgqy/Hx0ptgD0OfodUm4a3/vNlWvUrhGErAskoBhrsDFosFE8eMRV1d4CHmjAULkXHsuKjcPCoqXHn/rbBU+sE8ZbJmvhpNdByvu6Ea1h3BYeN0mr0zQ4dRMYZ2S92sh2sbBDI7duP/VVxe/gJ7+2ZYuyTLN+b8xAHhU/V+Pd6crsOkGNMcrKhvxMdWaTj23PGnQlfApG4orIaUoigu30rNKmnTjjSOyQ7wXi/o5EYFUt1lI8dOwoCzL4ZCYuW02Pyqfv4On7z5fNhmp8w4FYsW3djWRp+TA3L+XbWamhocP2EiKHnrb3PueAQpeZFpJHec01+fvY8Nn78X8M8qYy9o8vt0dfpt11u2/QFviLdtQvy9Ysho0wSO2qBd6MjLA2eZqmBnpTEgN8RhoMlk2i5lWMlOPi8n5xoZjydZBxmfqMLiGGPmNztdWFxdDypWYTV1hgE9p53H2lygGyZGSkrC/tOM+LipTNxtqYUq3QCVoUfXKhKjuIH20l1wmPZGscfgXdEXZczJs9B/xlkxWTsdHr5dvgTFO7eEXAuFZ15++SWkpDYjaxI1Whhzu04eVmE2Y8qkyaATfaslyGSYvfRJaDOlS2d2XEDVgX34ZNktARz3QrJ14JioxccJVUPc8aF+8IeoEvBAlrT6mFg/VG83WPG2hIQrz2NNidk0NiR0KMSEJTv5AoNhIDjZ36xcNhQQ+SA3EwldJBwKt+EkknxFRS1IB1aK9T79UiSwviryPGrL9sPlkEaMJmU+8dq2cfcGeGqbESCkyUlIiGhSwnZl3V6HrZmZkv00JHk4Gcdh2vmXI3ecpFCo5HGqNq/Dp08tC5sjmDtvLhZcuqCt79z8Aqi6KBlYWlKK6VOmoLGxsa1fjVKFM5Y8jsT0rsf9//vicuxf+1vAfmh6DYIqs+s/UK2duuurYd1JOP/gJ70HslIwRISWWfIN68IFTQSblMamy/vkstGlpaXM1O+t05Ps5Cken2/MWc0BzMG6U7WJuDItOnG3UPv6Yl0jVkoUE8mdcBp0+b2Zb1VDRSnsjRKSJMw9x2/DYNWDmcPGQ5acKYiqxIOF4pmPxtwIInnCeZeiYMIJMRedph+qP194FBvX/x5y6oToefX1V5GX1yyZp01Kgt7YGU4pZe379u7FKdOmo8lPYCQ5OQWn3/kIVDp2EZNgY5p2bsXXTywVwp2tRuIgSX1HRPWNKJigTOt4WXIZXjNmxBVXzV8tOq6s4G+e5zeXmMsjylBH4uSJBnVEArg1RF7G8jARnPIFQzoyYkhaJiiqmGtB1WOsJlXku6mhhk27knUCh0A76651cNcFKoul9RmGjCFjUVe2P25gpU27N8JVG/2q5ElnzkXvadIpqiO9tfaaKqy89yY02ULzMp039zxcetmlwhCUeM0tKIxYOpD62LljJ2aecgpstva31JQsA2YufgDKDqpTUtZFydb37loIR0N7QpcKxYTKVpU0Nthw4xLSqn79D0AIGOqERBX+HeOQsZR9obb3VtfjVwnV+jyPR0rMppukjkPtI3LydGGB0bgW4I5mGZQGuakbErBSaQ7UadnoedI8liUIbdx2G2r+QbTD9OVpJOEFR6DDSc7rg7yJM+JqP3wet/C67rVKq4AOd/PHTDoJA+bMByeR0I75gQrWkPdh7RvPYf2vgTwy/k0zs7Lw/gftScy0jAykpWdEPOyWzVtw5szT4LC3Qw8zDbk49db7oWAUJgk2+JbV32LNOysCwAoqfT40Bf27DDv1H89RWQL7/tAV/tekJuOkGMuSStn8/W4PrqmolYKNJ0roYWWVlYFlwoyDRuzk8/XGezkZdxvjOOivVOCRbKL3jJ1902TH43XtcUXRkYhjfualUGjYEApUzCHQDkt4WxCdQxw3EJJZm34F7w1MNmsNhSigOgMA1roqWGsq42IV5OjtJTvgqqLS/jBvdJwMyrRsyBK1zUnbIPezz6DhmHj1v6OWGJSyQZ76Wnyw9CZYre2J0I7XL7jsUsyd2wwcIBx9AcEpO/wYUYHV1i1bsGf3bkEsfPSYMZ04b+j69evW4awzZwVw0Rvye+Dkm+6FLMI4dlN9HVbefwvsfqd4Or3rKNkqAbosum/ESrqDuGqCMziSv3nFkA59d/5Qh5k0ZQ2fqLXgW1twLH/QSyPAxvv3E7HP7ZWZ2deToCQoD3MfSzNTMCKGwrkk4jCvvEZScUv2sInIGHCM6LPU2qCmZA/cIYotmDs5RBp6mxph2fJrp9lqsvNROGVO27/Xm4vhsEr4cY3x+r12K6zb18Ln6YA/5jho8o+CMitHiK837dsCV1Xn6kilTIa5D62APPngcZzs/OYz/PhhaN55rVaLt/7zVhtuPj0zC6lp7egROojctGgR3nrttbbdLuzRA9/+8AN0usB1rfntN8w9+xx4/OLmub3746Qb7qJ4UER369sVj+HAX/7PDgdtn2HCj2s0zed2CYn3QwVV0+DzCaf4anaQiM8r48aVlZVReDwiY3bQwXov0Oe8BRnmso48XKXEksyUmPLZPFPXiC8kJGDV6Xr0OPFc5iRQY5UZFJv/J5ir2gRKaHU0jYEqhturL+kNp850IO6QRxRuaiUxo1gwOXa0lLR7bVY0bv2tkxiMUqnCSZffgKxBTJHImD0GjtpqvHf3QricwQtlqBjq1sX/xtSppP4G+FMQk/D8zTcuwltvdv6RGDV6ND5YuTLgRE8UwxfOOz+AWqHv4KOFN5lIrM5Uhs8eWgyKybeaPCkVyUeRGEhkPxqh5uGsKoVtX2jY6R0ZOkEWMl7sU6tN0AKWYDsUDvWovXV7I0Z8dM3JGwwDwMmoxIxpFykB+4Q+HUT3GSur93pxobkWJIrLYnK1RhASSWAM2RC6hlA2/wSzl+2Bo2x3p6Vqc3qhYFJgMpLqB0hcxReESiDu9ope8XdtgKe+c5jpqKHHYPy/bgJiWKXNuh87Pv8AP332fyGb9x8wAE898xRIoISMUDaEtjGZTJh+wgmorOy8Pgrt/LRmDXr3bkeVrfr6a1x28SUB44wcdzyGzL+Cdapt7eg5+Pyxe1C1p71ehxy7bsg4yJTRS7YKA5LmL4mDOIPDmtPkMjyVnY50OZNyqeS1Sr2AYJPnl1fDweaampfo4+8tqSi/Q+pY/u275OTz8vISZV7fLwCGs07iRI0aC2NI9UlVZP+urhN4wFmMHsDCKWchMTO0cLJ/P6QQRZqv/4S4vP3AdjgqOlMs6wr6IXd8Oyti6/7Qya2u/EDcSyW66ipBaJyO5Ga6RA3OWPokEpJjK3jD8lwKX3CPByuX3IAafyoAv4vJYd9z31KMH9eMZiakDVEdUAx++tSpaLIGPzE+88ILmDW7/U3sw/c/wA3XXRcwrYmzzkffEzvLD4rNfdtP3+GXtwIrd9U5vZCYF73K1tY5uBvrYN0WGjbeX5mAB7Niy4Qrth/+n5PozAtSTvE8Ghqd9sK6urqIT/E0fpecPHWQpzdeKpNxzPIxNODTMRbRlbqZUuLyXrer5cTKinCV8hjEV9tQMevU3oNhHDk16GRtDXVorC6P2x9BitcTsVln9koO42eeg34nnxlXN2HL5x/gtzCn+aHDhuHhRx5qC7/Qab6+oQHTTjgB1VWB0FdaGIV5vvn+ewwa3A65fvXlV3D3HYGHxZMvuwE5I6QxtVKY6KN7b0a9qbhtD7kElZBslUVRDLy1c3vJTjjK94W8X/Em87ewshY7Xe31AmIPGs/j0RKzaZFYO7HPu+zk6YeiwJCzCxyKxAZr/fxkrRpXp8UuqWXnfZhTVs0k9kBzSszKQY+pbJSqvM+L6uI98HYjXwrrvka7XdP+rXAFkdlL738s9MMnhByusboCTfWBtLXRnluk/Vm3/wV3ENUgRUICzr1rOVRZXReuiHRuwa7zNtTj1ZubMfHBTKPRCDTEen0z/UBiogaG3FzMnzsX365a1emSwUOG4MtVq5CgbOdUf+zR5Xj80UAlubk33YPE3v0lLeWX997Atu8CRVB0A0aB4vGxMKIx8NpCJ/w/yIktOaKUNf1ud2BJTWi0VJC+XDz4cSXl5X9JGSdY22g4eeQbDFdxnOwp1jcDkml7yZAeU3bK5+sa8SlrApaToe8ZlzOzCtaW7ou7JGNXH4Rg19sP7ICjorMwR/awCcgYcGzIIW0NNbBURb8wqUtr5HnY9m+Hs6r9lOnf39GjJuLoi6/p0hCxunjPVx/hh5WBeqj+Y50560xcc2373MnJ+3w8bl+8GO++3S7EPX7CBNy9dGnAKZ76uWPxbXjDD4VDTuGi5a9BpmWnCa/cvwefP3Qb6DTfagmpWUjqMzyqmPjWvj3W+mY9gRA2JlGFO+KkAKrJx+PKihpR8Xf/pfDAjyXlJsqqs8Wdwzx8UXHyPQyGHl6O28SBYwOcA5iuUeGa9JSux4tCLG63y4VFVQ3MCVgprJSNNRVoqovPk2o0HY2jbA/sQRKvxlEnIrVo0CHl5AUa2p3rO4VpaBEKuRzzH1wBWXJsqTcivTcuayNW3nMDLA3BC70oNv/ue+8iO7sZnqhSqZGT36xSRQyTlIjNyMiAwWAISk185eWX44vPPm+bXopSiTlPtf84iM2b8lPfvfgY9q9r56cROI4GjoY8kdkliA3T/jnPw7L9z5CMk+TUFqUnY7Imyole9hkGtPzZ7sCyGgs7tJuHWybDkP0S2SZDTS8qTl4I2egNT0AmYz4KJXAQMt8FCUzMCJK3l+g7r66oRTmjNGBq0RAYRzXD0cTM2dSIuvLgJ0Kxaw+lz52VJbAFqSTMmzgTyXmho3PxdpIniKdl0y8hURgFvfrixFvui99bQ5w2rz6Fjb+T+mZwu+jiizD/gmapPnL6RFxGsEoWO2vWbPz+W7uDLsgtwIl3BoZvwvWz64+f8eMrTwbkYRILj4JaHx2a4o5jUwV242aCvwbPi6k4Dk9mpyE/Rr6FZU/920iPxfNfl5jLT5I6TqydPBEmJco83n3gOGZu0llJibgkhkotb1ms+I+FjTVSk5WLghNmM+F46ZW0at8O8Oy/zdG6X93aj6u2Ak27NwSOyclQMHkWtIbQeqbx5uTpbYTeSkLZiCkzMDzKWqbRvlF2Uwk+uO9mOP0KlvzHIEjkipdXtP1TKB3YYPOaOHacoAvbakcdOw7jFyxkWgIVwa1c9m9Yq9t1amVqLXQDRoJTxEZLleT9SOYvlNHB8Rl9GuQxixMwbY3QSHIVPgAv7zu7zGwOJN9nH7JTy2id5IWO84w5T8iAa1nnQ2h5YoeLFXGZzefDWSa2BKwiMQlFp14IWQLbg1m9fxc8Hmnasqz7Ei/tvE0WWLYEUsSyQE7jycmH4t/x3+PpV9yMvGGhcwzxcj/WvfEs1v3yQ9Dp0On94UcfxogRI9o+N+blIzFRPGTRt2cvOP2KrsZOORUD5lzAtOx1X36MdZ/8J6Bt8oBRUMQo2UoDWbb+Aa81tBTnTWnJmKwVXzfTArvQiGLxN1TWooQxmkBD+YCdpeWmAeTruzB0wKVRdfIF6YYBUMk2syZgaSbEEEfqUfIYieveW92AXx0M8loch14nz4cqhY3oicI1FLY5nM3nsKGhA1c7SSYWTj0H6rSskEuPJyffzDf/S9BYfOsCtOpE9JtwAgZMPgnqjOiW3Ufz+ajduxOfLb8bJLwdzPIL8rHipRVQtYRpWGiIa2trMXxQIIPtCRdciZ5jJ4tOvXLfbnz28B1tVcV0gTIrD9qeA0WvjbSBp6lBIM0LZQTqeMOYEdOqeta5/2hz4OFaixRv7fLyvullZnPwX3LWgTu0i6qTp77zDTnPcByuZJ2PRsZheVZazGLz3zbZ8RgjaVnmkHHIGjSKaerxDBNkWgBDo2aCsl8CvsT0pkMVwsrk0LC4eHLyRD8sFD4xmCohAZNmngvjuOOh6ALFLsNQETWht5JP77kRVWYiYOtshIFf/vhyDB06VPhQIC7r2SusDuymTZtw6rTpbZ3JORlOvvpW6AeJ1zd++fhSmLaRflCLkWbroLGQq9lROVI3wrrnb7hr/HRiO3QwMVGFW+MAVWPz8biovBqNjJX3Lcv4y8PhOJPJxBZjZty8qDv53NzcPLmPJ2wnc2z+GLUS92TGBktb5vbg0orgDHUd90iZkoGiU9heU4ldr0FgOzx8TSB/2vIreD+BablSLbzxhGPujCcn76woge1AaBrajnePHGNGtgHDjj8ZPSa1O794ucsN2zbh/cfvCTmd02aehutvuL7tc3ViInLyQudPvvj8C1x52WVt7RUJSsy8+V6kFfQMu+Tdf/yK1a8+GZD81PYaDGVm1wRMwg3Ke1ywbF4Dnyu0WM3CtGScGAehmjcarHhXgrQfrdsHfl5peTk7rInxoYy6k6eiunyD4SWOk13EOAehGWFaCdsabaPk6FXmWuxnjIv1OeNfTBzaTptVIOU6nI2Y/Sxb1gSgUuSqRBTNuAjk7ENZPDl5gcJg13rJt4m+GLmGXAw7cx4Mg4cDUSbWkjwhvwu+vu9mlBYHr/SkGPzb77yNND9GSnLy5OyD2XPPPosH7m1HFqnUiZhzx8NQh9F2tVRV4P07rwtw8IrkNCQfdWxMMPGt83bXVcIa5l5Sju8VYwayImTO7Mo98b/WwfP4l7kGlexMkxRpLsbjAAAgAElEQVSL/7W03DReqn4ry5xj4eSRm5ubIffy5eBAEq9MNlhFPBOxEdr9zebA0lq2arOC4+eERY60LsbrcqGqeBfT2g7VRgRRo4IT/6pChVqL3jMXgAvzRYonJ+912tBIIacQqkFi94ZCIJmZeky56hZoDNHTJBUbN9znu775BKs/fCtkk1mzZ+Hqa65u+zxZl4KslorYjhfdfONN+L932hOniUnJOO++Z8GF0Y396e0V2PHjNwFdJfcfBUWYEF5X1tt6rUBG1kHAxr/fcWolbotRREDK/B+TyBfPg/eA404pMZkCN1XKoGHaxsTJ03h5BsOdMk52N2sSliZyS1oyJsbgVcvD85hL8TGfOP2bfsQkpPcTp5klp1Gxb3tMBaSjdI8j7obnfWjcRkiGdn6khKQU9D4tkLGw4wDx5OTph8q6Yy08jaHRGCwbpJDJ0XvQMAw6bhpSGeLVLH1G2oZoiP9v8ZUhpS6p6On5F59HSkoz0ZqAmy8ohNKPyoD+nURFiEf+11+IY7DZCnPyMfWu5SGnVrZ9M75+8r6API3K0AOagn6RLofpOrelFtbtf4ZsSzyTD2WlYoCKDR3HNGgEjbY53bixStqzxgMbHR73+KqqKkkcxKzTi5mTL9Tre/IyOdEQMx/P6Ua9HgNIJbn2W6vqsImBmTK1aDCMo4KTb3Xc1H+CgEjj9j8DVHfUGQb0nNasSBTK4snJC86MEshUPBMlyOugwSMw9PzLoU7WMdVVsH4ZpbTb+N6r+PO7L4NeQk79/mX3Y/SY0W2fJ2o0MOY2i3+3mt1ux+zTz8DmTe2aASOPPwlDzr44aL8CJv7+WwOUwGRKtVDZKkuIfqjVfxKhyPJa2xgVcjyZnQ6tLGYuTfT2kJ+5v7oBv7Cg+Vp74zg3XPIxxdXF5CtjYrHcEa7AaLwV4O6XMvNzkjWYnxL9UugV9Y342Bo6YdM6R3W6AT2nh3dirW3/CQibpj1/w+WHZkjKLUL+cTMPKSdPkyUopXXXBvjs0YG9qpQq5PYbiFEnnQltUWxPscE221lfiw/vvh42P2EO/3YFhYV49bVXBNZJMvqbQ1Wwfqf5+vp6zDjpJBQfaK/ePmPBtcg4Njj53NrP3seGL94PqGyNdbK1dU0NG1YLP9ahbKJahVsyY0eTwuLDfrE5sKzWwkyMSH3ywDsl5SY2h8MyiSBtYunkhWcr32DcwHFcIBA3zGTVLXQHuVEuSV5rd+KOGnFaZtKf7Df7SqYTmqupEbWHOb2BrXgnnOb2JB/Lm068neRbHzcKP9mLd4DoGoLpukbyHSIO96HDRqLn1BlI6xl9zvRQc+K9Xqx+ehl2bw0ND73n3qWYMIFyec2WlKxDtqGdZdNsNmPKcZPQ2Nj8w0e1Khc88jJkSZ05fMp2bMXXj90d4OATUrOR1GdYTJOtNC9XjQlNezorlPnvzdKMFIyIAXCD9Zmw+HxYWFELs4RkK71kynzecfsrKiKW9mOZX6ydPPL0OZcQ6STLZFrb9E1Q4KHsNCijWCBF1a+zTWykYgVTzoY2WzzJ5vN5Ubm3XQFHyhoPlbYkGkLiIa2WPnAU9EObRSpCWbw6eWG+PA+vvQlNu9cLp/toWYIiAdm5BTj+0oXdRldcsfY3fPZi6Pj52HFjcd/9gZw8dJpXtyRVN/39N2acdHKb487QpeKMh9upEVr3hmg8Pnv4TlTt2xmwXckDx0ChjR1lePP98qF+/f9CarhSE71cjpcMaSCM/8GyDyxNeNXSJInoxAf+xdLy8n/FAlHjvw8xd/J6vV6r5uS/8hyGsN4ABQfcnJ6C8VH+Zb61sg5/u8SZOzMGjET2sPYTUMh58zyq9u+E91CQvGPd/A7tOvLXZA0dj8yBIw9dJ98yc0rIkj6os/xAWNy11G1TyBXoPWAIikaOh/GYcTGVEaQ1fL7kRlSYy4JOU6PV4PXXX0dmVmbb59qkZOiNzSpor73yKu66/fa2zwqPGoSp19/Vqa8/Pvk//P3lhwG+SJ1ThMS8dglBqfvE2p4S5o3bKOEaGjQxX6fBObroh3g7ztHN89jpcuOAxwuHjwdBJekEX+v1YY3dCXY5EGE1JbxcNqy0tJStiId1w4K0i7mTpzELUwp78hr3NmJBZZ1rIscJ5cnaKGptftJowwsN4glsZUomik5pZvQTs5qSvXA7xWP9Yv3E6+cdebv1R09C+lHh0UdxfZLvsNEUwiF1IXL2vFf8ACDlPukzMnHClf+GWm9g5kSS0j+1Lfnlf/jmjWdCusBx48dj6b33CAgbMo4I5nr2FKpgSdeV9F1bbdjEqThmbnthFP17+e7t+OLhQNUouUYH3SBpqlFS19XansJrDnNnTYPWz+lt/+GsVPRRMqO1maZCGtHkxGs9XnxotWG9w4U6XxQpCXncU2w2df5FZZqdtEbd4uQp3JdvyHmL48Amv9SyhmkaNa5N10WNS26Py40bqupDQs9at04o+Dn1QtBfMaszFcMZRp1G7Pp4/5xCGxbir2mx7OHHIaN/OwlWsPkfSk6+df682wVXXQXspbvChgak3i8Zx0Gf1wO9R4xG3ykzwCVE1xnZqyvx8f23whaCR4mc+4svvRgg3E3qUZl6PYYOGIimpqa2JU0++yIUHX9ywBI/vv/fqDkQKOau7T0UyvTYK2jRmwolXKkoL5RlymV40ZABdRRCuwS1Ju73dQ4Xij1elLq9IMpyceC11KdCEOj+2OZxXVNTUxP8NUx6lyGv6C4nj7ysrN6yhIS/wINZJZl4oR/NSkWvKP1K13h9uK6yVni9CmdEwtVj2nlMZGWWShNsFmm42Cjev5h3RbDD+nXtfEmHS7gm1MZRQtNu2gNPfRVIDzaaRlJ9o6afAePgo6Ex5kcnYcnzWPPsQ9j8d2iVuHPPOxeXXR54Qm+yO3Dq9EDK8tMXLUFmHyJAhKDwtObDt7D1u3YxEfr3hAw9koqGRXNbQvblNB+ArTh8zmueTovzdJFz5VSQM/d4BUrgtQ4XbNK4Zrq2DzydN/kH+QT5Y7EM23Sbk6fdyM02XiaXcyTlzjyuTsZhhSEDyVEI2zh5HtdX1mG/WyR6RsROAmd6gehNJIUoUoo6XI2Kvur/+rZteVmDxyBzcPhX9UPxJN/x/hEZmKfJAtu+zfBFMRxHD75KrUZ+YRHGz78S8syus166aqrx1uIrQkL36Mfl/Q8/gMZPKel/q1djyZ1Uq9huFy9/FTJtc2zbvGcnvlx+N3x+p2hBlHvAKMgY3nC7+n0Qqq23rAn7Q6vkgHeMmUiMwDfsdLrwYn0TSrweECVw+GNfV1cT9noS1tojd2PG/hpTTFAczM42GssU6A58PL37HyWlv7OTNbggStj5B2sasNouTj2sHzEZ6f3Emfj+CSpRdX9+0wY5TB8wEnqRpPTh4ORbn0/6kXPXV8JVXS78jabJZTIU9R2A/JET0GPkeHCMWgbB5kBwyl2b1oWc3ikzTsWNN97QFpt/7tnn8N7/tetS9CrsheMXPyhc31Rfhy8fW4KGDglddW5vJOaGVgSL5t7QD6x12x8h1Z9orLFqJW6XQGOw3eXGBocL/7XZUe7xxSQME/Ee8HyFD/zFpWbzV9FG23SrkxdO83r9aLlMTo6e+ISYjIBRT+vT0CMK8czvmux4lIF6WNejP3LHiitwedxOVHeIWTIt6hBqVL/2+7akZFq/o2EYMSns7A8nJ++/UOLwadzxV3OMOMqv9QkyGcaecDJ6nHoWFEoVOImn05I1q7Hq1adD3peU1BQ8/8Lzgs4r2U2LbsJff7aHeKbOmofCE2cKHD//fXE5DqwPFMmWa3VIHjC67Uci1o+vde9muKvDh6uvT0vGVBEaFEqg7nN78EBNAyqkYdhjvcRO/fOA1c37RpnNZnbaVIZZdruTpznlG4zPcRxH+FBmy1XI8XBWGlLlXcPCVnm9uKC8RnTcBF0aep8qTqRJ71qVe7cFFImIdn6INahf931b8iv9qBHQH33cP9LJC4vmebgbauAw7wuge4jWLVWTCHef/igaPByFE6cxQzA9TY1476ZLYfOGFhS64MILceFFzVTaZ8w8A1TxSkY/MHPufhwavRG7//gFP73+DLz+yU6OQ1Lfo5GQ0g7FjNZ6g/VDuRDL5l9Ff0jfMmYgPQRRXr3Pi/ctNvzpcMHk8R7McIzUrarled/0ErM5NFGPxB4PipMXkrAKxVqAk1RJcVZyIi5M6VyNJ3HNmF9ejWqGX/W+s66CnEEM+XDnsKHEayvvS3r/Y6AfPvGf6+RbV87zcNaUw1m+VyiuioVp1IkYPmka9MNHIzUnH7IOBGMdx9y96hP876PQ7JQEm3zjrTdQVVmFhde1a7imZxlw2u0Poa6iHJ8uWwyeD/yhUKRkIrnv0dFJFDNslG3/Njgr26kWgl1yvEaFRemBGA5CwRxwe/A/mwMrrXbQKf5QNB/4X9Xl5cfvBsTjygwLPChOnuaVq9efIJfJKaPHPAeK7yxOT8EYDTPcPugW3FtTj1/t4vqsrLTD9ZUmOA5jhE39+h9AEEMylkKxwzVcE+xhEhK01no07dscIK7C8N1jbqJQJCA1IwtHDR2BfjPPBVFvBD0BOx348LarYGkMTas9bdo02B12/Lj6x7YuCgcMxdRrFuMTqmrduyOgayIg0w0eB06uYJ5vlxpSon9D+ApX8gMrDOkwKNrntN/lxtP1Vux1ewR8e3da7759MWbsWGgSE0FKW7/+3A45jnAeBNx8saS5GrbLxuxguzxS5w4IO/8Rx+E0KX1T2GZ5dlqX0Db/sVjxlkW8pD1r+ERk9j9GdHq2+hpYqs2i7Q7VBnV//Zcwdc1OfuAoZB/KtAYxugkEvXRWlcBVY4a3SZwjKdJpKBUJ6NV/MHKOHo3cPgOgyvITYON5/PLicmxbF5oKJSkpCcQ+6fUL60yccRYq6uuw46d2FFXr/BLz+kCd0yvS6Uq7jucFjhpXbWh5P+qwKEEh+AByXn84nPja6sB6p0uKlqq0eQVp3bOoCHPnzcXZ556L5OTkgFyF2+XGzl078e7b/8G336xCuSn8ekJMxsnzvgnRCNscTCePAn1BL8g8RIjBnISlDRmpVuKuzFT2V4AOu/iTzYEHai2i2fXkwn7IG3eK6APhsjWh1hS6Kk+0gzhvUPfHqrYZZg4ag6whhz+Esiu3xEPc57s3NierY3iqpC9vfm4+xp97OdQ9iyCTy1G1eT0+eXoZ8/Spj6mz5+O/H70l8Mv7G0EmU4ZOlJwEZh68Q0N3Q7XA/S9mp2nVmJmswZ3VDShjVHwT65P1c7lCgVmzZ+O+B5Z14ucP1geJrj/60MN48fnnA35YGcd7u7jcNI+xbchmB9XJ06zyc3IuAo8XOUDS++CVqUk4NUkT0fq3O91YVFUnmozRZOWi4ITZooyUHpcDRG9ASdjDzchREbqm1TIHj0XW4Hae8mDr/SeFa0Ldb0KpEO8KwS6JIwcRKlOxPE/0JU5KSoahVz9k5Rdi54/foLqFWVLs+lS1Gh65AtamwMIvTiaHtt8IJCQzy0GIDRX2c6IRbtz+V1jlp9YODPRj5vV268mdKJrnXXABzpw9C4MGDZKEMqIfzw3r1+Ou2+/A3xvZROWb18q5OPjGHCgvD42NZdj1g+7k8/LyEmVeHxFohM/mdVhMkozDk9lpAXE5hvUKTaq9XlxsroFHxCcrdemCQIZMBL/sdbtRU7pHqBI83MxrI6RDu3JQ5qDRyBoyNuwyjzj5wO3xuZ1wlO2F21LdXFh1CBwGElKzkNRneOyTrTwPj60RTbs2wucSD6F29/crm+gfhg/DnXffjYIC8eLIcPOzWCy47JIF+P233zq9NYU8LID/uKS8fA5JIkS69oPu5GnihZmZRiQoN/CApPI/UoN5JCsNaRJhlV6ex1mmaoGXIpwRd02vUy6AQh3+jcHn9Qgn+QDYWaR3JMrX0UncYS6GWl8Izi9RxTpMx1fojIEjkT00PEPnEScffHcJX09FPvay3fBam+GL8WhEYqYbMgEyVWix9q7Om950XNWlQpEZQSYpgR1PRkydt995B0aOGgW9Xi/p5B5uHZQPufG66/HF55+xLrfSJ5cdXVpaGjHHTVw4eVptvsFwEcfJXmFdeWu7k7RqXJ2WDE5ihP6u6noBQxvWOA5Fp1wIpS78Kys9sDWle+FxRQXxJHULwrYXCni2UWGLDCpjD6gyc0CICVZzmA/A7scf8k8uhmLdM5Z2XpsFjopiAWsfTdoElrHF2qjz+iBRLNlK+A+ft1kgXTgs8c1/BUIvXghPCZ97PaCkNHgveI8XHnsjPJa65lN7DENYYmsM9nmfvn0x/OjhmHP22Th6xAgoIjgUsYzrdLlw9b+uwDd+DKDhruN536ISs/lRlr6DtYkbJ08BqAJD7nfg+MlSF7NAp8WZEkmKPmq04qUG8dfD3HGnQlfYV3RK5OTdjvijHBb4uEkAueWthZMpkHTU0VAkscVam/Zugqva1LZ+Xc/+yB0TvhL4yEle9HFpb8DzcDVUoWn3xrhwegTP1A0ZD5miRRCbwinWejgqS+GzNcLncbVU/B5EthcJ2yvWlFg6x02YgKX33YeevXpG7cQuNm5VZSUmTzwOjZbQcNfWPnietyWnp6Vt3bpVHPcdZOB4cvLIycnRKHj+D4AbKLZJ/p8nyzgsyUjFUSp2GtddLjeuqxRnj0zvNwL6EeErPGkuDZUm2OMQK+9pakDjtj8CHYhMBmVGLjT5fUJiroX95X3CtR5rOyQwMSsPPaaeFfb2HHHyQbZHOPk2n2qFk23L//b5PIDXKxCBUWjM21DbqRhJynehq221fY4GJ5fDXVchvGV4nfF34u7qGlPT0oQE6tFHj8CYcWORmdk9lbwd5/3Lz7/g/PPOg9fDEKrifRcUm81vRLL2uHLytIACvX4GOPmH4MDusQFoOQ7P6NORrWBDY/p4H04vqxZVc0nMNKDHieI6u031tWisjggPG8l9Y76GUAuWzb+1Vaz6XyhLTBI0OuVCzqHzo0BVrpYtawLCCYrEJPQ+/dKwJ55D18mTI6bwA4UafM0hh4BQhPDLJ4QhaF+pQIySqr6Wv7zb2XadEJ7wUdiiJaQhCthlvqUxayjXJINTKFvoGg4fpBiJmOsNBhQWFuLa66/HsSOPZYI/xmyj/TqmROyqr4iTTMR4fFpsNs0Uaxbs87hz8uRt8gw5i2QciBJP0vxGqBKwNIstDEGbcbG5GmZP+NdOIorqd9a1olhhp82KOtOBSO5BzK+xleyEs7xdjNt/QILKUaw+MbezlBvF8y1bfgtAg7AIqsSrk/d5PPA5m+Bz2AR9V8FRt5ykhRM2FXyRU+ZbHHyLw2+LM7fEnGN+w44MEJUdoFDMtJOm47y58zBw8CCkpaUJiljxZN//9ztcNJ9BhY7nG5VJ2qzdu3dLTvxJcqLdtTmZmZnJGoVyJTgcL3XMk7WJuCw1iUkE/KbKOmxh0HztPXMBEkQEi71uF6oO7JI63W5pT6dR68718DRUhRyPWAbJ0QskVC0qO7bibXCaAzlEBEGVE8+FKjX0K26snbyQzKPTc0t8uM0p0wnc5YDX6RAcuc/taAmNtDjwQwC62C0PxGE8CDnxYcOHg2QPz5s3Dwajodvi7JFsKxVLTZk0Gfv3BT+E+ffp43B3qcm0ROo4cenkaRHp6ek6rUq9lwMypCyKFnRVWhJO1ooXSi2racBPDNzyhVPOgiY7L+w06OW2cs/WuC2IIsfY8PdPbRw0wRfDCYIQSUVDIFNrQOyTwSxv4mlIDiPiHB0nz8Nrt8FjrROKiujk3RwecQnhlDZh5yOOW8rX47BuS1QDL6x4EX369BGqfw8V+/abb7DgQgbGW/AOl8+XWVFRIYkRL26dPN2gAn3uqZDxH0NiNSzJBt6UnoyxieGhgi/WNwpsdWJmHD0dqb2aZdHCGZ3k6UQfr+ZzOQU4JQtkjwipQmGXk/P7IG/CjJDLDOfkfS67wNooOG3CRns9guMWTuAUPvG4mxOPAkvo4RMXjtdn4lCfF9EMzDz9dJx97jk4duTIuAvHsOxvQ0MDpk+ZClOZKBSeB4dpxSZTZ5KhMAPFtZOneefrjfdxMu4Wqfw2KTIZHshKRWFCaLaElY02vNggruOZNXgsMkVK+WmuxF9DPDbxbPbS3XCY9nRxihx6nTI/QAOXYtoUPiGUCDl5a3UFCNnjttTAZ2tqCa3QKfyI4+7i5h+5vGUHjurfH08//5xwcj9YRkRvHo8HCQkJoARvJEa0B5ddcgm+XfUNw+Xc48XlZdczNGxrEvdOnqp48g0573AcwuP2gqw6Wy7D/VlpyAmBuPnV7sC9NeI41dTeQ2AcOUV0XxsqymBvjN9KRloACV5Yd4QWfRZdZEsDdboexO3jdlAi0w6v2wmv0w6vy9lcANPCWsna35F2R3aAdQc0Wi2uW3gtZs05C1nZkorkWYfo1K6qqgq//fIrNm/ehKqqalgbLfC4PThz9mwcc+yxyNZnd+kt4pOVK3HtlVexzK+suNyUL+U191Bw8sjLyMjllKrvOUC8KqnDNg1UEuImFeqWZKL/x6xY+aTcXsg/7nTRG2CtqYS1LnRyU7SDbmhAVLhNe6SQJHXDpI4McWQHGHegV69euGHRjRg4cAAys/XQpQQKhzB2E7IZnco3b94s0AOvX7sWP/24GqUlpWhsbBTybURURlQHZ8yehROnTYNOJ0n3KOS4NpsNI4cfLYwjZrzPO7OkouJTsXatnx8STp4mW6DX9+Jl8j+kJmLp2kKFHE/q05HQwdHX+3w4z1QtulfqND16njRXtJ2toRaWqvjDyrdNnFA2uzZEXZBadGOONDiyA1HYAYPRiOdeeA6pLY49JS0NGZlZUegZIPKwe+5egu++/VaoQiVn35FVtnffPnjx5ZfRo0ePLp3aQ034hoUL8eF774uux8f7vis1m6eynuYPGSdPmPkcvf4sBSd/U2qhFO3aVI0aC9MDOW5Ir312WRUcImFiKhbqe6a4SIvD2oB6c6noTToYDYgEymk+ACeJIx+Ji3e6BYTGIOeRkpoKEr1O0aUIp8RkXTKUCUoh3ipXyCGXySGXyyAT/srByYJ9hTjIOA5UcEcFUfTX5/UJfOLN/3ngdntgs9sEh1JbW4uamlpUV1XB0hA7wZHufu6GDBsqJENp/xKUSqiUSiRqNMKeEi8MxaJra2phsTTgo/c/QJlI4vG666/D6ae3v1Frk5KgN+ZEvCw6Pf/fO+/g888+x8YNG+B2dQZNENZ+4nHHYf5FF2Hy8ZNj4txbF7Dqq6/xr0svFWeo5GHiPa5jS6r9+EbC7MKh5OSFZRTojddBxi0XGLck2inaRPwrLTlAoeTailrsdouXFR919nVCuXc4c9msqI2DgiiBGIpQKl4PXLVmQa3I54jvhLDEWxm0OTldtVoNpUoFJSXCWpwxOWiiie0/YCB69uqBHj17CqXsFNvVarXQaDTCdfSFPthGuOkmq1V4bafT5c6dOwUH9Neff6KuphZenxdCm6YmOOyOmEB2qUCOigCpXkIg/vPbF8q9sB4S5p5/Pu5/8AGmLSU5wgvnzQsrrDFs+DAsf2x5232i+5xXUMjUv38j2tevvvwSd912u6CSFcrS09Ox8MYbcf4F8yNOqkqZ3J49ezDz5FNYQjY+HvzkkvLydg3Hw8nJE7+NnOdf4sCdK2UDqa2CA85J1uI8PzKzR2oa8D0DVr7ntLlQZ/hJrQUZ3O20C5TDB8vIsRN6hrDlBJMUOFIOQxgineAGDBzQ7LR79kBKSgqSkpOFv8RLokvWQZukFRAPdGKk/yJFPhysexlsXHLu9J+tyYbtW7egrKwU9XX1MFeYsfavtdhIghQSwUtU5JecVwRlSiYUSjU4emuh/+QKwdET7bDg8FuepNLVK+FsqGHalqknnogVr77C9ONJoZFLL744LMKEfphXvLwCqampwvj0o9yztzRkzReff47lDz+CPbt3h/2BXHD5ZbhkwQLk5OYyrTUajRwOB46fcJxwX8WM5/FaidkkDq6XShsgNnA3fq7IN+Z8yQEUl5Jsl6RocWayVuBMeNdixRsMeq/GUScitWhQ2LEOZtUrhWOsO9cxYeAlb1g3XUCOOCMzEwaDAboUHdQqNdIzMjBo8GAMGjIYRoNR+Hc6fR8OTrsr22oqLYXDHsiiSnHk6upqrF+/Ac8982zIE6HW2AO6wqOQZOwBhTpRkjBI5cafUbPlD6apjxozGm+/+67wY8tiYkVB9Lb11DNPo3fvorbu8goLoVSqRLuvr6vDA8uWCbqroRTc6Edj6LBhuH7RjZg0WTIZrugcWBrcfcedePXll0WbEjOlyuU07q6tFYUHHvz3U9HlBG9gMBiylJxsOxXHSu2Cgi5XpyZjWlIifrTZ8UCteEY7re9wGI4Jf+NJGapyH6ndSzxOSV1Ah/YUnrFu/0ughD2ULEufjVNOnYFx48cJJ6aslhAKIRhaT9/xEEKJxz0tKy6G0+kIOjWn04nLFlyG4uJASorWxn1nXwm5BE0B/0EctZXY9/VbTFsyYOBAfPzZp0IojMVo3iOGDgtLv7v49sWYOrX9bMeCsNm9ezfOmT1HyHmEk+i8c8kSzJt/PlQq8R8NlvVE0mb7tu2YdsIJTJfyHM4tMZneFWt8yDp5Wlh+dnYRJ1d8RwAasYV2/JwWTo6+l1KO6yvFnSPRGhC9QTijB6hi7zbmmKXUOYdqT6EZy6Zf4g6bnpSUhIGDBqGod2/hFZtO6EcNHCCgE0jhPjExkelVPlr7dDj1U3pgP1xBEoW0RnoOr7v2Omz6e1PQJfedfRXkDKffoBfzPHZ+9EIzBbGI5RfkY9V33wlvXqz29Vdf4fJLFoRsPn36dNzyb6qNbLYknQ7ZekPI9oRtv+mGG1BSUhK0DR0ozjrnbFxy6WXoVdSLdZoxa0f3bt64G/kAACAASURBVNzI0UwhG/B4vbg5ZBP2VHlIO3na6VxD7mQ5x38OQJyspsOtoUjjuTot3rU0iQooytWJLQib8FtWtW+HgJ6IpbXGSlvH8DTWoGHzmvBDUhLNP8bKteStheRaswmnnBbFH5I0ZEmw0YmbEpf0ZaFE5tRp0zBt+jT06NETmVmZMUUjxHKP473vkv37hPh8KHv8sSdABTbBrN+cq0V1i8Otv+SHj2ENwWrqfx3lSH5a85uQK2E1QtxMGD0GpaXB49LZ2dl497132w4HFArK79EzaPckmn3uWWfDGgR7rlKrkZeXhxWvvIIiv/AP6zxj2e7Ky/+FLz4TlwfkeX5Tibn8aCA8Y/oh7+Rps/Ozc07n5PgPgESpm9/m4EQupGRUn9MvE/1y1Jbtg6tDrFTqnMTay/+/veuAj6La+v87W1IhIaTsbgqhCaIiCtanWBApFh5SrKBSpSrYfZYnIrbP50OxIqhgeT4QLE9AUMFeUKpSpIVssiW9bjZl536/M6Fks2Vmk91kk8z5vryoc+bcc/8zOXv33nP+R6tDp8QURER3kvZT65wOOGzZEqXAiZZqAgV1ypLQQKCDR+2xAzU6VNNS5okWoOsNMicoyFNGjqumCrWV5aitKEN5zkFU2jwplClned7ddyOjWwbSMzKIUE5amXf0vXK5Zxes60cPH/KbibJ27cd48d+LQxLk83f+iII/ZRYVlP4mCFKQp2AaiNw1Zy7WfvSRz1ve/8/7MBqN0nXKqErr5pm3vm/vXtw2YSKslpNdzUif3tHbJk+WFiJn9O8fshZ/gcy3se5rr7yKpxYuVGKixlFb071AJpWyXQT5Yxz0s45x0Ae8oleCJgXGHlffBh0FVj/SUh2iKDjHdklGVFyXkDPuOfJykb159bFsnfrJUxri/zasl7ZdVGl5BLIOHfSbT/3bb7/h3rvvDUmQL83aB8uP6xRNetk7b+OKBnvoSm6S27J57PF/4tJL67u10QdJanqGlId/XGgba/rUqdi9Yyc6de6MhIQuiI3tJPVuvfTyy0DbiOEs327Zggk3yRdf0hy4yBea7dZH/M2nvQR5miNLN5juZgzPheIBEitj92E3+eVRp3EriwtQXmgPhQtebWp1Eehi6gaNwgyGpjhWW1GKw+tW1H9TOCZJSUnYuPlraQWvSssjcPjAX34HtVptuOkGL1nGjKHPuFkne7g2wfWqfCuyNn2g6E7KM59393xFuseVnFVVOKPfaaip9t4f44Ybb8D0O6ZL6rTYMaamITLq5Jd4+kZaXFwsbUPSdg7l09PvtnKIn5tjxoXnnq8MM47SbJuF6NgpX9qrtKcgTxPUpRpMj2iAB5pSFev305AKaoaMR3SS/wo7Z3kpSuzyea7KnqAyLdprj+2SiOi4RB8VmMrs+NJyOatw8LNl9Vzux4S+9n7z4w9ISfFfO9C8kdW7vSFAQezIQf8NaqiydviVw6XyfDdhAvqMm9msIF/rqMDBj99Q9HCGDB2K5e+8rUi3odID992HD959z+t9F1x4ARY+ufDE1mCywSjVSbQXoarnsX8fjf37KVNPXkRX3Zk5eXm7OkqQlz7c0w2mJYxhRlDrABiTSMpiTd4PeY4DTFTDRDncGqKPjEK8MaN+vz2IQvv0B9a+IfG9N5RNWzbjlFMC5owLomcd05SSIE/IjB83Hvl5jQjzgrCSpwP5ff9dAu7yffB7/MkkJiXh9507An5QP/34I24cN95rymPfvn3x4pIXT+Tfx3dJQEITm3HThyB9c6hzuaQCqV9++QUHDxxAYUEhnA4HdPoIJCR2RWpqKk49ta9Us0G1G7RNREkHlG4Z7JaCZSUleO2VV/DykpcV4ca5eLvZZvP5SdreVvISKL169YqornAsZAx3BzPQm84fjjiZ5iF1NTUoyG69NoDEwRKbkIzouOBuoxz8ZKl0GNtQ3lj2JoaNGKHoRVSVgocAZaDQnryczJg+A/v2USmJuzQ3u4asZW9ei0oFGTaku3vvnoDZInNzcnD1iJEoKvSsrqUMm3dWvnMi/z46JhYGU2AcNnabHUvfeB27d+7Cgb/+kigk/GUrNURQp9MjKioSXRISkJ6ejrT0dCn98uprr5U+DJorxUWF2PvHn7j5ppvleWzqB3sz22qZ6mvcdhnkabKZmZmRrurq5QzshmAF+qT+FyHx9HP9PkMpV/7QnuY+52bfr6WS/ogo6KNioNVHnChPp8yc42XqgQxy9KtVcNjdc43v/8dDmDlLEQd2IEOpujIIKA3yDz34EH768SfPID92FoSm5skfs1bwxy/I3/WDomf1xVdfghp8BCLEKXPtyKvwl5ctC0rXXfXRqhM0v/SuZ/hIo2w8JnH+rHxnBV584QWJ/yfYYjSZ8PfrRuOGG29ERrduTco2K8jLQ36eHbdOuBV2u/z5ngjsy7FafALcboM8Pbx+/frpy4tK/sUYghKJupwyAIZB8r3F7Yf2QmouHUYiHToxYk8UJKI1jUYLXWQUImM6QxshX5Fo/WUTSg65F9eMHT8ez//7hTCaZcdwhSqrsw7Ld/d65ulnsGH9Bg9QThkzA5qIgLONT9ipKitBUdY+lP3xoyLA31q5ApcrrOJsaPCuuXdi7erVXscgeoPTTz/txLXMHj1ls8xqqmtww7hx2L5tm9IVst/5EQXHWWedhbMHDkSv3lTw1wVxXeKljLPYmBjp20tTDnvtNitoy+bu+fdI5HQKRKxjyLRYLF4rvtp1kCdwUlJSYvSCZjEDqDIsYObKhgDL9TY9rpt3ZB/oD7GtCL2IEnWuTi8FfK1OL+XXU/9MIq2iPPuCPVuRv+M7tymdedYAfPr5521lmu3GTzpUpTx5OXn1ldfw3w8/9FDrPfoOaKMCyzTmoghnRRmoZwIR8RGVRsnvXykqmHti0SJMvO1WOXc9rn/6ySeYM2Om1/tmzpqJcePHnbhmTEuXcuD9yZbNm7H+f5+jjmpB6lwQG1Bu098AUUjT/rq0ANJpQd8QYmJipeQCU6oJJpNJCuRR0VEnCgADnpSCGyw5Zumc4Pn/e16iQVYkIpuXbc/9tzfddh/kj02apaUYVwgCo+TTJs85KjEVmVdeL4t5ftZfcDVIN5S9IcwVaHuntiQf5fvc2wYSJ8l+BcEmzKfX5txz1dXh6BF5ttP33n0Pby5902N+vUZNhS5GWTYKbT9WV5SjLN8CsVFLx5Jtm8Hr5BvX3zFrJh78xz8CxpnSIM86/Qyvh69XDL0C/3j4pM3EpGR0PsZOGfBAYXZD9pHDUlbU+vUb8OzTzyjyjnN8Z7ZZBnfkIE+fwtGCKD4mMIEOY/0Tw/uAVRcbh17XTpYFveDoQdQR73Y7EldlOcr+9Px6vv2P3WqufAs/ZwoAFAjk5JOPP8G/X/Bc3PW8ZjL0nXxTDdBWIwV2p6MctVUOnwsW4ksi9lM5uWbUKCx59RU5Na/XL/nbRcg6csTjWnp6Bla8+86J/94pLg5JyW0/nbfhVhzx7Uy8ZaJS3I5WVDv7F3lhpWzyqlbpyGGmp0szmP4lANObkkfPtDr0HT9HdkoF5kOo88EQKHtzmCpQGqX09byRNOVQLUyn2GbcUhrkN36xEU8tespjXhlDb0QEZV9JlBYcoBYUnEvvLHU3q3E6FDUjKd+7FXXlRbK4nXX22fj4f/JcLN4M+eJxoe2VDRs3SJxJJNRxioqi2rpQwxi7tZ6KgZ7J2DFjpe5ZcsKBfC34OUesVg8Oko4W5AkrbZrBcLfABHr7A56/Ega/wpwjqHXKs/TJPbhwu05BnoJ9Q1nx/nu45NJLw83Vdu1PXV0tsr2sbhtPmrotPfboYx5YdD7tAmg7xUtdnyT6Qmlvuj7QByKVB3agplg++yMxMQm/71J0gOgx/JLFL+K5Z7xvWbz/nw9gNNYzUFJVa2paepMyxwKZc6h1KbOmrPQkK+5Ti57Gxi++UDJsObh4QbbN9mdj5YCDnJLR2oCOJiMlbTY04uPgUE6RB6DHVbciIo6qiH1LUW4WaqqCn57V2riW7voOYqMPr+f+9TzG30BZqqq0FAJ1tbXIzvLcwmg8PhX2PHDfAx5udTr1XGg7dWm2u5VH/kRNvnx1N626f9+1E127+v+78ebQZ3T4OnOW1w+gJa8swWmn1WfYaLU6UAORtkyQRx+yOdlH3XrNfvHFRjzt5duYF6yqORcvNttsW9Ug3wCBVINhvIYJRMKhOOsm/bIxiDX6p68vthxFtUN+r7LZf2UtbKBszy9wNWpMMv/ee3HnvLta2JOOPZzSIL9jx07Mv2ueR4CM7TMQurjEZoNYlXsQzlz5LB8aaPmKFRhyhbJmGA0d+/WXX3H9mDFeUx4ff+JxDB5cf9ZIbQozMjOljLC2KrQNl5t91I1d9MCBA5g9c7bP3gEN5loHhkuzLRaP4oWOupI/gU1GauoQcL4SHPXcpTJiPH8Y4nuczM/1pl5syUa1Q77blNxY4Xa94q/tqC3Jc3Nrwq23YuFTi8LN1XbtD1VmEp+8nFCXoZkzZnoE+ZjeZ0HfJVnudtnrzjwzqrKUFf7NmjsX9z1wstmHrPFjCkeOHMGQwZd4pVW+a/5dGDVq1AlTxEZJPPFtVaqdTlD6ZMNts/z8fEyfOl0iXJMRn829O3yQJ+CMRuOpOrDvlbQSTBpwERL7+a96LbGa4ayUbb0o99DC7nrl4T9QU5Dr5teIq0bitaVLw87X9uyQ0iBPAXLy7ZM9g3zP/tB3VbSm8Qsj7cfTvrwSOf/CC/Chj8Imf/cT3cBZZ5yBulrPRjy33nYrbrv9thO3t/U0StqLpz35hkItEekZ5ua6/915wYyLXLwsx2b7pvE1NcgfQyTDYFwNxsbIvbBd+gyEYWA9l7UvKbGZpcKR9iZV5r/gbMRXMvCcc7DmE+8diNrb/MNlPkqDfE5OLibeMsEjyEdn9kNEcnqzp1NXXozyvcqaehPfzPe//Bxw/1Ra1Z7d/0yvHDbXjroW8+bPOzEPuVaAviZcXl6OP/74A3/t24eC/AIQpQIdQWu1GukcgagKiKKgT58+ivvVNgVca24OqhyeCRvz583H9m3b5UzSSv5Ss9XqXrHYlOwSuZHa6vUMo/F1gE2T879TZl+kXTjSr1qpPQdV5aVyptrcdaftKKqy3QmvqCvU9z978qO0ucm1IYeVBnl7Xh5uHH+DR5CPyuiDSENms2fscjpQtssjpni1Gxcfh02bNzeJmnrizbfgm82bPexedPFFeGLhEyf+OzUOSe/mf170obF37178vnUr1q9bj/1796KgoEARFnSATJQFxKyZ2T0TAwYMQGaPHkhKSkbvU3ojMTGxSTQGNHh9FTPVPnhmOL304ktY89Ea/z5y1Lo4G5xrz/Vo2aWu5I9Bl55iXMQE9qDc045OyUC3IWNlgnwuqsrlm4PLjRVu12sKbag8tNPNLWrGcPBo61Arhxs+LeWP0iBfVFSMsdeN8QzyqT0Rmdqr2e7yujqUbPOsnfBmmPoAU658n759Ax73qSefxGsvexZT9TvtNLz8yhI3e9179fYZaInYjZp6r/1ojd/WiYE6WE8LIkhtMImJcvbcObIUC43H8LZVc1xn9arVSmiHqxj4RUet1m2NbatB/niQNxjuYUyQ7SoVlWhCt6HjpdN8X1Jqb59Bvq6sCOX7PDK0sOWH79G9u3+e/UD/cFR93wgoDfIVFRW49uprPYJ8hKEbojMCD7bePCreuol60Mk+LuJef/c/H+CCCy+U1W2ssGrVKtxzp2cGl9FkxPsfUGvnk0JNvWnh0VhoBf/28rfw1aZNoMPMvLw8lBQXB4WorPFYFPCpPeZ555+PiwZfjCuHDTtRtOVt8hJzrcUCh8N72vWmjZuw6EnZ5AY1T17uzUpPSZnEBM0yOb3IhBRkDr0e1A6wowV5l7MSZbvofNpdXnnjdVx19dVy0KnXg4SA0iBPh3Yjho3wCPL6xFTE9Dg9KN54q53wZfiFFxfjurH+vwV7u3fH9u0YdZXn+0WEZOs2uPeaVUJUdnwMCq60/y79OBxwOp2orq4BZbnQP1dUVoA+KImS2FHpkFb/hClx+NT/FlHtrJbwdTqrpMwegQlSYZYgMOnDhj7cTKmpGDtunM+m4URlQPnxHl28jjn67bff4rFHPIvaGmFVIHDxnCybzeNrtbqSP4ZUN6NxDAdbJXdOERGXiMxhN/htn9ZeV/K+qA1mzpmN+x+U3ekKSlBRjUBqbqEkhZKC0BWXX+ER5HVdkhHb+6ygQKmU2oAGmzF7Nh54KPD3pLioCANOP8Orv5989skJXnlSSDYYENupc1Dm1lJGGlIZeBtzy5YtePyxx+Xcya1jGGCxWDwOGNQgfwy6NINhpMCET+XIy/Sd4pE57CZo9L7zcdtrkCeovFEbXHzJYLz7gbLGznJvqnpdHgGlQZ4sjRg+UqKtbSiaTgnofOo58gMp0Kg4tAu1hVYFmkBT+73SSrl39x5ulaDHB3ztjdfRp8/JFpQJXRMR34aay9PccrOzUVPjm9CQDoiffeZZ/xgzHBL0+tOzsrLce3TKrVoVPbl2opRqMFwmgG1kjPktmdNFd0Lm8FugjfTNXd2eg3z5nl9Q16jqNSEhQSpbb8sl5W3pNQ4kyI8fO17ag3YL8tGd0fn0C4IyZcfR/ai2Kzt4b04m1sD+Z3rNgnn0sUdx2eWXnZgL0Q1TvnxbEdoWspiz/bq7cuVKLH9zuV8dDnxptlqGelNSV/LHUMlMST1fFDgVEtTT2vkQbWQMuo+4BdqoGJ86JbYcic2vPYo3vpLY2FgpB7pLl+bzobRHzII9p0CC/KTbJ+OIlJp3UoSIKMSd6ZV6PGBXqW6C6ieUCC0C/ti/DzExvv92fNkZfOHfcDTL88NkytQpuPkWahNRL7RVQ1s2bUUK8/NQWuI/E+/pRU/jCzmSMo4F2TaL1417NcgfextSU1MHaEROCd9+66I1EZHoPmICaEXvS9prxSvN11uufGRUFNZv3Cg1M1Yl9AgoZaEkT+bOnovdu93bNjJBi/hBgfPIeJtZTYEFlYfd7ftD4PMvNuD0M7zvr/u7b/gVQ7F3jyeFwsiRI3Hv/feeuJUa2Ufo9VIrQCItE6RuT1rp0JN4bY5/25QC38n/qWddJl5ORtycEhlOk3Pelb4BtFVDRHPUBMaXkM7UKdNw6KD/xu0cfLjZavVKV6kG+WPomkymPloOyjH12xdN0OnRY+RE6GJ8H+60V+4agqq2rBAVjTpEURbBhx+txsBBg5S+36peMxBQyidPQzz4wIP4+SeP+hh0OefKY3zyzXDEx/vgz+K/l7yE0dddF/Cgo6+9Ftt++93jvjMHDMC/FwfWZ/h431W338eCuhTkG/xIPZGlfxfAhPprlEFT/+GhgaDRQiMc/2dqHai8H1FxUSGKCwv9YkHVuFMnT5Vr6O2sY+hqsVi88purQf5kkM/QchAXc6w/1Kn3KdEN0wGsL2mvLJQ0X7HaidJd37r19qQ/hNeXvSnlA6sSegSUtv8jT55c+CS+3PSlh1PxA4f4TQNWOguXowxlfyiveJ41dw7ue8CT/tjbeMS2WV3tREV5Be6YNh3bfvcM8gajAe+9/15YnQed/JCo/4CgdErpvwmC5Cf1U6YPjIqyMlkOf+oONfOOmVIqp8/VPvhWs9Xqk1BLDfLHkOuZkpJcK2gOAJDJv2LoefVt0Hf2vf/cXvnkCSrq6Vm683twV63bO/f4widw26RJSmODqtcMBJQ28qYhqP0ftQFsLPFnXQam83v8pMhDav9X9udPgChfEEUGrxh2JZa99ZZf25QNVFRYgJpjueikTLz4xI/fWIhbZuV7KwOuMFU0uTBQom9hDz34kN8PA87xqtlm8d7xXM2uOfkUMzMz40VnTRaYfBMRSqGM6ur7cKfQfFjqaN8ehXLly/74EWKj+VGAp0CvSugRCCTIL1u2HO+uWOnhFB280gFsc4X4a8r//MmjY5gvu4POOQf/WbUKOr17VSoVIFVWVoByxmtrPJuDP/LwI/j+O89CvLj4eLz19vJ2e+j/1JNPYePGjX4fE+eYZLZZfH5yqiv5Y/BRo28tB7W5kU0RSb90DGJNvhuHFGQfRJ2fvNfm/mG15v1cdIHSKF2N+PKpBSC1AlQl9Ag0bPYsN9p//7sKr3rhfel8xkXQ+MkQk7N7/LpY45RW8rzWMzB7s0HcNWs/+1TKsKFiLQrolGFCqYT+5PF/LsAWLyRllNn1xtI3QBQH7U1oP37036/zezBLc3bV1Z6Vm5/vk/NZDfIn3wxdhtFkU8Ipn3rhVeic2cfnO5Wf9ZfPDvdt/kXkXOKvIZrZhpKWkY4ffvY84Gvz8w3DCVBwzDrkP9viuNvr1q3Hc14KaTpRn1c/yQNKpy3WVqP8z59BwV6JpKam4n8b1ktsiw5atdfWyu5Lk92FTzyJr770PFsgagNqA9ijR/vL7PL1Ae2GM+e2JJs143fAff+0gZIa5E+CIWQYTcTYL9uIMmXQECSccqbPd9p+eC+4wj1KJX8Y4aZTcWAHahs1cKaDJcqBppWVKqFFIJAg//33P+CRfzzs4VDsqedCF4Q+r7yuFmUU5KuVNa6n9+Odle+ACugCEV+54nq9Hi8sfgH9+vULxFzY61IG1dw5c7F3z16/vrrAHsq15j7lT0kN8g3QSTcY8xhjSXJvQNKZg5F4mvd0Qc5F2A/5fzBy9sP9elX2X3DaPNvPrf30U5w9aGC4u9/m/aMFxBGFK/mdO3fhrrl3egb5UwZCF9/8Pq90RlO+52e4FDaup8XAyndXIjUtNaDn8MxTz2DDhg0e91C2yrPPPYuB7ey9o/68d8+b75clkwOVVbU1xoKCAr+9RtUg3zDIG01mBqTJvX1dT78Ayf29l4XXVTtRYFbW3FhunHC9Xp2fA8cRyjZ1l0XPPI2bJ0wIV7fbjV9UIHPkICWCycvhw9QC0DPrKabXAOgTUuQNyGjQB44U5APoabzo6UW44ILAaBV8BXlyrzG1QbMn1coGSktLMW3qdOTZ7X494eBbzFYrVbX5TW1Sg7zbSj71IGO8p9wzTuhzNlIGXupVzVleihI7nd+2X/HFK3/zxIlY9LTfb47tF5QWntnhA8qoBAry8zFu7HgP76J7nIGIRFPzvaYzGuIzqlRO4zFt+nTceNMNAY39zNPPYMN6z5U8GZk5exbGjQucwvi4A7T9RT+UtUSH2i5RlM4JpIba0v/X/64vha2X47nwlPOu02mh02qlPPhgyIoVK/HWMv9cNZIPXLz3qM32f3JjqkG+AUJpRtNeAZDtphDf8wwYz/PKBYSyAhscJf6r2OQeSrhfF2uqUbpji4eb511wAf6z6r9hVZgS7lg21T86eKXAJCd0sHnlFVd6BvlupyIiJUPudkXXy/f/jrpSZS30yODIq0bi3vtOUhEoGcRfkL/m2mtATb0pY4daAB6nCaCMHYejSiokKi0tQXFxidQrlv7d4XBIHPGVjkqJT550qxz13PL0z7QnTkGffijYE9YNK2QlmgSNBpFRkRLVsdQL1mhEz169cNlll4I6YTVF9uzZi/vvvc9v8RPZ5RyVtRC722w2d/Y5L4OqQb4BKOkG007G0F/u4XTK6IO0i67yqlaYcxi1zvaZI398wvTSE+UwRJcbBn1PPVVKj2vqCy6Hu3r9JAJZhw9Jq04lMvzK4VKTi4YSldYbkabgZKR4I63z59cZ/fvjxZcWK3H9hI6/IB+QoRZQpg+DM/qfgZtuukk6K6APBCVis9kwZ/YcqZm4nLi4+ESuzfaonB5dV4N8wyBvNG5lYLIELDGmHsi49O8e+FLwy6PMGvqa186FMipcjb6iU3rcZxvWS6saVUKLABFbUdm/Ehk9ajRKGjEdUoCnQB8Mqco5CKdF+TlUfJcuWPuxTGPqY47Rqvvzzz/Hx2s/gc2qjLc+GHNqqg3icTr/gvMxbNgw9OnbR8oiUkLBXVNTKwX4v/bvVzJ0IXdpzjPnKTv8U4N8A0jTjKYfBEC2CWVUchoyr/Dc53TV1iL/qLK9UiVPMpx1Kg/tQk2jZhHUyX7DV18iLU327Dqcp9YmfDNnZaFWYQHSjTfcCJuVSkBOSkRyBqIzTw3KXKvzzHBkeTJE+jP+xaYvfPY9zcnJwdZff8U3W77F/r/2w1mlLAc/KJNRaITedWJdNRiMiO8Sj169eklBPSkxEZGRfolsPUagg1bq/LR9+3ZFo3PwFWarlU7TFX2VU4N8w5W8wbiZMeb9RLXhH0h8MnqMJA5rd/hqnA4U5XimFip6cm1MqSr3EJy5ngU5n637HP0HDGhjs2l77uZmH/XYgvE1i9tvux1ZR9y52PVdTYjpGTjlr7cxaovzUHFAWYA6fv+qj1YjMbH+Gx/te9PZwZEjR/Dqq6/hzz/+VLwVFeonR1stWp1Ooi8+9/xzcfnlQ9CzZw8kJiYGhYo4NzcXs2fO9vim5XNeHKXx3JW6y2733vXby41qkG8Y5I2mNQwYLffiMI0Gcd1PQ+Jp50EXc5JX3lleghJ7rtzt7eI6reJpNd9YFj79FCZMnNgu5hjOk8g1Z0sNp5XIjDtmYN/efW6quvgkxJ5ytpLbZXXqKkqlNMpAhBq/R0VHSQ0z8vPykZObi6LCIqlJdmsLrdIvuvginHrqqVIlLTFd0uEqbcUES4jOYc2atVi9arXXjle+xuFcvMdssz0fiB9qkG+AVprR9KYATFYOIAOlU8b3OgMRnbugvDAPlSXyhybK7YevppRGuf83N8ph8nbMuLH41+LADtXCd5bh65k1NwdVDmVVpvPumocd292pTbSduqDTqT7ZaQOaOFEalO6gpmptV6irWc/evXDd6NE46+yzAt5yUTpzyurZv38/3ly6DHv+9Kw18WeHgx9hOt3A7Oxsd04RmcHVIN8wyBtMTwsM9yt9YMf1qJFIdEoGIkw9IHaQs+w64iW10gAAIABJREFURzkq9vwCIixrKJndM/HNDz8ECqGqHyACdqsVlRV+Cx1PWHz4Hw/jh+/dn4kmqhM6nyF7/KTIKynb6rdNHh/4im4OA6WxY8dg7Phx0hZMIE0/AnGdtmXWfLQWP/7wg7RypxTNAKXYJbD+ubm5ARfhqEG+AdIZycbp0LDXAgT/hDrTaKFPTEVEUio0ftoDNtV+ON1HVMMS+2BdowwPBuzeu1f6eqtK6BDIt9tRXqasAGnRk4uwaeMmN2cEfRTiBgSnzysZppW8UpKyYKDCgQoGFILzMjBWSiX+jKEOIkSpdImBMwYt51wAWE8GnOJrXCI5o4yYswcORKrJJCUOJCYFtudOQbu0tAwFBfnStlNxSQmsFgv279uPrKwsj2bqgWLAuTjbbLO9HOh9pK8G+QaopSclXcy0um+bAmTjeyjYR3frG5TuO8HwJ9g2qGlI2a7vIXrJ8KA0yv79ZcsNgu1Sh7JXWJCP0mJl39oXv7AYH3/8sRs+tCCh7lDBEm8ptUGwTdVetOQVOfg3ogsfMyZuL3c6/yotLVU2eQDpRuPFDIz2kxTHOzpwNRiNSOiagPi4OEREREKrpepWHZzOalTXVEsFS2WlZcjPy1N+cBo4KJyLfJHZbvVkmVNoS/GkFdpr02pJSUmxkRptMWNMWfWCzGyZLgL6rkZEmXqAaYN3aBMWIHOOUgryXtgHF7+8BH8fLXt+HRbTaKtOUOVmSZGyyuqVK97F8mXLPKYaf85QqXdpMISyayjLJkjyAwfbIHBsB6/bo+vUyXLw4EH3aq7ABtKkG4xLGGN3BHZb62uL4Iu1EREPZGVlKTtl9+KyGuQbgZJhMB4CY8EpBTxmmwlaRGb0hr6LAbR/317EG+UwzW3OnXNxz/0BH220F1haZB4lxcUoKpCtaJd8WbduHZ575jkPv+IGXApBHxEUfx1H96HafrRpthgjUvnDHHydIIovHbXbQ5GHrE03mn5jgG+O8KZ5H6q7nJyLi8w2W7PbralB3jPIrwZjY4L/5BgEfaTEFxJp6EYMR8EfooUtVlkOw5njyYZ47ahReOnVV1rYm441XFlpCQrylK2cf/n5Fzxwv2fz7E79zoc2Ni4owDktR1CVE3ghIAd+4Fx8WF9dvf1wcbGyQ4YmepyWknIeY8L3wfqm3kQ3ZG/jwIEa0TXRbrf/dmy7SvYefwptP9I0a/qeN6cbDDMYE0IaoehQNtLQHbouSW16z762OB8VB7Z5gDhw0CCs+dSzeXSQH1WHNldRXoY8m3sVqy9ADhw4gGlTpnlcjjnlbOjjZdsneJolwq4aJ1zOyvrfleWoLS1Q3DjkuEEO/oPZar0cgLLegUF44t2MxjEc7B0AMUEwFzwTXOrs9JsI8RNBr38j0DRJNcgH8Ch6JSR0ro6ItDMgsNrkAMY4rsr0kYjtPQDamOCspprgQrNucdU6UbbdMz86xWDAr9t+b5Zt9Wb/CDgqK2GzKCu8o5S9cWPGeRiMzuyHiOR0RVBTNlVNkQ21JYVwVZWCB54C6DEO5/jZbLMERiyvyFv/St2MadeJ3PUhY0wTyGFsEIZubIISgfK4iz/n0grvWCyWkBTZqCt5L08uNSXlco1GswYcLRB9GbSdu4C4RPRdktvcNg6xUVJ3oIZChEzbdu8CFZioEhoEnFVVsOSYFRmn9L5hQ4d5UBNHpvZCVGp9+wRq/uGqqoDLUQGxpkr64dVVcNU4pSbdjZ+xooFllDjHZ2ab5dpg2ArURiYyI2tMNcmCKHZnXOjJNejGRDGdMYGaNxOpT7Bf3mrOsZ0xtotz118c2r0u5vrTarVa4Kc/a6Dz8qavBnnvKLI0o3GKAPZMCB62z+em6ZSA6G59oI3q1GaCfenuHyFWeRblvLZ0KUZcNTIY76hqwwsCNTU1yDnqzkfjD6gbrr8Bdpt7pyHaNmT6CIgO2nZpDXps/lC21RqWXWZ69OgRV1tZmc44N4oaTTcG9GBAKgdMDIjnYDqBg4mMM4EzLjKps4gLYIWMcxvnOMoF7Bfr6rLgch21FBVREVOr0NOqQd73XwbrZjSe5QJ7XwDo071FhAkaaGLiEJXRB9qY8C8oqvhrG2pLPLM8brrlFjz1LH1GqhIKBIjU6+hh5fS+d8+7G9u2eZ6fhMI3hTara7iYrqTphUJ7La1GuacUP+mHgjf9yHdxaWkvW3k/qhWmG/iQAwcO1OVZLLPB2W3UC6DFMGMCdAnJiEhKh65Tl7Bd2RPFLFHNNpbU9DR8/9NPiri0A38q6h3UMOTokcOKexc8tegpbPxiY9gAJ3K+MsdmVZnsWuCJqCt55SBrM1JShnMmLGWMGZTf1lxNBk1MJ8SeMjAsc+x9pVFSxeCv27epDUSa+/h93E/t6LKPHFbUApBMLH1jKd5/7/0QeROYWc5hKauqPD2QqtXARlC1GyKgBvkA34devXpFVFdWngfOrmEMNwJIDdBEE9UZtHFdJV6c+gPa4FQqNtGZE7dVF1jgOLzbwwwRPX3y+f9Ard5UCT4CFOTNWUckLnYlsmbNGry0+CUlqqHT4ajlwOu1EBe04W2a0OETIstqkG8esCw9xXQNGHuYMU5pCgnNM6fsbiEyBtHpvaHtlNDqdAm1ZUWo2LfVw3Hqc/nq0jcwYqR6+KrsqQamRUGeDl6Vshl+8823+OejjwU2SHC0RXDYOeM7RUG4Mzc3N/CKqeD40WGtqEE+OI9em56c3A3QDIXAFjCGJlSYBOgIq6+g1cUnIyqtB5imdegSqCCGiMq8yb0PPIDZc+cEODFVXQkClPKYk31U6qikRHbv2oW5c+5Uoho8HY53uID3UaP5w1xgpgatrZJdErwJtU1LapAP/nPTpCUbb2QaTGZgVOgRHHIQf34yAfquBokMTRsb36JVtJQ/Tbny3uSaUddiyauvBh9h1aJ04JqbnY2aGmW8XUcOH8HkSZMVH9Q2gtgVFR3tEBjjDocjtp6+179wwKGJ0HdtDrGW3BjqdWUIqEFeGU5N0dKmp6T0ZYLmdShoDt6UATzuYQyUghlh6IYoU88Wy8jxxSXeo2dPbP4uKMzNQYGnPRmhIG8xm1FdrYyc0Gw2Y/KkKaC2c0qECULtoEGDLGOuG93p1NP6dYqIiKDqUMyaNbvq0IGDspQAIvBjjtXyNyVjqTqhRUAN8qHFl6zrU1NSLxLApzAB1wOQXQUFwyUK9trOCdJhrT4uCUJkdDDMerVRcXAnaos8eVTo8PX3XTvVytcQIC8F+Ryz4j6vFosVUydPAbWfayh6vb48Jiba2b1HjxhTaioyMzPZ6aefxjMyMjRRUVEe30IXPP6EbfPXXyvJLnsz22qZGoKpqyYDREAN8gEC1hz1pKSkXpEaLaVgntPSBElCTGdEGbvXb+doddKKP1hSbc2Cw7zfq7k3334bQ68cGqyhVDvHEKAgT31eid5AieTl5WHqlKlSk4uGMmnyJPuEiRNSlNggnTVr1jheWvyS7IqBgz9itloXKrWr6oUOATXIhw5bX5Z16QbDAMbZXAjsppZa2R93hml0ECIipapaXXxSPQthM2mPpabeXjJsaMzbp0zGPxcsaHmUO8CIRFBGRGVKhEjKpk+djqKiIjf1O+6Ynnf9jTckK7FBOrt377LPnX2n7IeCyDEnx2ZZotSuqhc6BNQgHzpsZS2nGQznCmCPgbGLAXSSvSEUCkwDTWxn6OMSoYnpDEEXASEiKqDDW2oBWLpji9dGzv0HDMDaTz8BFUepElwE7FYLKisqFBktLi7GHdPuAK3oG8rsubPzx4wZozgbrLq62jl82AgtOJd5oHxattW6VJFzqlJIEVCDfEjhVWRcYzAY0nVMeIEBo1qMNsGba3RwS6t6QQOm00MT0wX6uK7Qdurit4MQZdiU7vpOYitsLOkZGfhs3Tp0SQg2qZ8ibNu1UiDNvEtLSzFj+gxYrZTJeFLmz59feM2oa7oGAtS4seOKC/ILZB4ouyPbmktJB6q0MgJqkG/lB9BgeK3JZDpPI2IyGCYwIKyWvtT4mWn19cFfH3Hin6W9fSbAaT3sNch37twZn61fh8zu3cMH6XbiSVFBAUqK3bdffE2Nmk7PuGMGcsxEhnhS7r3v3uKRV40M6BP40Ucerfju2+9i/cHIOe412yz/106gbtPTUIN8GD6+nrGxybWxnZeB4ZJW28YJEi70zeCDVatwwYUt3hsiSDMIXzMU4CnQKxHKqpk5YyaOZrn3YZ0/f17hNaOuDWgl/9byt8pXvLPC7/Yi53jebLPco8Q3VSe0CKhBPrT4Nse6ppvReIoI3MSAOwHWOnv2zZnBsXvn3XM37po/PwiWVBMNESgvKwVt2SgRp9OJWTNm4fDhw27qc+6cm3/ddaMV78nTzV9/vbnyiccX+M2V58AHZquFEgtUaWUE1CDfyg9AyfDpiYkmrtU/IDBciRbktlfimxKdQeeei48+XqtEVdUJAIFAWgBSk5FZM2fh4IGDbiPMmjUzb+z4cYqza+jm/fv3V98x7Q6/ldyt1dovAPg6jKoa5NvQo05MTOwUodUOFpjwCgMy2orrVBS1e+8exMT63cZtK9MJGz8DaQFIHDdzZs2hAO3m/7Tp0/JuvOnGgIJ8RUWF45qrrvGfK895ebbNGv5db8LmaYbOETXIhw7bkFkmumNnRcXlGghjRYZrGFqAEK2Zs/nPatqXv7CZVtTbGyJAFAVmhS0AiZKYgvzevXvdQJw06Xb7hFsnyua9N0b++nHjbXl5+X4rX8Wa6rScwkJl3cbVRxsyBNQgHzJoW8Ywre6jNZGTuCDeeyzYtw4dpcx073/oQcycPbtlQOkgo1B3qCyFLQCpQnbO7Dn4848/3dC58eYb86ZNmxbQSp4MvPvuu2XLli7zu1IX64SrcvJz1nWQxxG201SDfNg+msAck4K9Xt+fu/hICOyWcNvOIUbKl155pT4PX5WgIXDk4AHFzJLz7pqHHdt3uI09ZtzYgtmzZyUG6lBObm7hLTfdksDqe5x6FQ7+sNlqfTJQ26p+cBFQ/+KCi2e4WNOmG40XMI4pYGwggMyW5sppDET/M8+UOkUJQovws4XLcwi5H9QdSimn/IMPPISff/rJzadrRl1bOn/+vLhAHaVvBlePuLrSUeXwnWXD+apsm5VI+VQe+UABDqK+GuSDCGYYmmKJiYmxer2+i0Zkl4Px6xnHEDDoWtrXuPg4bNu1S6U3CDLw1hwzqhSSlC1Y8AQ2f/W1mwcjRo6oue/++5q0xTdj+gznvn37In2u5Dn/NSI2ZvDBgweVkd4HGRvVXD0CapDvYG9CRlxcFx4dfTqAcxhYXw50o5U+q/8d0gYn/9uwXu35GuT3Lc9mRUV5uSKrzz37HNZ97r5FfvmQy2sfefSRJn3oP7FgoePrr77ynWXDYdVWV516uLi4VJGDqlJIEFCDfEhgbZNGNcnJyZk6xk7lQHeBaU4BQ5oAJIscsYwjiglwccZquMjzGUMewA4zznVguE/JjCdNnYrHHv+nElVVRyEChfn5KC0pVqT90osvYc1Ha9x0zzrrrNJ//ftfAW/XkJH33n2v6M2lb/rra8y5q663OS/vkCIHVaWQIKAG+ZDA2nGMSge+Oj1RG/r82n4cja6Jidi6fRsob16V4CBQUlyMooJ8RcbeeP0NfPD+B2663bt3z1/+9vKAKl6PG9ixY0f5vDvn+a3Edon8oVy79SlFDqpKIUFADfIhgbVjGU0zGFcIjE1QMuvvfvoRGd1oZ0iVYCBAVMNEOaxE3nn7Hbz91ttuqgmJXe0ffbQ64Dx5MlJRWVlxzcirowD4/tTm2J5ts5ytxD9VJzQIqEE+NLh2KKvGxMSBOp3+NyWTfmvFClx+xRAlqqqOAgQCqXr9zwcf4vXXXnOzGhkVlb9+w7omreTJ0Ngx4+yFBQX+PiTEatFltNvt7kT2CuamqgQHATXIBwfHDm0lJSUlRi9o9jEgTQ6I+x58ALPmzJFTU68rRIAaeVNDb0pplJO1az/Gi/9e7KamEYTyLzd/1WTyu389/6/Szz79zO+efp2IoRa75Us5/9TroUFADfKhwbWjWdVmGE2UtiHbzHXYyBF44803Oxo+IZsvURvkmrMhiqLsGOvXrcezzzzrpsc555u/2cwZY00qYPjyq6/ynlyw0G/FLOfsHrMt93lZB1WFkCCgBvmQwNrxjKYbUx9m4E/IzTw5JQW/bvtdrXyVA0rh9bq6OuRmHwVx08jJV199hYULPHtrf/LZJ2WdqbtLEyQrK6t2yqQpNL6fNEz+XrbVeksTzKu3BAEBNcgHAUTVBJCanHymRqPdrqT2Yv2mTeh3Wj8VtiAgQMGdgjwFezn5/vvv8cg/HvFQe/f99/JTU01N2pfPz8+vmzp5Ki8tLfUZ5Dn4n2arlWozVGkFBNQg3wqgt9MhhXSjaS8DTpGb3+w75+Le+++XU1OvK0CA9uKJibKutlZWe+uvW3HfvZ4lDa++/mp+3759mxTkKyoqaqdNmcatVqvPqlkO1JVWVqSUlZUp61UoOxNVIRAE1CAfCFqqrl8E0g2mBYzBc6nY6K5+p50mNffW6sKqjW2bfbq0J1/tdMr6v3v3bsydPddD77nnnysdNGhQkwqiXC6X647pd4gHDxz0WzUriq6bc+z292WdVBWCjoAa5IMOacc1mJaScp6g0XwH7p8bJyk5Cf/bsAEGg1868o4LZIAzz7fZUF5eJnvXwUOHMHXSFA+9fy54vO6SSwY3+RP33nvvK/zt161++8RyER+a7ZYbZJ1UFYKOgBrkgw5pxzVIbQqZTvc7wPxGb71ej9Ufr8WZAwZ0XLCCOPOSoiIUFco39M7NteCWm272GPnue+6uvPqaq/32bPXn7muvvV7w4Qf/8UtXzAFzpy7xvfbs2VMTxKmrphQgoAZ5BSCpKooREDIMhu/BhAvk7nh84RO4bdIkOTX1ugIElFa9FhcV4brRYzwsTpo8uWDCxFsC5pQ/buiLL76ofnrR03LkdsVijXBGTmGO2ilKwTMNpooa5IOJpmoL6cmGGUwjvCIHxeBLLsHKD9QtWjmclFxX2gbQWeXEiOEjPEyOGXtd3uw5cwLuDnXc0Lbft+XdPf9uufsddQwXWSwWysBSpQURUIN8C4LdEYZK65yWIMSIOQCI08Sn6PQ6/L5zJ+LimnTe1xGgVDxHyrDJOnRQtuqV9IZcNsRD78rhw4oefPABf2ySfn3JMefkTbhlgv+CKMDFRAzPVitfFT/XYCmqQT5YSKp2TiCQbjBuZoxdKgfJG8uXYdjw4XJq6nUFCGQfOYK6Ovk0ypHDR3o0GRl8yeCqxxc87vdD2Z8LDoej4qoRV8XKuuniE7LzrO/K6qkKQUVADfJBhVM1RgikG40PMzDZ6tdbJk7Ek0+rLLTBeGssOWYQWZmcXDf6OhQXufPPn3f++a6nn3mKaA2aGg/4ZYMvq5PrOCZy/DPHZnlczkf1enARaOpDDa4XqrV2hUBGsmkoNNgoN6mBgwbhw49WQ6drUmMiOfMd6rrSDlE33XgzrBZ3auIBAwZUP//C8zqhGQ14L7tsSCVE0X+Gjshez7bn3tGhHkwYTFYN8mHwENqbC2mdOyewmJgCBub3/UpISMD3v/yMmJgmZ++1N+iaPB9KoaRUSjkhnplDh9wbNfXr18/x4pIXIzTN6OZyxZChpa66Or8HLJzjQ7NNzZWXe0bBvq4G+WAjqtqTEEgzmD4TGK6Wg+OD1atw4YUXyqmp12UQKCstRUGeXRanO+feiV07d7np9e7dy/Hyqy9H6HT6JrfsGjrkypK6utp4fw5wYK3ZarlO1klVIagIqEE+qHCqxo4jkGYwXCowYbMcIteO/jteevllOTX1ugwCjsoK2Bptw3i75aEH/4GffvzR7VL3Ht2rX33tVV1EREST6IbJ2JDLhpSLoijDS89XZVut49WH2bIIqEG+ZfHuSKPpMgzGbDD/1a+RkZH4fddOxMbKJ2d0JPACnStx1xCHjZw8uXARvty0yU0tIyNDfH3p6ywyMjLgeOB0Omu3/vpr9aOP/lMPzn2SlNGAIrA0x2qZJuejej24CAT8UIM7vGqtHSNArJTrGXCl3Bz/u+YjnHf++XJq6nU/CBDVcPaRw7IY/fuFxfjk44/d9FIMhtrlby3TRkdHK4oHzqoqV2lZGf77n1XFn376SVRdXZ2iQxWRi4/l2GwLZJ1UFYKKgKKHGtQRVWMdBoE0g+lRgUE2Ze6BfzyEGbNmdRhcQjFRpQVRy5Ytx7srVrq5EB8XV7Xy/Xf1sbGxPvfkRVF0/frr1pItX2/W7d23NyLHnCOIohhIWhR3cfH6XJttVSjmr9r0jYAa5NW3I2QIpBuNgxjYVrkBrrhyKJa9/bacmnpdBgFrbg6qHA6/WqtXrcbLS9zPQCIiI6tefGkxj46K1rpEl8bprBadzqq6iooK7f59+0v27tsXu2vHTl5TUxPdjIdQBfCLs63W35thQ721CQioQb4JoKm3KEZAyDAYD4Oxbv7uoM5zO/f8iWakaSt2qD0rFhcVoriw0O8Uv/jiCzy96OnGOjwyMvJ4J3Dmcrk4/Yii2JwCKbcxOIe1hrt62+32yvb8DMJxbmqQD8en0o58SjeZFjAu30hk+TtvY8hQ2T7g7QiZ4E/F4aiELdc/yeN3332Hxx55TJbnJsjeiSL4rTlWldIgyLgqMqcGeUUwqUpNRcCUZDpLq8EvciXvQ4cNw5tvLW/qMOp9lL0iijh6+JDfAP7b1t9w/333S7otJhz/y7ZZrmmx8dSB3BBQg7z6QoQUge7JySkujZb25dP9DZSUlIQvt2xBfBe/9TQh9bWtG5f6vWYRUZnvpt579uzBnXPuVNT4Oxh4ULMQuDSXmfPM7mW2wTCu2lCEgBrkFcGkKjUDASHDaFoPmVRKypenVEq1W1QzkAZHrtnst99rVtZRTJsyFbUKGn83xxPpXo6fNGLd6CN5Ckpxmz2YasAXAmqQV9+NkCOQlpx2s6ARZSlmH1vwOCZN8exBGnIH29EAdqsF1CnKl+Tl5WHiLRNRXV0dsllzoA7gz0TX1j6zv6CgPGQDqYYVIaAGeUUwqUrNQSAlJSVGL2hyGOB3L2bgOYOw5pNPmjNUh7+3sCAfpcXuVMINQamoqMS4MWPhdDpDgVUZ5/hI1LClubm5P0treVVaHQE1yLf6I+gYDqQZjP8VGBsnN9uftv4KU2qqnJp63QcCFeXlINphX0L79qOuGYXy8qAssCmI14DzEg7+stlmo9xM+c4l6tNrUQTUIN+icHfcwdJTTJOYgGVyCDz82GOYOl2lN5HDydf1mpoa5BzN8nv7XXfOw84dO5o6BOfAAQb+jQh8q2HsT6bX783KygrJV4OmOqnedxIBNcirb0OLIJCWltZfcInbAPils71o8GCseO9dNIPavEXmE86DHDlI/V59p0i+9NISrFn9kZIpUPlsLjgKuIAdLhe+qXHVfFtQUOD7q4ISq6pOiyKgBvkWhbtDD6ZNN5mOMg6TPxRS09KwYdNGdFYbfDf5ZZGjN1j3+To89+xzsvZFUVwiROgfzc7OppNcdRtGFrHwVFCDfHg+l3bpVYbJNAccL/qbHFEbrFq7BoPOOaddYhDqSVGOfL7djiqHb/aAvw4cwPQp8ltiHOwRszV3Yah9Vu2HFgE1yIcWX9W6OwKaDKOpFIBfatpRo0fjxZeXqNgFggDncFRWIj/PDpfL5fdOqna9cuiVcNX51wPDg9kWiwfRTSBuqbqtj4Aa5Fv/GXQoDzIMpi/BMMTfpCMiIvDz77+BesCq4h8Bypah4E5pk05nlWK4brrhJlit/rfWOWePmm25Tyg2qiqGJQJqkA/Lx9J+nUo3pD7CGJdtHPH6m29i+MgR7ReIZs6Mgjt1gyLmSTl6YW9Deev16qHHxeeybbb7mumqensrI6AG+VZ+AB1t+G6JxrO5jslyit96++1Y8KS6Hezt/aCgTkVPtTWUot60eqOFTzyJr7780u/rx0UsN9stkzvaO9re5qsG+fb2RMN/PkK60bibgfXz52qfvn2x8euvwn82LeQh7bPTYWp5aRmqqvw3BlHi0lvL38KKd1b4D/LgX5it1uFK7Kk64YuAGuTD99m0W8/SUlImC4LmTbkJfvPD98js3l1OrV1fp5V6WWmJ1AwkmPTAm7/ejAWP+9814xwHzTZL73YNcAeYnBrkO8BDDrcpmkymDC0HFUZ19edbt8xMnHPuufjbxRdh8CWXIDExMdymEjJ/aEumvLwMTocjJLTAhw4dwpRJMmRwHLXZNgu1/PPNXRwyBFTDwUJADfLBQlK1oxiBXr16RdRUOr4GcKHimwCcPXAgRo8Zg3PPOxeJSUmIj4+HVqsNxERY67rq6iTiMDpMrQkhS6TD4ZAya2SDPABWqzMdLTiqVriG9Zvj3zk1yLfhh9eWXU9LMc0VBCxuyhwiIiPRNSEBiclJ+Nvf/oZLhwzB2WefDb1e3xRzrX4Pte2jFEjinaFAHwoh/vitW3/Dli1bsG/vXhQWFsJRKb+3z7nmXLPNLNuMPRQ+qzaDg4Aa5IODo2olQAQy4uK6IDqGmLQ6B3irV/XY2FicfsYZUtORvv1ORXp6BlLTUpGSnAxNmK32RZdL4nOnA9TK8vKgN/CgbwM2mw25uRYcOngQf+z+A7v/+APOKuV59MdBFsHH5Fita4LxjFQbrYOAGuRbB3d1VAAZBuMKMDYhFGAQPQL90Oqetncuvfxy/O2ii9Crd2/pv7eG0Eq9tLgIRAfc1NRHX35nZ2fj119/xc8//4JdO3ZKh7T00+xxRNyZbbf4paJoDSzVMZUjoAZ55VipmkFGIN1k+jvjWC3HTBnMYaOiomAwGpGSkoLk5GQkp6RIK37isDcajdK/U7/ZYOz10xYJHaA6qxzSyp3y2psiZIe2V/Lz8mGz22C12mC32VBQUIC+d5JZAAADiElEQVSC/AJp1U777KGQOlfd3yx5eT+GwrZqs2UQUIN8y+CsjuIFgW6JiUau1e0DY0HZsgkWyIwxEBtmRkYGUtPTYDKZpOBPWz8JXRPRqXMn6HQ6iQ5ZI2ig0dR/a6D7aPVMgZ1W63W1teD0f1K9Ev3m4CKHyOtX2fRD+e/046xyoqi4CIVFRSikwG23w2a1SlsueXZ7sKYWmB2On7JtloAOxwMbQNVuCQTUIN8SKKtj+EKApZtMyxjH7W0JIgroFOSlQK/VSqt+zbHtIWl7hDHQHxYFfSmwSzGen9g+OR7Y6TexRtKPHKlYi+PDWKnoqrs4x27f3eJjqwMGFQE1yAcVTtVYoAh0Nxq7ucD2AYgM9F5VP2QIcC7yp8x266MAZKgqQ+aDajhICKhBPkhAqmaajkCG0bQJwBVNt6DeGUwEOMcrZptlrhrgg4lq69lSg3zrYa+OfAyBdINhFmOCSiDf+m9EDRgWO2pqnigoKAhKp+/Wn5LqgRrk1Xeg1RHonpyc4hK068GQCSAOQOvkOLY6Eq3mAB0bFLk4m59ry/XPWtZqLqoDNxUBNcg3FTn1vmAjoElPTs7k0PQXNGwMgGsBdAr2IKo9dwQ45y6Avc646/lsu/2wik/7Q0AN8u3vmbaLGSUkJHSO0UVeBvARjLH+ADLBkKKu8oP1eHmWyPGdAP5Mts32Z7CsqnbCDwE1yIffM1E9aoRAv3799DU2W2S1TpchrfAF4ToGdjZlKapgKUdAytjn2CiCP1Pjcm3Nz8+nbt9N6zqifFhVs5URUP9IWvkBqMM3DYE+iYmdHDpdHzDWG5z3ZIz14hzdGdCNc57KGGs/9JQBQMSBKgbkcTAbIOYyIJtzflDQaPbWATtzc3MLAzCnqrYDBNQg3w4eojoFdwRSUlJiIjnvLwrCADB2Juq7UNEHANFUUvBv/BNuB720uhaPpTBSnjpRU574zYFacG4F2CFwfhgiOwQtP1jtcu3Py8vLU1fn6l9EQwTUIK++Dx0FAW1mZmZsXXldDI/kMZzzGC0g/WZciOMMCRDFBDDWBUACGI9nQCwHi2ZADIBoDkSDIxqMCQDX0fkAA7Sccy2VtzIKvvURlgKyixGDAUM1ACcDnJyjCow7AaGKcV7OGco5eDnjrJwB5RBQLHJeJIhCCYAqaLgTXPqpEgBHFecOl8tVVVBQQEQ1apFSR3lzmznP/wdgZ2+fyAgSIAAAAABJRU5ErkJggg==;" vertex="1" parent="1">
          <mxGeometry x="580" y="290" width="79.75" height="110" as="geometry" />
        </mxCell>
        <mxCell id="rECgxxsEBo6WnQ4KSCAi-2" value="AppRole" style="rounded=1;whiteSpace=wrap;html=1;" vertex="1" parent="1">
          <mxGeometry x="300" y="190" width="120" height="60" as="geometry" />
        </mxCell>
        <mxCell id="rECgxxsEBo6WnQ4KSCAi-5" value="" style="shape=flexArrow;endArrow=classic;startArrow=classic;html=1;rounded=0;" edge="1" parent="1">
          <mxGeometry width="100" height="100" relative="1" as="geometry">
            <mxPoint x="200" y="330" as="sourcePoint" />
            <mxPoint x="290" y="240" as="targetPoint" />
          </mxGeometry>
        </mxCell>
        <mxCell id="rECgxxsEBo6WnQ4KSCAi-6" value="" style="shape=flexArrow;endArrow=classic;startArrow=classic;html=1;rounded=0;" edge="1" parent="1">
          <mxGeometry width="100" height="100" relative="1" as="geometry">
            <mxPoint x="440" y="220" as="sourcePoint" />
            <mxPoint x="560" y="320" as="targetPoint" />
            <Array as="points">
              <mxPoint x="500" y="270" />
            </Array>
          </mxGeometry>
        </mxCell>
        <mxCell id="rECgxxsEBo6WnQ4KSCAi-10" value="Generate secret ID" style="text;html=1;align=center;verticalAlign=middle;resizable=0;points=[];autosize=1;strokeColor=none;fillColor=none;" vertex="1" parent="1">
          <mxGeometry x="130" y="245" width="120" height="30" as="geometry" />
        </mxCell>
        <mxCell id="rECgxxsEBo6WnQ4KSCAi-11" value="Authenticate with Role ID and secret ID" style="text;html=1;align=center;verticalAlign=middle;resizable=0;points=[];autosize=1;strokeColor=none;fillColor=none;" vertex="1" parent="1">
          <mxGeometry x="490" y="230" width="230" height="30" as="geometry" />
        </mxCell>
      </root>
    </mxGraphModel>
  </diagram>
</mxfile>
